<?xml version="1.0" standalone="no"?>
<!DOCTYPE svg PUBLIC "-//W3C//DTD SVG 1.1//EN" "http://www.w3.org/Graphics/SVG/1.1/DTD/svg11.dtd" >
<svg xmlns="http://www.w3.org/2000/svg" xmlns:xlink="http://www.w3.org/1999/xlink" version="1.1">
<metadata>
Created by FontForge 20190801 at Tue Aug 16 09:03:20 2022
 By www-data
Copyright (c) 2022 Cohere Inc. All rights reserved.
</metadata>
<defs>
<font id="CohereTextRegular_870d4a70" horiz-adv-x="1220" >
  <font-face 
    font-family="CohereTextRegular_870d4a70"
    font-weight="400"
    font-stretch="normal"
    units-per-em="2000"
    panose-1="2 15 5 4 3 2 2 2 8 4"
    ascent="1600"
    descent="-400"
    x-height="1012"
    cap-height="1380"
    bbox="-413 -515 2458 2249"
    underline-thickness="100"
    underline-position="-250"
    unicode-range="U+0020-27F6"
  />
<missing-glyph horiz-adv-x="1379" 
d="M180 1372q8 8 22 8h975q14 0 22 -8t8 -22v-1320q0 -14 -8 -22t-22 -8h-975q-14 0 -22 8t-8 22v1320q0 14 8 22zM631 690l-294 466v-936zM972 147l-282 449l-283 -449h565zM689 784l281 449h-561zM1041 220v935l-293 -465z" />
    <glyph glyph-name="co.classify" unicode="&#x3a;co&#x2e;classify&#x3a;" horiz-adv-x="1580" 
d="M1121 18.5q19 -18.5 45 -18.5h252q26 0 44 18.5t18 43.5v252q0 26 -18 44t-44 18h-252q-26 0 -45 -18.5t-19 -43.5v-252q0 -25 19 -43.5zM116.5 627q16.5 -29 45.5 -46t64 -17h386q23 0 46 10.5t42 27.5l178 176q18 18 28 42t10 48v386q0 33 -17.5 62t-46.5 46.5
t-62 17.5h-564q-35 0 -64 -17t-45.5 -46t-16.5 -63v-564q0 -34 16.5 -63zM682.5 18q18.5 -18 45.5 -18h248q27 0 45.5 18t18.5 44v252q0 26 -18.5 44t-45.5 18h-248q-27 0 -45.5 -18t-18.5 -44v-252q0 -26 18.5 -44zM808.5 457q18.5 -19 43.5 -19h124q27 0 45.5 19t18.5 45
v126q0 26 -18.5 44t-45.5 18h-36q-25 0 -44 -16l-86 -82q-20 -17 -20 -44v-46q0 -26 18.5 -45zM1121.5 457.5q19.5 -19.5 44.5 -19.5h252q25 0 43.5 19t18.5 45v250q0 27 -18 45.5t-44 18.5h-252q-26 0 -45 -18.5t-19 -45.5v-250q0 -25 19.5 -44.5z" />
    <glyph glyph-name="co.embed" unicode="&#x3a;co&#x2e;embed&#x3a;" horiz-adv-x="1580" 
d="M728 17.5q-29 17.5 -46.5 46.5t-17.5 62v386q0 24 10 48t28 42l64 64q17 17 40 26t47 9q52 0 87 -35l516 -516q24 -24 24 -62q0 -34 -26.5 -61t-61.5 -27h-602q-33 0 -62 17.5zM100 1254q0 33 17.5 62t46.5 46.5t62 17.5h502q33 0 61.5 -17.5t45.5 -46.5t17 -62v-342
q0 -55 -38 -90l-156 -156q-35 -38 -90 -38h-342q-33 0 -62 17t-46.5 45.5t-17.5 61.5v502zM1063 692q0 32 15.5 60.5t44 46t65.5 17.5h166q33 0 62 -17.5t46.5 -46.5t17.5 -62v-168q0 -37 -18 -65.5t-47.5 -44.5t-61.5 -16q-51 0 -87 36l-166 170q-37 37 -37 90z" />
    <glyph glyph-name="co.extract" unicode="&#x3a;co&#x2e;extract&#x3a;" horiz-adv-x="1580" 
d="M161.5 17q-28.5 17 -45 46t-16.5 63v1128q0 34 16.5 63t45 46t62.5 17h1130q33 0 62 -17.5t46.5 -46.5t17.5 -62v-376q0 -34 -17 -63t-46 -46t-63 -17h-502q-52 0 -88 -36.5t-36 -87.5v-502q0 -33 -17.5 -62t-46.5 -46.5t-62 -17.5h-378q-34 0 -62.5 17zM820 534
q0 34 16.5 63t45 46t62.5 17h410q33 0 62 -17.5t46.5 -46.5t17.5 -62v-408q0 -33 -17.5 -62t-46.5 -46.5t-62 -17.5h-410q-34 0 -62.5 17t-45 46t-16.5 63v408z" />
    <glyph glyph-name="co.rewrite" unicode="&#x3a;co&#x2e;rewrite&#x3a;" horiz-adv-x="1579" 
d="M521 21.5q-36 21.5 -57.5 57.5t-21.5 77v58q0 59 48 110l632 634q23 21 52 32.5t60 11.5h88q42 0 77.5 -20.5t57 -56.5t21.5 -79v-690q0 -41 -21.5 -77t-57.5 -57.5t-77 -21.5h-724q-41 0 -77 21.5zM100 1222q0 43 20.5 79t56.5 57.5t79 21.5h690q42 0 78 -21.5t57 -58
t21 -78.5v-86q0 -31 -12 -60.5t-34 -51.5l-602 -602q-46 -46 -112 -46h-86q-43 0 -79 21t-56.5 57.5t-20.5 79.5v688z" />
    <glyph glyph-name="co.summarize" unicode="&#x3a;co&#x2e;summarize&#x3a;" horiz-adv-x="1580" 
d="M164 331q-29 17 -46.5 45.5t-17.5 61.5v816q0 33 17.5 62t46.5 46.5t62 17.5h816q33 0 62 -17.5t46.5 -46.5t17.5 -62v-574q0 -25 -10 -48t-28 -40l-238 -242q-39 -36 -92 -36h-574q-33 0 -62 17zM978 262q0 49 36 88l116 116q39 36 90 36h134q54 0 90 -36.5t36 -89.5
v-250q0 -34 -16.5 -63t-45.5 -46t-64 -17h-250q-34 0 -63 17t-46 46t-17 63v136z" />
    <glyph glyph-name="co.write" unicode="&#x3a;co&#x2e;write&#x3a;" horiz-adv-x="1580" 
d="M477 17q-29 17 -46 46t-17 63v574q0 25 9.5 48t26.5 40l242 242q16 18 39 27t49 9h574q54 0 90 -36t36 -88v-816q0 -34 -16.5 -63t-45.5 -46t-64 -17h-814q-34 0 -63 17zM100 1254q0 33 17.5 62t46.5 46.5t62 17.5h252q33 0 61.5 -17.5t45.5 -46.5t17 -62v-136
q0 -52 -36 -88l-116 -116q-17 -17 -40 -26.5t-48 -9.5h-136q-34 0 -63 17t-46 46t-17 63v250z" />
    <glyph glyph-name=".notdef" horiz-adv-x="1379" 
d="M180 1372q8 8 22 8h975q14 0 22 -8t8 -22v-1320q0 -14 -8 -22t-22 -8h-975q-14 0 -22 8t-8 22v1320q0 14 8 22zM631 690l-294 466v-936zM972 147l-282 449l-283 -449h565zM689 784l281 449h-561zM1041 220v935l-293 -465z" />
    <glyph glyph-name=".null" horiz-adv-x="0" 
 />
    <glyph glyph-name="nonmarkingreturn" horiz-adv-x="666" 
 />
    <glyph glyph-name="space" unicode=" " horiz-adv-x="488" 
 />
    <glyph glyph-name="exclam" unicode="!" horiz-adv-x="505" 
d="M197 410l-30 548v392q0 14 8 22t22 8h112q14 0 22 -8t8 -22v-392l-30 -548q-1 -29 -31 -29h-50q-30 0 -31 29zM152 8q-8 8 -8 22v147q0 14 8 22t22 8h158q14 0 22 -8t8 -22v-147q0 -14 -8 -22t-22 -8h-158q-14 0 -22 8z" />
    <glyph glyph-name="quotedbl" unicode="&#x22;" horiz-adv-x="785" 
d="M605 859h-62q-29 0 -30 29l-22 501q-1 14 7.5 22.5t22.5 8.5h106q14 0 22.5 -8.5t7.5 -22.5l-22 -501q-1 -29 -30 -29zM242 859h-62q-29 0 -30 29l-22 501q-1 14 7.5 22.5t22.5 8.5h106q14 0 22.5 -8.5t7.5 -22.5l-22 -501q-1 -29 -30 -29z" />
    <glyph glyph-name="numbersign" unicode="#" horiz-adv-x="1393" 
d="M747 8.5q-7 8.5 -5 23.5l58 337h-319l-59 -342q-4 -27 -33 -27h-97q-15 0 -22 8.5t-5 23.5l58 337h-204q-14 0 -22 8t-8 22v82q0 14 8 22t22 8h229l62 358h-243q-14 0 -22 8t-8 22v82q0 14 8 22t22 8h268l59 342q4 27 33 27h97q15 0 22 -8.5t5 -23.5l-58 -337h319l59 342
q4 27 33 27h98q15 0 22 -8.5t5 -23.5l-58 -337h203q14 0 22 -8t8 -22v-82q0 -14 -8 -22t-22 -8h-228l-62 -358h242q14 0 22 -8t8 -22v-82q0 -14 -8 -22t-22 -8h-267l-59 -342q-4 -27 -33 -27h-98q-15 0 -22 8.5zM825 511l62 358h-319l-62 -358h319z" />
    <glyph glyph-name="dollar" unicode="$" 
d="M561 -168q-8 8 -8 22v130q-126 11 -223 63.5t-156.5 141t-74.5 205.5q-1 16 6.5 24t22.5 8h111q27 0 32 -28q18 -111 92.5 -181t190.5 -86v506l-50 8q-201 31 -295 116t-94 234q0 116 53 204.5t152 140t233 58.5v128q0 14 8 22t22 8h65q14 0 22 -8t8 -22v-131
q177 -20 286 -123.5t129 -270.5q1 -16 -6.5 -24t-22.5 -8h-110q-27 0 -32 28q-17 101 -80.5 165.5t-164.5 83.5v-465l27 -4q215 -35 315.5 -125t100.5 -247q0 -120 -53.5 -211.5t-153 -146t-235.5 -64.5v-129q0 -14 -8 -22t-22 -8h-65q-14 0 -22 8zM345 876q61 -50 193 -72
l16 -3v451q-124 -10 -197 -74t-73 -165q0 -87 61 -137zM876 213.5q73 69.5 73 176.5q0 93 -65.5 147.5t-206.5 79.5v-487q126 14 199 83.5z" />
    <glyph glyph-name="percent" unicode="%" horiz-adv-x="1616" 
d="M246 5q-7 5 -7 13t8 19l978 1325q12 18 37 18h89q12 0 19 -5t7 -13t-8 -19l-978 -1325q-12 -18 -37 -18h-89q-12 0 -19 5zM109.5 1232q44.5 77 123 119.5t176.5 42.5t176.5 -42.5t123 -119.5t44.5 -177q0 -101 -44.5 -178t-122.5 -119.5t-177 -42.5q-98 0 -176.5 42.5
t-123 119.5t-44.5 178q0 100 44.5 177zM268 890.5q55 -56.5 141 -56.5q55 0 99.5 24.5t70.5 74.5t26 122q0 108 -55 164t-141 56t-141 -56t-55 -164t55 -164.5zM906.5 501q44.5 77 123 119.5t176.5 42.5t176.5 -42.5t123 -119.5t44.5 -177q0 -101 -44.5 -178t-122.5 -119.5
t-177 -42.5q-98 0 -176.5 42.5t-123 119.5t-44.5 178q0 100 44.5 177zM1065 159.5q55 -56.5 141 -56.5q55 0 99.5 24.5t70.5 74.5t26 122q0 108 -55 164t-141 56t-141 -56t-55 -164t55 -164.5z" />
    <glyph glyph-name="ampersand" unicode="&#x26;" horiz-adv-x="1335" 
d="M273.5 25.5q-93.5 43.5 -143.5 125t-50 192.5q0 127 71.5 218.5t233.5 172.5q-75 89 -109 168t-34 162q0 101 46.5 176.5t132 117t199.5 41.5q109 0 191 -40t127 -113t45 -169q0 -79 -36 -143t-113.5 -120.5t-204.5 -111.5l280 -299l168 254q13 19 36 19h103q12 0 19 -5
t7 -14q0 -8 -6 -17l-229 -342l244 -261q10 -10 10 -20q0 -8 -7 -12.5t-19 -4.5h-143q-22 0 -37 16l-148 157q-87 -98 -187.5 -144.5t-225.5 -46.5q-127 0 -220.5 43.5zM319 185.5q67 -60.5 183 -60.5q85 0 163.5 37.5t146.5 112.5l-340 363q-117 -65 -168.5 -132.5
t-51.5 -154.5q0 -105 67 -165.5zM441 941.5q33 -67.5 101 -146.5q150 66 215 130.5t65 146.5q0 85 -55 135t-147 50q-96 0 -154 -50t-58 -135q0 -63 33 -130.5z" />
    <glyph glyph-name="quotesingle" unicode="'" horiz-adv-x="422" 
d="M242 859h-62q-29 0 -30 29l-22 501q-1 14 7.5 22.5t22.5 8.5h106q14 0 22.5 -8.5t7.5 -22.5l-22 -501q-1 -29 -30 -29z" />
    <glyph glyph-name="parenleft" unicode="(" horiz-adv-x="695" 
d="M193 1052q99 224 277 393q15 15 37 15h111q12 0 19 -4.5t7 -12.5q0 -9 -11 -20q-181 -184 -277.5 -394t-96.5 -429t96.5 -429t277.5 -394q11 -11 11 -20q0 -8 -7 -12.5t-19 -4.5h-111q-22 0 -38 16q-178 169 -276.5 392.5t-98.5 451.5t99 452z" />
    <glyph glyph-name="parenright" unicode=")" horiz-adv-x="695" 
d="M502 148q-99 -224 -277 -393q-15 -15 -37 -15h-111q-12 0 -19 4.5t-7 12.5q0 9 11 20q181 184 277.5 394t96.5 429t-96.5 429t-277.5 394q-11 11 -11 20q0 8 7 12.5t19 4.5h111q22 0 38 -16q178 -169 276.5 -392.5t98.5 -451.5t-99 -452z" />
    <glyph glyph-name="asterisk" unicode="*" horiz-adv-x="941" 
d="M91 1100l2 12l28 87q6 21 25 21q7 0 14 -3l254 -102l-19 274q-2 31 29 31h93q31 0 29 -31l-19 -274l255 102q8 3 14 3q18 0 24 -21l28 -87l2 -12q0 -20 -22 -26l-266 -66l176 -211q9 -10 9 -20q0 -11 -14 -22l-75 -54q-10 -7 -19 -7q-14 0 -23 15l-145 231l-146 -231
q-9 -15 -23 -15q-10 0 -18 7l-76 54q-14 11 -14 22q0 10 9 20l177 211l-267 66q-22 6 -22 26z" />
    <glyph glyph-name="plus" unicode="+" 
d="M543 1129q8 8 22 8h90q14 0 22 -8t8 -22v-365h359q14 0 22 -8t8 -22v-84q0 -14 -8 -22t-22 -8h-359v-365q0 -14 -8 -22t-22 -8h-90q-14 0 -22 8t-8 22v365h-359q-14 0 -22 8t-8 22v84q0 14 8 22t22 8h359v365q0 14 8 22z" />
    <glyph glyph-name="comma" unicode="," horiz-adv-x="459" 
d="M89 -317q-7 6 -7 16q0 5 3 13l109 288h-39q-14 0 -22 8t-8 22v147q0 14 8 22t22 8h159q14 0 22 -8t8 -22v-157q0 -18 -9 -38l-142 -283q-10 -22 -35 -22h-49q-13 0 -20 6z" />
    <glyph glyph-name="hyphen" unicode="-" horiz-adv-x="858" 
d="M112 650q8 8 22 8h590q14 0 22 -8t8 -22v-81q0 -14 -8 -22t-22 -8h-590q-14 0 -22 8t-8 22v81q0 14 8 22z" />
    <glyph glyph-name="period" unicode="." horiz-adv-x="488" 
d="M143 8q-8 8 -8 22v147q0 14 8 22t22 8h158q14 0 22 -8t8 -22v-147q0 -14 -8 -22t-22 -8h-158q-14 0 -22 8z" />
    <glyph glyph-name="slash" unicode="/" horiz-adv-x="798" 
d="M38 -194q0 8 2 12l548 1618q8 24 34 24h108q26 0 26 -22q0 -8 -2 -12l-548 -1618q-7 -24 -34 -24h-108q-26 0 -26 22z" />
    <glyph glyph-name="zero" unicode="0" 
d="M328.5 66.5q-119.5 85.5 -183 245t-63.5 378.5t63.5 378.5t183 245t281.5 85.5t281.5 -85.5t183 -245t63.5 -378.5t-63.5 -378.5t-183 -245t-281.5 -85.5t-281.5 85.5zM302.5 388q40.5 -124 118.5 -188.5t189 -64.5t189 64.5t118.5 188.5t40.5 302t-40.5 302
t-118.5 188.5t-189 64.5t-189 -64.5t-118.5 -188.5t-40.5 -302t40.5 -302zM517 597q-8 8 -8 22v142q0 14 8 22t22 8h142q14 0 22 -8t8 -22v-142q0 -14 -8 -22t-22 -8h-142q-14 0 -22 8z" />
    <glyph glyph-name="one" unicode="1" 
d="M576 1372q8 8 22 8h109q14 0 22 -8t8 -22v-1201h369q14 0 22 -8t8 -22v-89q0 -14 -8 -22t-22 -8h-927q-14 0 -22 8t-8 22v89q0 14 8 22t22 8h384v840h-356q-14 0 -22 8t-8 22v90q0 14 8 22t22 8h254q57 0 82 26.5t25 87.5v97q0 14 8 22z" />
    <glyph glyph-name="two" unicode="2" 
d="M153 8q-8 8 -8 22v76q0 22 15 37l499 491q117 114 167.5 202t50.5 177q0 109 -70 172t-189 63q-122 0 -198.5 -66t-99.5 -191q-4 -28 -32 -28h-116q-15 0 -22.5 8.5t-4.5 23.5q32 195 155 299.5t322 104.5q131 0 229.5 -47t152 -133.5t53.5 -201.5q0 -114 -63 -225.5
t-207 -252.5l-397 -387h658q14 0 22 -8t8 -22v-92q0 -14 -8 -22t-22 -8h-873q-14 0 -22 8z" />
    <glyph glyph-name="three" unicode="3" 
d="M364.5 30.5q-109.5 49.5 -176 142t-81.5 217.5q-2 15 5.5 23t22.5 8h114q26 0 31 -28q11 -80 55.5 -139.5t115.5 -92t161 -32.5q89 0 157.5 33.5t106 94.5t37.5 139q0 80 -39 141t-110.5 94.5t-167.5 33.5h-101q-14 0 -22 8t-8 22v74q0 20 14 37l378 425h-656
q-14 0 -22 8t-8 22v89q0 14 8 22t22 8h833q14 0 22 -8t8 -22v-84q0 -20 -14 -37l-380 -428q127 -11 222 -64t147 -141t52 -200q0 -122 -59.5 -216.5t-167.5 -146.5t-249 -52t-250.5 49.5z" />
    <glyph glyph-name="four" unicode="4" 
d="M778 8q-8 8 -8 22v305h-658q-14 0 -22 8t-8 22v91q0 22 12 38l651 868q14 18 37 18h131q14 0 22 -8t8 -22v-867h170q14 0 22 -8t8 -22v-88q0 -14 -8 -22t-22 -8h-170v-305q0 -14 -8 -22t-22 -8h-113q-14 0 -22 8zM770 483v681l-510 -681h510z" />
    <glyph glyph-name="five" unicode="5" 
d="M154 607h158q38 87 116 135.5t182 48.5q96 0 169 -41t113 -115.5t40 -173.5t-40 -174t-113 -116.5t-169 -41.5q-93 0 -163.5 36t-111.5 102t-47 154h-174q8 -133 71.5 -232.5t173.5 -153.5t254 -54q148 0 260 60t174 170t62 254q0 138 -58.5 243.5t-164 163t-244.5 57.5
q-177 0 -285 -96q-13 -11 -21 -11q-15 0 -13 26l23 354q2 29 31 29h651v149h-824z" />
    <glyph glyph-name="six" unicode="6" 
d="M343.5 60.5q-118.5 79.5 -179.5 232.5t-61 371q0 229 64.5 394.5t186.5 253t291 87.5q115 0 208.5 -41t156 -118.5t88.5 -183.5q1 -3 1 -9q0 -24 -28 -24h-111q-26 0 -34 26q-29 96 -102.5 149t-178.5 53q-117 0 -200.5 -66.5t-127 -193.5t-43.5 -304q53 105 152 160.5
t235 55.5t241 -56.5t163 -159t58 -236.5q0 -139 -61.5 -245.5t-173.5 -165.5t-257 -59q-169 0 -287.5 79.5zM352.5 280.5q39.5 -72.5 111 -112t165.5 -39.5t166 39.5t111.5 112t39.5 167.5q0 94 -39.5 165.5t-111.5 111t-166 39.5t-165.5 -39.5t-111 -111t-39.5 -165.5
q0 -95 39.5 -167.5z" />
    <glyph glyph-name="seven" unicode="7" 
d="M328 20q0 7 4 15l567 1192h-599v-208q0 -14 -8 -22t-22 -8h-92q-14 0 -22 8t-8 22v331q0 14 8 22t22 8h888q14 0 22 -8t8 -22v-88q0 -21 -8 -37l-570 -1203q-10 -22 -36 -22h-128q-26 0 -26 20z" />
    <glyph glyph-name="eight" unicode="8" 
d="M345 30q-115 49 -178.5 138.5t-63.5 206.5q0 131 79 220.5t221 121.5q-123 33 -191.5 115t-68.5 201q0 109 58.5 192t164.5 128.5t244 45.5t244 -45.5t164.5 -128.5t58.5 -192q0 -119 -68 -201t-190 -115q140 -32 219 -121.5t79 -220.5q0 -117 -63.5 -206.5
t-178.5 -138.5t-265 -49t-265 49zM318.5 248.5q41.5 -57.5 117 -89t174.5 -31.5t174.5 31.5t117 89t41.5 134.5q0 76 -41.5 134.5t-117 90.5t-174.5 32t-174.5 -32t-117 -90.5t-41.5 -134.5q0 -77 41.5 -134.5zM353.5 890q36.5 -53 103 -82t153.5 -29t153.5 29t103 82
t36.5 124t-36.5 125t-103 83.5t-153.5 29.5t-153.5 -29.5t-103 -83.5t-36.5 -125t36.5 -124z" />
    <glyph glyph-name="nine" unicode="9" 
d="M876.5 1319.5q118.5 -79.5 179.5 -232.5t61 -371q0 -229 -64.5 -394.5t-186.5 -253t-291 -87.5q-115 0 -208.5 41t-156 118.5t-88.5 183.5q-1 3 -1 9q0 24 28 24h111q26 0 34 -26q29 -96 102.5 -149t178.5 -53q117 0 200.5 66.5t127 193.5t43.5 304q-53 -105 -152 -160.5
t-235 -55.5t-241 56.5t-163 159t-58 236.5q0 139 61.5 245.5t173.5 165.5t257 59q169 0 287.5 -79.5zM313.5 766.5q39.5 -71.5 111.5 -111t166 -39.5t165.5 39.5t111 111t39.5 165.5q0 95 -39.5 167.5t-111 112t-165.5 39.5t-166 -39.5t-111.5 -112t-39.5 -167.5
q0 -94 39.5 -165.5z" />
    <glyph glyph-name="colon" unicode=":" horiz-adv-x="490" 
d="M144 776q-8 8 -8 22v147q0 14 8 22t22 8h158q14 0 22 -8t8 -22v-147q0 -14 -8 -22t-22 -8h-158q-14 0 -22 8zM144 8q-8 8 -8 22v147q0 14 8 22t22 8h158q14 0 22 -8t8 -22v-147q0 -14 -8 -22t-22 -8h-158q-14 0 -22 8z" />
    <glyph glyph-name="semicolon" unicode=";" horiz-adv-x="556" 
d="M144 -317q-7 6 -7 16q0 5 3 13l109 288h-39q-14 0 -22 8t-8 22v147q0 14 8 22t22 8h159q14 0 22 -8t8 -22v-157q0 -18 -9 -38l-142 -283q-10 -22 -35 -22h-49q-13 0 -20 6zM188 776q-8 8 -8 22v147q0 14 8 22t22 8h158q14 0 22 -8t8 -22v-147q0 -14 -8 -22t-22 -8h-158
q-14 0 -22 8z" />
    <glyph glyph-name="less" unicode="&#x3c;" 
d="M1019.5 222q-5.5 -7 -14.5 -7q-7 0 -15 4l-806 364q-23 11 -23 35v104q0 24 23 35l806 364q8 4 15 4q9 0 14.5 -7t5.5 -20v-92q0 -24 -23 -35l-669 -301l669 -301q23 -11 23 -35v-92q0 -13 -5.5 -20z" />
    <glyph glyph-name="equal" unicode="=" 
d="M154 815q-8 8 -8 22v84q0 14 8 22t22 8h868q14 0 22 -8t8 -22v-84q0 -14 -8 -22t-22 -8h-868q-14 0 -22 8zM154 397q-8 8 -8 22v84q0 14 8 22t22 8h868q14 0 22 -8t8 -22v-84q0 -14 -8 -22t-22 -8h-868q-14 0 -22 8z" />
    <glyph glyph-name="greater" unicode="&#x3e;" 
d="M200.5 1118q5.5 7 14.5 7q7 0 15 -4l806 -364q23 -11 23 -35v-104q0 -24 -23 -35l-806 -364q-8 -4 -15 -4q-9 0 -14.5 7t-5.5 20v92q0 24 23 35l669 301l-669 301q-23 11 -23 35v92q0 13 5.5 20z" />
    <glyph glyph-name="question" unicode="?" horiz-adv-x="1034" 
d="M443 552q15 54 51.5 99t107.5 101l35 27q80 62 117 119.5t37 122.5q0 66 -32 118t-91 81t-137 29q-122 0 -199 -66.5t-101 -191.5q-4 -28 -32 -28h-113q-15 0 -22.5 8.5t-4.5 23.5q31 195 154.5 299.5t321.5 104.5q130 0 228 -47t151.5 -131t53.5 -191q0 -93 -50 -174.5
t-160 -170.5l-36 -28q-57 -45 -87.5 -81.5t-43.5 -76.5t-13 -94q0 -11 -8 -17.5t-22 -6.5h-90q-14 0 -22 8t-8 22v5q0 82 15 136zM402 8q-8 8 -8 22v147q0 14 8 22t22 8h158q14 0 22 -8t8 -22v-147q0 -14 -8 -22t-22 -8h-158q-14 0 -22 8z" />
    <glyph glyph-name="at" unicode="@" horiz-adv-x="1761" 
d="M468.5 -83.5q-177.5 99.5 -275.5 279t-98 413.5q0 240 101.5 427t283 291t414.5 104q223 0 397 -94.5t270.5 -264.5t96.5 -389q0 -142 -42 -252t-118 -171t-175 -61q-84 0 -140 39.5t-72 107.5q-41 -76 -109.5 -115.5t-157.5 -39.5q-107 0 -194 52.5t-137 147.5t-50 218
q0 124 50 219.5t137 148t194 52.5q89 0 157.5 -38.5t110.5 -111.5l8 104q2 29 31 29h77q14 0 22 -8t8 -22v-575q0 -37 23.5 -60.5t60.5 -23.5q51 0 93.5 47t66.5 129.5t24 183.5q0 185 -80 328t-223.5 222.5t-328.5 79.5q-195 0 -346.5 -89t-236 -249t-84.5 -366
q0 -198 82 -351t231.5 -237t343.5 -84h452q14 0 22 -8t8 -22v-60q0 -14 -8 -22t-22 -8h-460q-230 0 -407.5 99.5zM652 458q30 -65 85.5 -100t128.5 -35t127.5 35t84.5 100t30 151t-30 151.5t-84.5 101.5t-127.5 36t-128.5 -36t-85.5 -101.5t-30 -151.5t30 -151z" />
    <glyph glyph-name="A" unicode="A" horiz-adv-x="1279" 
d="M44 21q0 8 2 13l469 1322q8 24 35 24h179q27 0 35 -24l470 -1322l2 -12q0 -10 -7 -16t-20 -6h-121q-25 0 -34 24l-121 350h-593l-121 -350q-9 -24 -34 -24h-115q-26 0 -26 21zM881 523l-244 707l-245 -707h489z" />
    <glyph glyph-name="B" unicode="B" horiz-adv-x="1269" 
d="M180 8q-8 8 -8 22v1320q0 14 8 22t22 8h507q129 0 224 -42.5t146.5 -122t51.5 -186.5q0 -119 -61.5 -200t-173.5 -112q127 -26 196.5 -113t69.5 -222q0 -116 -53.5 -202.5t-153 -133t-232.5 -46.5h-521q-14 0 -22 8zM707 151q133 0 204 61.5t71 177.5t-71 177.5
t-204 61.5h-360v-478h360zM693 776q126 0 193 58.5t67 168.5t-67 168t-193 58h-346v-453h346z" />
    <glyph glyph-name="C" unicode="C" horiz-adv-x="1271" 
d="M1169.5 449.5q7.5 -8.5 4.5 -24.5q-26 -140 -94.5 -239.5t-172.5 -152t-236 -52.5q-172 0 -299.5 86.5t-196.5 247t-69 375.5t69 375.5t196.5 247t299.5 86.5q133 0 237 -52t172.5 -151t94.5 -238q2 -16 -5.5 -24.5t-22.5 -8.5h-118q-27 0 -33 28q-28 143 -111.5 217
t-213.5 74q-120 0 -206.5 -65.5t-132 -190t-45.5 -298.5t45.5 -298.5t132 -190t206.5 -65.5q130 0 214 75t111 219q6 28 33 28h118q15 0 22.5 -8.5z" />
    <glyph glyph-name="D" unicode="D" horiz-adv-x="1314" 
d="M180 8q-8 8 -8 22v1320q0 14 8 22t22 8h351q202 0 350.5 -84t228.5 -240t80 -366t-80 -366t-228.5 -240t-350.5 -84h-351q-14 0 -22 8zM537 151q156 0 267 64t169 185t58 290t-58 290t-169 185t-267 64h-190v-1078h190z" />
    <glyph glyph-name="E" unicode="E" horiz-adv-x="1184" 
d="M180 1372q8 8 22 8h836q14 0 22 -8t8 -22v-91q0 -14 -8 -22t-22 -8h-691v-454h622q14 0 22 -8t8 -22v-90q0 -14 -8 -22t-22 -8h-622v-474h708q14 0 22 -8t8 -22v-91q0 -14 -8 -22t-22 -8h-853q-14 0 -22 8t-8 22v1320q0 14 8 22z" />
    <glyph glyph-name="F" unicode="F" horiz-adv-x="1134" 
d="M180 8q-8 8 -8 22v1320q0 14 8 22t22 8h836q14 0 22 -8t8 -22v-93q0 -14 -8 -22t-22 -8h-691v-463h622q14 0 22 -8t8 -22v-93q0 -14 -8 -22t-22 -8h-622v-581q0 -14 -8 -22t-22 -8h-115q-14 0 -22 8z" />
    <glyph glyph-name="G" unicode="G" horiz-adv-x="1354" 
d="M368 67.5q-125 86.5 -193 246t-68 373.5q0 217 70 377.5t200 247.5t304 87q135 0 241.5 -52t176 -151t95.5 -238q2 -16 -5.5 -24.5t-22.5 -8.5h-117q-27 0 -33 28q-28 143 -114.5 217t-220.5 74q-123 0 -211.5 -65.5t-135 -190t-46.5 -298.5q0 -175 46.5 -299t136.5 -189
t218 -65q108 0 191 45.5t130 135.5t47 219v14h-300q-14 0 -22 8t-8 22v79q0 14 8 22t22 8h430q14 0 22 -8t8 -22v-630q0 -14 -8 -22t-22 -8h-89q-29 0 -30 29l-9 191q-54 -118 -156 -178.5t-242 -60.5q-168 0 -293 86.5z" />
    <glyph glyph-name="H" unicode="H" horiz-adv-x="1379" 
d="M180 1372q8 8 22 8h116q14 0 22 -8t8 -22v-565h683v565q0 14 8 22t22 8h116q14 0 22 -8t8 -22v-1320q0 -14 -8 -22t-22 -8h-116q-14 0 -22 8t-8 22v602h-683v-602q0 -14 -8 -22t-22 -8h-116q-14 0 -22 8t-8 22v1320q0 14 8 22z" />
    <glyph glyph-name="I" unicode="I" horiz-adv-x="1007" 
d="M913 1372q8 -8 8 -22v-91q0 -14 -8 -22t-22 -8h-300v-1078h300q14 0 22 -8t8 -22v-91q0 -14 -8 -22t-22 -8h-775q-14 0 -22 8t-8 22v91q0 14 8 22t22 8h299v1078h-299q-14 0 -22 8t-8 22v91q0 14 8 22t22 8h775q14 0 22 -8z" />
    <glyph glyph-name="J" unicode="J" horiz-adv-x="1043" 
d="M67 8q-8 8 -8 22v93q0 14 8 22t22 8h426q100 0 143.5 45.5t43.5 149.5v881h-455q-14 0 -22 8t-8 22v91q0 14 8 22t22 8h601q14 0 22 -8t8 -22v-1026q0 -163 -78 -243.5t-236 -80.5h-475q-14 0 -22 8z" />
    <glyph glyph-name="K" unicode="K" horiz-adv-x="1243" 
d="M999 19l-428 613h-223v-602q0 -14 -8 -22t-22 -8h-116q-14 0 -22 8t-8 22v1320q0 14 8 22t22 8h116q14 0 22 -8t8 -22v-565h217l419 576q13 19 36 19h136q12 0 19 -5t7 -13t-8 -19l-458 -625l477 -682q7 -10 7 -19q0 -8 -6.5 -12.5t-18.5 -4.5h-140q-24 0 -36 19z" />
    <glyph glyph-name="L" unicode="L" horiz-adv-x="1121" 
d="M180 1372q8 8 22 8h116q14 0 22 -8t8 -22v-1197h701q14 0 22 -8t8 -22v-93q0 -14 -8 -22t-22 -8h-847q-14 0 -22 8t-8 22v1320q0 14 8 22z" />
    <glyph glyph-name="M" unicode="M" horiz-adv-x="1549" 
d="M724 374l-381 730v-1074q0 -14 -8 -22t-22 -8h-111q-14 0 -22 8t-8 22v1320q0 14 8 22t22 8h141q23 0 35 -21l398 -762l397 762q11 21 35 21h139q14 0 22 -8t8 -22v-1320q0 -14 -8 -22t-22 -8h-114q-14 0 -22 8t-8 22v1075l-381 -731q-12 -21 -35 -21h-28q-23 0 -35 21z
" />
    <glyph glyph-name="N" unicode="N" horiz-adv-x="1396" 
d="M180 8q-8 8 -8 22v1320q0 14 8 22t22 8h131q25 0 36 -20l683 -1094v1084q0 14 8 22t22 8h112q14 0 22 -8t8 -22v-1320q0 -14 -8 -22t-22 -8h-131q-25 0 -36 20l-683 1095v-1085q0 -14 -8 -22t-22 -8h-112q-14 0 -22 8z" />
    <glyph glyph-name="O" unicode="O" horiz-adv-x="1344" 
d="M372.5 67.5q-127.5 86.5 -196.5 247t-69 375.5t69 375.5t196.5 247t299.5 86.5t299.5 -86.5t196.5 -247t69 -375.5t-69 -375.5t-196.5 -247t-299.5 -86.5t-299.5 86.5zM333.5 391.5q45.5 -124.5 131.5 -190t207 -65.5t207 65.5t131.5 190t45.5 298.5t-45.5 298.5
t-131.5 190t-207 65.5t-207 -65.5t-131.5 -190t-45.5 -298.5t45.5 -298.5z" />
    <glyph glyph-name="P" unicode="P" horiz-adv-x="1205" 
d="M883.5 774q74.5 67 74.5 193q0 125 -75 192.5t-214 67.5h-321v-520h321q140 0 214.5 67zM180 8q-8 8 -8 22v1320q0 14 8 22t22 8h483q138 0 240.5 -50.5t158 -144t55.5 -218.5t-55.5 -219t-158 -144.5t-240.5 -50.5h-337v-523q0 -14 -8 -22t-22 -8h-116q-14 0 -22 8z" />
    <glyph glyph-name="Q" unicode="Q" horiz-adv-x="1344" 
d="M587 -158v145q-148 21 -256 112.5t-166 242.5t-58 348q0 215 69 375.5t196.5 247t299.5 86.5t299.5 -86.5t196.5 -247t69 -375.5q0 -197 -58 -348t-166 -242.5t-256 -112.5v-102q0 -30 12 -41t40 -11h233q14 0 22 -8t8 -22v-75q0 -14 -8 -22t-22 -8h-303q-152 0 -152 144
zM333.5 391.5q45.5 -124.5 131.5 -190t207 -65.5t207 65.5t131.5 190t45.5 298.5t-45.5 298.5t-131.5 190t-207 65.5t-207 -65.5t-131.5 -190t-45.5 -298.5t45.5 -298.5z" />
    <glyph glyph-name="R" unicode="R" horiz-adv-x="1249" 
d="M888 787q73 66 73 188t-73 187.5t-210 65.5h-330v-507h330q137 0 210 66zM180 8q-8 8 -8 22v1320q0 14 8 22t22 8h492q136 0 237 -49.5t156 -141.5t55 -214q0 -151 -84 -252t-232 -133l319 -554q6 -9 6 -17q0 -9 -7 -14t-19 -5h-136q-25 0 -36 21l-310 551h-295v-542
q0 -14 -8 -22t-22 -8h-116q-14 0 -22 8z" />
    <glyph glyph-name="S" unicode="S" horiz-adv-x="1233" 
d="M368.5 31q-113.5 50 -183 143.5t-85.5 219.5q-1 16 6.5 24t22.5 8h112q27 0 32 -28q13 -83 60.5 -143.5t123 -93t170.5 -32.5q101 0 177 32.5t118 91.5t42 137q0 94 -69 148.5t-218 77.5l-169 26q-200 31 -296 117.5t-96 235.5q0 122 60 213.5t171 141t260 49.5
q141 0 249 -48t173 -138t80 -213q2 -15 -5.5 -23t-22.5 -8h-111q-28 0 -32 28q-21 120 -109 187t-226 67q-95 0 -166.5 -29.5t-111 -83t-39.5 -125.5q0 -85 62 -135t195 -71l173 -28q215 -33 317.5 -125t102.5 -249q0 -128 -62.5 -224t-177.5 -148t-269 -52
q-145 0 -258.5 50z" />
    <glyph glyph-name="T" unicode="T" horiz-adv-x="1137" 
d="M1086 1372q8 -8 8 -22v-93q0 -14 -8 -22t-22 -8h-408v-1197q0 -14 -8 -22t-22 -8h-116q-14 0 -22 8t-8 22v1197h-407q-14 0 -22 8t-8 22v93q0 14 8 22t22 8h991q14 0 22 -8z" />
    <glyph glyph-name="U" unicode="U" horiz-adv-x="1362" 
d="M167 1372q8 8 22 8h116q14 0 22 -8t8 -22v-811q0 -191 91 -296.5t257 -105.5t257 105.5t91 296.5v811q0 14 8 22t22 8h112q14 0 22 -8t8 -22v-817q0 -169 -63.5 -293.5t-181.5 -191.5t-278 -67t-277.5 67t-180.5 191.5t-63 293.5v817q0 14 8 22z" />
    <glyph glyph-name="V" unicode="V" horiz-adv-x="1252" 
d="M713 0h-174q-25 0 -34 24l-457 1322q-2 4 -2 12q0 22 26 22h123q27 0 34 -24l400 -1188l400 1188q8 24 34 24h117q26 0 26 -22q0 -8 -2 -12l-457 -1322q-9 -24 -34 -24z" />
    <glyph glyph-name="W" unicode="W" horiz-adv-x="1577" 
d="M87 1355q0 12 7.5 18.5t20.5 6.5h113q29 0 33 -27l202 -1156l250 980q6 26 34 26h90q28 0 34 -26l249 -976l203 1152q4 27 33 27h105q15 0 22.5 -8.5t4.5 -24.5l-245 -1320q-4 -27 -32 -27h-160q-28 0 -34 26l-229 894l-229 -894q-6 -26 -34 -26h-160q-27 0 -32 27
l-245 1320q-1 3 -1 8z" />
    <glyph glyph-name="X" unicode="X" horiz-adv-x="1209" 
d="M64 21q0 7 4 15l367 678l-352 630q-5 10 -5 16q0 9 7 14.5t19 5.5h127q24 0 36 -21l319 -574h37l320 574q12 21 36 21h126q12 0 19 -5.5t7 -14.5q0 -6 -5 -16l-351 -631l367 -677q4 -8 4 -15q0 -21 -26 -21h-130q-23 0 -35 21l-329 611h-42l-330 -611q-12 -21 -35 -21
h-129q-26 0 -26 21z" />
    <glyph glyph-name="Y" unicode="Y" horiz-adv-x="1203" 
d="M43 1361q0 9 7 14t19 5h118q25 0 36 -20l381 -648l381 648q11 20 36 20h111q12 0 19 -5t7 -14t-5 -17l-464 -786v-528q0 -14 -8 -22t-22 -8h-116q-14 0 -22 8t-8 22v529l-465 785q-5 8 -5 17z" />
    <glyph glyph-name="Z" unicode="Z" horiz-adv-x="1164" 
d="M88 8q-8 8 -8 22v96q0 20 12 38l766 1064h-731q-14 0 -22 8t-8 22v92q0 14 8 22t22 8h909q14 0 22 -8t8 -22v-96q0 -20 -12 -38l-766 -1064h767q14 0 22 -8t8 -22v-92q0 -14 -8 -22t-22 -8h-945q-14 0 -22 8z" />
    <glyph glyph-name="bracketleft" unicode="[" horiz-adv-x="796" 
d="M170 -260h561v137h-371q-14 0 -22 8t-8 22v1386q0 14 8 22t22 8h371v137h-561v-1720z" />
    <glyph glyph-name="backslash" unicode="\" horiz-adv-x="798" 
d="M759 -194q0 -22 -26 -22h-107q-26 0 -34 24l-548 1618q-2 4 -2 12q0 22 26 22h107q27 0 34 -24l548 -1618q2 -4 2 -12z" />
    <glyph glyph-name="bracketright" unicode="]" horiz-adv-x="796" 
d="M626 1460h-561v-137h371q14 0 22 -8t8 -22v-1386q0 -14 -8 -22t-22 -8h-371v-137h561v1720z" />
    <glyph glyph-name="asciicircum" unicode="^" 
d="M160.5 718q-6.5 5 -6.5 13t6 18l367 611q11 20 36 20h94q25 0 36 -20l367 -611q6 -10 6 -18t-6.5 -13t-19.5 -5h-102q-25 0 -36 20l-292 488l-292 -488q-11 -20 -36 -20h-102q-13 0 -19.5 5z" />
    <glyph glyph-name="underscore" unicode="_" horiz-adv-x="1107" 
d="M122 -197q-8 8 -8 22v78q0 14 8 22t22 8h819q14 0 22 -8t8 -22v-78q0 -14 -8 -22t-22 -8h-819q-14 0 -22 8z" />
    <glyph glyph-name="grave" unicode="`" 
d="M688 1150q0 -9 -6.5 -14.5t-19.5 -5.5h-76q-22 0 -37 18l-183 235q-8 11 -8 19t6.5 13t18.5 5h138q24 0 36 -21l127 -233q4 -8 4 -16z" />
    <glyph glyph-name="a" unicode="a" horiz-adv-x="1139" 
d="M963.5 153.5q15.5 -17.5 52.5 -17.5h66q14 0 22 -8t8 -22v-76q0 -14 -8 -22t-22 -8h-114q-88 0 -132 44t-46 134q-61 -98 -156.5 -147.5t-213.5 -49.5q-102 0 -179 37t-119 103.5t-42 152.5q0 124 86 197t256 92l360 41v78q0 63 -30 110.5t-85 73t-130 25.5
q-97 0 -164 -44.5t-84 -119.5q-6 -27 -32 -27h-103q-15 0 -23 8.5t-5 23.5q14 88 69.5 156t145 105.5t201.5 37.5q122 0 214 -42t142 -119t50 -177v-481q0 -41 15.5 -58.5zM303 156q57 -45 152 -45q83 0 158.5 37t122.5 109.5t47 173.5v53l-321 -37q-112 -12 -164 -52
t-52 -114q0 -80 57 -125z" />
    <glyph glyph-name="b" unicode="b" horiz-adv-x="1243" 
d="M282 0h-97q-14 0 -22 8t-8 22v1360q0 14 8 22t22 8h108q14 0 22 -8t8 -22v-544q57 89 148.5 137t204.5 48q136 0 244.5 -68t170 -187.5t61.5 -269.5t-61.5 -269.5t-170 -187.5t-244.5 -68q-118 0 -209.5 52t-145.5 147l-8 -151q-1 -29 -31 -29zM361 306.5
q41 -86.5 115.5 -134t171.5 -47.5q98 0 172.5 47.5t115.5 134t41 199.5t-41 199.5t-115.5 134t-172.5 47.5q-97 0 -171.5 -47.5t-115.5 -134t-41 -199.5t41 -199.5z" />
    <glyph glyph-name="c" unicode="c" horiz-adv-x="1138" 
d="M1045.5 350.5q7.5 -6.5 7.5 -16.5q0 -2 -2 -10q-27 -104 -93.5 -181.5t-161.5 -119.5t-206 -42q-143 0 -256.5 68t-178 187.5t-64.5 269.5t64.5 269.5t178 187.5t256.5 68q110 0 204.5 -41.5t160.5 -118t94 -178.5q2 -8 2 -10q0 -10 -7.5 -16.5t-20.5 -6.5h-110
q-25 0 -34 25q-34 97 -111 148t-178 51q-95 0 -168.5 -45.5t-114.5 -131t-41 -201.5t41 -201.5t114.5 -131t168.5 -45.5q103 0 180 52t111 152q7 25 33 25h111q13 0 20.5 -6.5z" />
    <glyph glyph-name="d" unicode="d" horiz-adv-x="1243" 
d="M930 29l-8 151q-54 -95 -145.5 -147t-209.5 -52q-136 0 -244.5 68t-170 187.5t-61.5 269.5t61.5 269.5t170 187.5t244.5 68q113 0 204.5 -48t148.5 -137v544q0 14 8 22t22 8h108q14 0 22 -8t8 -22v-1360q0 -14 -8 -22t-22 -8h-97q-30 0 -31 29zM307 306.5
q41 -86.5 115.5 -134t172.5 -47.5q97 0 171.5 47.5t115.5 134t41 199.5t-41 199.5t-115.5 134t-171.5 47.5q-98 0 -172.5 -47.5t-115.5 -134t-41 -199.5t41 -199.5z" />
    <glyph glyph-name="e" unicode="e" horiz-adv-x="1167" 
d="M1054.5 330.5q7.5 -6.5 7.5 -17.5q0 -6 -1 -9q-25 -94 -92.5 -167.5t-164.5 -114.5t-207 -41q-145 0 -260 68t-180.5 187.5t-65.5 269.5t64.5 269.5t179 187.5t257.5 68q137 0 246.5 -63t171.5 -177t62 -260v-28q0 -14 -8 -22t-22 -8h-778q6 -107 48.5 -186t115.5 -121.5
t169 -42.5q109 0 189.5 51.5t108.5 136.5q9 26 34 26h105q13 0 20.5 -6.5zM899 593q-7 88 -47.5 155.5t-107.5 104.5t-152 37q-129 0 -215 -79.5t-108 -217.5h630z" />
    <glyph glyph-name="f" unicode="f" horiz-adv-x="798" 
d="M446 1420h288q14 0 22 -8t8 -22v-81q0 -14 -8 -22t-22 -8h-239q-36 0 -51.5 -17.5t-15.5 -57.5v-192h317q14 0 22 -8t8 -22v-81q0 -14 -8 -22t-22 -8h-317v-841q0 -14 -8 -22t-22 -8h-108q-14 0 -22 8t-8 22v841h-194q-14 0 -22 8t-8 22v81q0 14 8 22t22 8h194v216
q0 192 186 192z" />
    <glyph glyph-name="g" unicode="g" horiz-adv-x="1244" 
d="M370.5 -348q-104.5 41 -170 115t-80.5 171q-2 15 6 23t23 8h109q26 0 32 -27q15 -57 58.5 -99.5t109 -66t144.5 -23.5q153 0 236.5 89t83.5 252v118q-54 -93 -145.5 -142.5t-208.5 -49.5q-137 0 -245.5 65t-169.5 180t-61 258t61.5 259t170.5 182.5t245 66.5
q113 0 205 -48.5t150 -138.5l8 139q2 29 31 29h97q14 0 22 -8t8 -22v-885q0 -152 -58 -261.5t-167.5 -167t-262.5 -57.5q-127 0 -231.5 41zM307.5 335.5q41.5 -82.5 116.5 -129t173 -46.5q97 0 172 46.5t116 129t41 187.5q0 106 -41 188.5t-116 129t-172 46.5
q-98 0 -173 -46.5t-116.5 -129t-41.5 -188.5q0 -105 41.5 -187.5z" />
    <glyph glyph-name="h" unicode="h" horiz-adv-x="1184" 
d="M163 8q-8 8 -8 22v1360q0 14 8 22t22 8h108q14 0 22 -8t8 -22v-550q55 96 144 143.5t202 47.5q115 0 198.5 -47.5t128.5 -141.5t45 -228v-584q0 -14 -8 -22t-22 -8h-108q-14 0 -22 8t-8 22v555q0 146 -67 222t-188 76q-88 0 -154.5 -39.5t-103.5 -115.5t-37 -183v-515
q0 -14 -8 -22t-22 -8h-108q-14 0 -22 8z" />
    <glyph glyph-name="i" unicode="i" horiz-adv-x="628" 
d="M313 8q-8 8 -8 22v841h-255q-14 0 -22 8t-8 22v81q0 14 8 22t22 8h393q14 0 22 -8t8 -22v-952q0 -14 -8 -22t-22 -8h-108q-14 0 -22 8zM296 1197q-8 8 -8 22v141q0 14 8 22t22 8h142q14 0 22 -8t8 -22v-141q0 -14 -8 -22t-22 -8h-142q-14 0 -22 8z" />
    <glyph glyph-name="j" unicode="j" horiz-adv-x="628" 
d="M-10 -362q-8 8 -8 22v81q0 14 8 22t22 8h226q36 0 51.5 17.5t15.5 57.5v1025h-255q-14 0 -22 8t-8 22v81q0 14 8 22t22 8h393q14 0 22 -8t8 -22v-1160q0 -192 -186 -192h-275q-14 0 -22 8zM296 1197q-8 8 -8 22v141q0 14 8 22t22 8h142q14 0 22 -8t8 -22v-141
q0 -14 -8 -22t-22 -8h-142q-14 0 -22 8z" />
    <glyph glyph-name="k" unicode="k" horiz-adv-x="1054" 
d="M163 8q-8 8 -8 22v1360q0 14 8 22t22 8h108q14 0 22 -8t8 -22v-793h166l317 397q14 18 37 18h124q12 0 19 -5t7 -13t-8 -19l-350 -435l369 -503q8 -11 8 -19t-7 -13t-19 -5h-129q-25 0 -37 18l-319 438h-178v-426q0 -14 -8 -22t-22 -8h-108q-14 0 -22 8z" />
    <glyph glyph-name="l" unicode="l" horiz-adv-x="820" 
d="M486 1412q8 -8 8 -22v-1249h267q14 0 22 -8t8 -22v-81q0 -14 -8 -22t-22 -8h-702q-14 0 -22 8t-8 22v81q0 14 8 22t22 8h267v1138h-255q-14 0 -22 8t-8 22v81q0 14 8 22t22 8h393q14 0 22 -8z" />
    <glyph glyph-name="m" unicode="m" horiz-adv-x="1812" 
d="M163 8q-8 8 -8 22v952q0 14 8 22t22 8h97q29 0 31 -29l8 -142q52 95 135.5 142.5t189.5 47.5q120 0 204 -58t120 -170q50 114 140 171t209 57q107 0 185.5 -46.5t121 -138.5t42.5 -223v-593q0 -14 -8 -22t-22 -8h-108q-14 0 -22 8t-8 22v565q0 141 -61 214.5t-171 73.5
q-82 0 -143 -38t-95 -112t-34 -179v-524q0 -14 -8 -22t-22 -8h-108q-14 0 -22 8t-8 22v565q0 141 -61 214.5t-172 73.5q-82 0 -143 -38t-95 -112t-34 -179v-524q0 -14 -8 -22t-22 -8h-108q-14 0 -22 8z" />
    <glyph glyph-name="n" unicode="n" horiz-adv-x="1184" 
d="M163 1004q8 8 22 8h97q29 0 31 -29l8 -146q55 97 144.5 145.5t203.5 48.5q115 0 198.5 -47.5t128.5 -141.5t45 -228v-584q0 -14 -8 -22t-22 -8h-108q-14 0 -22 8t-8 22v555q0 146 -67 222t-188 76q-88 0 -154.5 -39.5t-103.5 -115.5t-37 -183v-515q0 -14 -8 -22t-22 -8
h-108q-14 0 -22 8t-8 22v952q0 14 8 22z" />
    <glyph glyph-name="o" unicode="o" horiz-adv-x="1192" 
d="M337 49q-115 68 -180.5 188t-65.5 269t65.5 269t180.5 188t259 68t259 -68t180.5 -188t65.5 -269t-65.5 -269t-180.5 -188t-259 -68t-259 68zM306.5 307.5q41.5 -85.5 116.5 -132.5t173 -47t173 47t116.5 132.5t41.5 198.5t-41.5 198.5t-116.5 132.5t-173 47t-173 -47
t-116.5 -132.5t-41.5 -198.5t41.5 -198.5z" />
    <glyph glyph-name="p" unicode="p" horiz-adv-x="1243" 
d="M163 -362q-8 8 -8 22v1322q0 14 8 22t22 8h97q29 0 31 -29l8 -141q57 91 149 140t206 49q136 0 244.5 -68t170 -187.5t61.5 -269.5t-61.5 -269.5t-170 -187.5t-244.5 -68q-117 0 -208 51t-145 145v-517q0 -14 -8 -22t-22 -8h-108q-14 0 -22 8zM361 306.5
q41 -86.5 115.5 -134t171.5 -47.5q98 0 172.5 47.5t115.5 134t41 199.5t-41 199.5t-115.5 134t-172.5 47.5q-97 0 -171.5 -47.5t-115.5 -134t-41 -199.5t41 -199.5z" />
    <glyph glyph-name="q" unicode="q" horiz-adv-x="1243" 
d="M1080 -362q-8 -8 -22 -8h-108q-14 0 -22 8t-8 22v517q-54 -94 -145 -145t-208 -51q-136 0 -244.5 68t-170 187.5t-61.5 269.5t61.5 269.5t170 187.5t244.5 68q114 0 206 -49t149 -140l8 141q2 29 31 29h97q14 0 22 -8t8 -22v-1322q0 -14 -8 -22zM307 306.5
q41 -86.5 115.5 -134t172.5 -47.5q97 0 171.5 47.5t115.5 134t41 199.5t-41 199.5t-115.5 134t-171.5 47.5q-98 0 -172.5 -47.5t-115.5 -134t-41 -199.5t41 -199.5z" />
    <glyph glyph-name="r" unicode="r" horiz-adv-x="1001" 
d="M612 781.5q-91 -83.5 -91 -250.5v-390h265q14 0 22 -8t8 -22v-81q0 -14 -8 -22t-22 -8h-675q-14 0 -22 8t-8 22v81q0 14 8 22t22 8h242v730h-230q-14 0 -22 8t-8 22v81q0 14 8 22t22 8h357q29 0 31 -29l10 -175q52 114 143.5 168.5t210.5 54.5q32 0 56 -4q27 -4 27 -32
v-106q0 -15 -8.5 -22.5t-24.5 -5.5q-32 4 -69 4q-153 0 -244 -83.5z" />
    <glyph glyph-name="s" unicode="s" horiz-adv-x="1044" 
d="M767 745q-20 73 -89 113.5t-171 40.5q-111 0 -178 -42t-67 -112q0 -64 48 -96t158 -45l137 -16q182 -22 266.5 -89.5t84.5 -193.5q0 -96 -53 -169.5t-149.5 -114t-222.5 -40.5q-119 0 -212.5 36.5t-153 105t-76.5 160.5q-2 15 5.5 23.5t22.5 8.5h100q27 0 33 -27
q20 -83 94 -129t187 -46q80 0 139.5 21.5t92.5 61.5t33 94q0 68 -51 103.5t-176 48.5l-134 15q-170 17 -251 83.5t-81 188.5q0 90 51 158.5t143.5 106t213.5 37.5q112 0 200.5 -34t144.5 -97t72 -149q2 -15 -5.5 -23.5t-22.5 -8.5h-100q-25 0 -33 26z" />
    <glyph glyph-name="t" unicode="t" horiz-adv-x="844" 
d="M259 192v679h-197q-14 0 -22 8t-8 22v81q0 14 8 22t22 8h197v255q0 14 8 22t22 8h108q14 0 22 -8t8 -22v-255h317q14 0 22 -8t8 -22v-81q0 -14 -8 -22t-22 -8h-317v-655q0 -40 15.5 -57.5t51.5 -17.5h267q14 0 22 -8t8 -22v-81q0 -14 -8 -22t-22 -8h-316q-186 0 -186 192
z" />
    <glyph glyph-name="u" unicode="u" horiz-adv-x="1184" 
d="M1021 8q-8 -8 -22 -8h-97q-29 0 -31 29l-8 145q-55 -96 -144.5 -144.5t-203.5 -48.5q-115 0 -198.5 47.5t-128.5 141.5t-45 228v584q0 14 8 22t22 8h108q14 0 22 -8t8 -22v-555q0 -146 67 -222t189 -76q88 0 154 39.5t103 115.5t37 183v515q0 14 8 22t22 8h108
q14 0 22 -8t8 -22v-952q0 -14 -8 -22z" />
    <glyph glyph-name="v" unicode="v" horiz-adv-x="1064" 
d="M422 24l-373 953q-3 8 -3 14q0 21 26 21h116q26 0 34 -24l313 -825l313 825q8 24 34 24h109q26 0 26 -21q0 -6 -3 -14l-372 -953q-9 -24 -34 -24h-152q-25 0 -34 24z" />
    <glyph glyph-name="w" unicode="w" horiz-adv-x="1503" 
d="M71 989q0 11 7 17t20 6h105q27 0 33 -26l199 -806l243 735q8 25 34 25h86q26 0 34 -25l243 -733l199 804q6 26 33 26h98q13 0 20 -6t7 -17q0 -7 -1 -10l-241 -953q-6 -26 -34 -26h-141q-26 0 -34 24l-229 677l-230 -677q-9 -24 -34 -24h-141q-28 0 -34 26l-241 953
q-1 3 -1 10z" />
    <glyph glyph-name="x" unicode="x" horiz-adv-x="1044" 
d="M797 20l-257 436h-36l-257 -436q-11 -20 -36 -20h-122q-13 0 -19.5 5t-6.5 13t6 18l298 500l-284 440q-6 9 -6 17q0 9 7 14t19 5h118q22 0 36 -20l251 -395h28l251 395q14 20 36 20h118q12 0 19 -5t7 -14q0 -8 -6 -17l-284 -440l298 -500q6 -10 6 -18t-6.5 -13t-19.5 -5
h-122q-25 0 -36 20z" />
    <glyph glyph-name="y" unicode="y" horiz-adv-x="1054" 
d="M322 -364q-7 6 -7 16q0 5 3 13l124 317l-394 995q-3 8 -3 14q0 21 26 21h115q26 0 34 -24l309 -802l310 802q8 24 34 24h109q26 0 26 -21q0 -6 -3 -14l-521 -1323q-9 -24 -34 -24h-108q-13 0 -20 6z" />
    <glyph glyph-name="z" unicode="z" horiz-adv-x="1000" 
d="M88 8q-8 8 -8 22v85q0 20 14 37l605 719h-575q-14 0 -22 8t-8 22v81q0 14 8 22t22 8h750q14 0 22 -8t8 -22v-85q0 -20 -14 -37l-605 -719h606q14 0 22 -8t8 -22v-81q0 -14 -8 -22t-22 -8h-781q-14 0 -22 8z" />
    <glyph glyph-name="braceleft" unicode="{" horiz-adv-x="780" 
d="M86 659q8 8 22 9q96 5 149.5 44t53.5 101q0 51 -20 128l-42 162q-18 72 -18 122q0 113 76 174t237 61h137q14 0 22 -8t8 -22v-77q0 -14 -8 -22t-22 -8h-124q-84 0 -124 -37t-40 -102q0 -35 15 -95l39 -154q22 -82 22 -135q0 -72 -48.5 -125.5t-136.5 -74.5
q88 -21 136.5 -74.5t48.5 -125.5q0 -53 -22 -135l-39 -154q-15 -60 -15 -95q0 -65 40 -102t124 -37h124q14 0 22 -8t8 -22v-77q0 -14 -8 -22t-22 -8h-137q-161 0 -237 61t-76 174q0 50 18 122l42 162q20 77 20 128q0 62 -53.5 101t-149.5 44q-14 1 -22 9t-8 22v74q0 14 8 22
z" />
    <glyph glyph-name="bar" unicode="|" horiz-adv-x="506" 
d="M172 -216h162v1676h-162v-1676z" />
    <glyph glyph-name="braceright" unicode="}" horiz-adv-x="780" 
d="M694 541q-8 -8 -22 -9q-96 -5 -149.5 -44t-53.5 -101q0 -51 20 -128l42 -162q18 -72 18 -122q0 -113 -76 -174t-237 -61h-137q-14 0 -22 8t-8 22v77q0 14 8 22t22 8h124q84 0 124 37t40 102q0 35 -15 95l-39 154q-22 82 -22 135q0 72 48.5 125.5t136.5 74.5
q-88 21 -136.5 74.5t-48.5 125.5q0 53 22 135l39 154q15 60 15 95q0 65 -40 102t-124 37h-124q-14 0 -22 8t-8 22v77q0 14 8 22t22 8h137q161 0 237 -61t76 -174q0 -50 -18 -122l-42 -162q-20 -77 -20 -128q0 -62 53.5 -101t149.5 -44q14 -1 22 -9t8 -22v-74q0 -14 -8 -22z
" />
    <glyph glyph-name="asciitilde" unicode="~" 
d="M176 527q-8 8 -7 23q8 124 73 198t172 74q48 0 87.5 -12.5t69 -30.5t68.5 -47q48 -36 82 -53t77 -17q57 0 87.5 36.5t36.5 92.5q5 29 31 29h77q14 0 22 -8t7 -23q-8 -124 -73 -198t-172 -74q-49 0 -88.5 12.5t-69 30.5t-68.5 47q-49 36 -82 53t-76 17q-58 0 -88.5 -36.5
t-36.5 -92.5q-5 -29 -31 -29h-76q-14 0 -22 8z" />
    <glyph glyph-name="uni00A0" unicode="&#xa0;" horiz-adv-x="488" 
 />
    <glyph glyph-name="exclamdown" unicode="&#xa1;" horiz-adv-x="479" 
d="M295 602l30 -548v-392q0 -14 -8 -22t-22 -8h-112q-14 0 -22 8t-8 22v392l30 548q1 29 31 29h50q30 0 31 -29zM138 813q-8 8 -8 22v147q0 14 8 22t22 8h159q14 0 22 -8t8 -22v-147q0 -14 -8 -22t-22 -8h-159q-14 0 -22 8z" />
    <glyph glyph-name="cent" unicode="&#xa2;" 
d="M573 -168q-8 8 -8 22v131q-125 16 -223 87t-153 183.5t-55 250.5t55 250.5t153 183.5t223 87v131q0 14 8 22t22 8h66q14 0 22 -8t8 -22v-130q148 -16 255.5 -105.5t145.5 -229.5q2 -8 2 -10q0 -10 -7.5 -16.5t-20.5 -6.5h-110q-25 0 -34 25q-28 83 -89.5 132.5
t-143.5 62.5v-748q83 13 144.5 64t89.5 136q9 25 34 25h111q13 0 20.5 -6.5t7.5 -17.5q0 -6 -1 -9q-38 -143 -146.5 -233.5t-257.5 -106.5v-130q0 -14 -8 -22t-22 -8h-66q-14 0 -22 8zM341 325q32 -79 90.5 -127.5t135.5 -63.5v744q-77 -15 -135.5 -63.5t-90.5 -127.5
t-32 -181t32 -181z" />
    <glyph glyph-name="sterling" unicode="&#xa3;" 
d="M199 139q88 65 134.5 146.5t46.5 168.5q0 45 -12 85t-35 83h-220q-14 0 -22 8t-8 22v60q0 14 8 22t22 8h155q-27 54 -42.5 109.5t-15.5 124.5q0 129 56 224.5t160 147t244 51.5q192 0 311 -101.5t145 -285.5q2 -15 -5.5 -23.5t-22.5 -8.5h-106q-27 0 -33 28
q-23 122 -97 183.5t-197 61.5q-137 0 -213 -71.5t-76 -200.5q0 -66 19.5 -120.5t55.5 -118.5h437q14 0 22 -8t8 -22v-60q0 -14 -8 -22t-22 -8h-374q33 -80 33 -157q0 -89 -37.5 -169t-109.5 -144h700q14 0 22 -8t8 -22v-92q0 -14 -8 -22t-22 -8h-890q-14 0 -22 8t-8 22v72
q0 22 19 37z" />
    <glyph glyph-name="yen" unicode="&#xa5;" 
d="M216 273q-8 8 -8 22v55q0 14 8 22t22 8h286v144h-286q-14 0 -22 8t-8 22v55q0 14 8 22t22 8h243l-392 705q-5 10 -5 16q0 9 7 14.5t19 5.5h115q24 0 36 -21l353 -648l351 648q12 21 35 21h109q12 0 19 -5.5t7 -14.5q0 -6 -5 -16l-392 -705h245q14 0 22 -8t8 -22v-55
q0 -14 -8 -22t-22 -8h-286v-144h286q14 0 22 -8t8 -22v-55q0 -14 -8 -22t-22 -8h-286v-235q0 -14 -8 -22t-22 -8h-113q-14 0 -22 8t-8 22v235h-286q-14 0 -22 8z" />
    <glyph glyph-name="brokenbar" unicode="&#xa6;" horiz-adv-x="506" 
d="M172 -216h162v720h-162v-720zM334 740v720h-162v-720h162z" />
    <glyph glyph-name="section" unicode="&#xa7;" horiz-adv-x="1133" 
d="M146.5 744.5q41.5 64.5 118.5 105.5q-120 73 -120 220q0 100 51 174t145.5 114.5t221.5 40.5q118 0 209 -38t146.5 -108.5t69.5 -167.5q2 -15 -5.5 -23.5t-22.5 -8.5h-98q-27 0 -32 27q-19 88 -90.5 136t-180.5 48q-77 0 -135 -21.5t-90 -61t-32 -92.5q0 -66 50 -102.5
t160 -53.5l142 -21q192 -28 283 -101.5t91 -203.5q0 -83 -41.5 -147.5t-119.5 -105.5q61 -37 91 -91.5t30 -128.5q0 -100 -51 -174t-145.5 -114.5t-221.5 -40.5q-119 0 -210 38t-146.5 108.5t-69.5 167.5q-2 15 6 23.5t23 8.5h98q28 0 32 -27q19 -88 90.5 -136t180.5 -48
q77 0 134.5 21.5t89.5 61t32 92.5q0 66 -49.5 102.5t-160.5 53.5l-142 21q-192 28 -282.5 101.5t-90.5 203.5q0 83 41.5 147.5zM323.5 499.5q61.5 -43.5 191.5 -60.5l138 -19q30 -3 72 -13q69 25 107.5 71.5t38.5 108.5q0 74 -61.5 117.5t-191.5 60.5l-138 19q-28 3 -73 13
q-68 -25 -106.5 -72t-38.5 -108q0 -74 61.5 -117.5z" />
    <glyph glyph-name="dieresis" unicode="&#xa8;" 
d="M319 1201q-8 8 -8 22v133q0 14 8 22t22 8h142q14 0 22 -8t8 -22v-133q0 -14 -8 -22t-22 -8h-142q-14 0 -22 8zM715 1201q-8 8 -8 22v133q0 14 8 22t22 8h142q14 0 22 -8t8 -22v-133q0 -14 -8 -22t-22 -8h-142q-14 0 -22 8z" />
    <glyph glyph-name="copyright" unicode="&#xa9;" horiz-adv-x="1871" 
d="M510.5 -101.5q-188.5 105.5 -294.5 292t-106 421.5t106 421.5t294.5 292t425.5 105.5t425 -105.5t294 -292t106 -421.5t-106 -421.5t-294.5 -292t-424.5 -105.5q-237 0 -425.5 105.5zM329.5 250q89.5 -161 248.5 -251.5t358 -90.5t358 90.5t248.5 251.5t89.5 362
t-89.5 362t-248.5 251.5t-358 90.5t-358 -90.5t-248.5 -251.5t-89.5 -362t89.5 -362zM585.5 829.5q52.5 96.5 145.5 151t210 54.5q88 0 165.5 -33t132 -95t76.5 -147q1 -3 1 -9q0 -11 -7.5 -17.5t-20.5 -6.5h-104q-25 0 -34 25q-25 70 -81 106t-128 36q-69 0 -123 -33
t-84.5 -96.5t-30.5 -152.5q0 -88 30.5 -151.5t84.5 -96.5t123 -33q74 0 130 37t80 108q9 25 34 25h104q28 0 28 -24q0 -6 -1 -9q-21 -83 -74.5 -145.5t-131 -97t-169.5 -34.5q-116 0 -209.5 54.5t-146 150.5t-52.5 216q0 121 52.5 217.5z" />
    <glyph glyph-name="ordfeminine" unicode="&#xaa;" horiz-adv-x="1070" 
d="M857 667q13 -15 43 -15h47q14 0 22 -8t8 -22v-65q0 -14 -8 -22t-22 -8h-95q-149 0 -156 142q-52 -79 -130 -119t-177 -40q-85 0 -150 31.5t-100.5 87.5t-35.5 129q0 104 72.5 165.5t216.5 77.5l295 34v62q0 78 -52.5 123t-141.5 45q-77 0 -130 -33.5t-69 -91.5
q-4 -14 -11.5 -20.5t-20.5 -6.5h-91q-15 0 -23 8t-6 23q13 73 59.5 130t122.5 89t173 32q104 0 182.5 -36t121.5 -101.5t43 -150.5v-392q0 -33 13 -48zM303 665.5q45 -35.5 122 -35.5q67 0 127.5 29.5t98.5 87.5t38 139v41l-260 -29q-88 -10 -129.5 -41.5t-41.5 -91.5
q0 -64 45 -99.5z" />
    <glyph glyph-name="guillemotleft" unicode="&#xab;" horiz-adv-x="1196" 
d="M539 60q-10 0 -21 11l-403 448q-9 11 -9 21q0 11 9 21l403 448q11 11 21 11q11 0 21 -10l63 -58q11 -11 11 -21t-9 -21l-335 -370l335 -370q9 -10 9 -21q0 -10 -11 -21l-63 -58q-10 -10 -21 -10zM559 540q0 11 9 21l403 448q11 11 22 11q10 0 20 -9l64 -59q11 -11 11 -21
t-9 -21l-335 -370l335 -370q9 -10 9 -21q0 -10 -11 -21l-64 -59q-10 -10 -20 -10t-22 12l-403 448q-9 11 -9 21z" />
    <glyph glyph-name="logicalnot" unicode="&#xac;" 
d="M921 251q-8 8 -8 22v325h-748q-14 0 -22 8t-8 22v84q0 14 8 22t22 8h868q14 0 22 -8t8 -22v-439q0 -14 -8 -22t-22 -8h-90q-14 0 -22 8z" />
    <glyph glyph-name="registered" unicode="&#xae;" horiz-adv-x="1415" 
d="M401.5 409q-135.5 76 -212 210.5t-76.5 302.5t76.5 302.5t212 210.5t305.5 76t305.5 -76t212 -210.5t76.5 -302.5t-76.5 -302.5t-212 -210.5t-305.5 -76t-305.5 76zM294 674q61 -110 169.5 -172t243.5 -62t243.5 62t169.5 172t61 248t-61 248t-169.5 172t-243.5 62
t-243.5 -62t-169.5 -172t-61 -248t61 -248zM472 614q-8 8 -8 22v574q0 14 8 22t22 8h249q109 0 172 -53.5t63 -145.5q0 -68 -37.5 -115t-103.5 -66l135 -218q6 -9 6 -17q0 -9 -7 -14t-19 -5h-82q-25 0 -36 20l-129 217h-110v-207q0 -14 -8 -22t-22 -8h-71q-14 0 -22 8z
M733 951q54 0 83 23.5t29 66.5t-29 66t-83 23h-138v-179h138z" />
    <glyph glyph-name="macron" unicode="&#xaf;" 
d="M322 1331q8 8 22 8h532q14 0 22 -8t8 -22v-65q0 -14 -8 -22t-22 -8h-532q-14 0 -22 8t-8 22v65q0 14 8 22z" />
    <glyph glyph-name="degree" unicode="&#xb0;" horiz-adv-x="861" 
d="M152.5 1284q41.5 72 114.5 113.5t164 41.5q90 0 163 -41.5t114.5 -113.5t41.5 -161t-41.5 -161t-114.5 -113t-163 -41q-91 0 -164 41t-114.5 113t-41.5 161t41.5 161zM266 1025q25 -44 68.5 -69t96.5 -25t96.5 25t68 69t24.5 98t-24.5 98t-68 69.5t-96.5 25.5
t-96.5 -25.5t-68.5 -69.5t-25 -98t25 -98z" />
    <glyph glyph-name="plusminus" unicode="&#xb1;" 
d="M162 135q8 8 22 8h852q14 0 22 -8t8 -22v-83q0 -14 -8 -22t-22 -8h-852q-14 0 -22 8t-8 22v83q0 14 8 22zM154 702q-8 8 -8 22v84q0 14 8 22t22 8h359v349q0 14 8 22t22 8h90q14 0 22 -8t8 -22v-349h359q14 0 22 -8t8 -22v-84q0 -14 -8 -22t-22 -8h-359v-349
q0 -14 -8 -22t-22 -8h-90q-14 0 -22 8t-8 22v349h-359q-14 0 -22 8z" />
    <glyph glyph-name="uni00B2" unicode="&#xb2;" horiz-adv-x="799" 
d="M136 874q-8 8 -8 22v45q0 21 16 37l273 257q56 53 80 92.5t24 81.5q0 47 -31.5 74.5t-86.5 27.5q-112 0 -139 -105q-6 -27 -32 -27h-74q-15 0 -23 9t-5 24q21 105 92.5 158t183.5 53q77 0 134.5 -26.5t88.5 -74.5t31 -112q0 -59 -34.5 -117t-110.5 -128l-199 -186h324
q14 0 22 -8t8 -22v-53q0 -14 -8 -22t-22 -8h-482q-14 0 -22 8z" />
    <glyph glyph-name="uni00B3" unicode="&#xb3;" horiz-adv-x="790" 
d="M539.5 1598q59.5 -25 92.5 -71t33 -106q0 -62 -35.5 -105.5t-102.5 -62.5q74 -20 113 -66.5t39 -115.5q0 -64 -34.5 -113t-97 -76t-144.5 -27q-122 0 -200.5 56.5t-95.5 157.5q-3 15 5 23.5t23 8.5h71q26 0 33 -27q14 -52 56.5 -81.5t105.5 -29.5q65 0 103.5 31.5
t38.5 84.5t-40 83t-112 30h-50q-14 0 -22 8t-8 22v46q0 14 8 22t22 8h50q65 0 102 29t37 80q0 49 -35 77.5t-94 28.5q-56 0 -95 -25.5t-52 -71.5q-4 -14 -11.5 -20.5t-20.5 -6.5h-73q-15 0 -23 7.5t-6 21.5q16 96 92 150.5t191 54.5q77 0 136.5 -25z" />
    <glyph glyph-name="acute" unicode="&#xb4;" 
d="M531 1135.5q-7 5.5 -7 14.5q0 8 4 16l127 233q12 21 36 21h138q12 0 18.5 -5t6.5 -13t-8 -19l-183 -235q-15 -18 -37 -18h-76q-12 0 -19 5.5z" />
    <glyph glyph-name="paragraph" unicode="&#xb6;" horiz-adv-x="1337" 
d="M594 -208q-8 8 -8 22v827h-125q-124 0 -217.5 45.5t-144.5 129.5t-51 195t51 194.5t144.5 129t217.5 45.5h257q14 0 22 -8t8 -22v-1536q0 -14 -8 -22t-22 -8h-102q-14 0 -22 8zM905 -208q-8 8 -8 22v1536q0 14 8 22t22 8h345q14 0 22 -8t8 -22v-81q0 -14 -8 -22t-22 -8
h-214v-1425q0 -14 -8 -22t-22 -8h-101q-14 0 -22 8z" />
    <glyph glyph-name="periodcentered" unicode="&#xb7;" horiz-adv-x="483" 
d="M140 492q-8 8 -8 22v147q0 14 8 22t22 8h159q14 0 22 -8t8 -22v-147q0 -14 -8 -22t-22 -8h-159q-14 0 -22 8z" />
    <glyph glyph-name="cedilla" unicode="&#xb8;" 
d="M509 -153q-7 6 -7 17q0 3 2 11l48 163q7 25 33 25h49q13 0 20 -6t7 -17q0 -3 -2 -11l-31 -103h13q96 0 150 -41t54 -116q0 -76 -53.5 -117t-153.5 -41h-151q-14 0 -22 8t-8 22v50q0 14 8 22t22 8h115q53 0 78.5 14.5t25.5 45.5q0 60 -104 60h-73q-13 0 -20 6z" />
    <glyph glyph-name="uni00B9" unicode="&#xb9;" horiz-adv-x="786" 
d="M364 1604q8 8 22 8h71q14 0 22 -8t8 -22v-603h182q14 0 22 -8t8 -22v-53q0 -14 -8 -22t-22 -8h-507q-14 0 -22 8t-8 22v53q0 14 8 22t22 8h189v396h-173q-14 0 -22 8t-8 22v52q0 14 8 22t22 8h121q30 0 43.5 14t13.5 44v37q0 14 8 22z" />
    <glyph glyph-name="ordmasculine" unicode="&#xba;" horiz-adv-x="1054" 
d="M307 567.5q-98 57.5 -153.5 158.5t-55.5 227q0 125 55.5 226t153.5 158.5t220 57.5t220 -57.5t153.5 -158.5t55.5 -226q0 -126 -55.5 -227t-153.5 -158.5t-220 -57.5t-220 57.5zM295 791.5q33 -69.5 93 -107.5t139 -38q80 0 140 38t92.5 107.5t32.5 161.5q0 91 -32.5 160
t-92.5 106.5t-140 37.5q-79 0 -139 -38t-93 -107t-33 -159q0 -92 33 -161.5z" />
    <glyph glyph-name="guillemotright" unicode="&#xbb;" horiz-adv-x="1196" 
d="M657 1020q10 0 21 -11l403 -448q9 -10 9 -21q0 -10 -9 -21l-403 -448q-11 -11 -21 -11q-11 0 -21 10l-63 58q-11 11 -11 21q0 11 9 21l335 370l-335 370q-9 11 -9 21t11 21l63 58q10 10 21 10zM108 149q0 11 9 21l335 370l-335 370q-9 11 -9 21t11 21l64 59q10 10 20 10
t22 -12l403 -448q9 -10 9 -21q0 -10 -9 -21l-403 -448q-12 -12 -22 -12t-20 10l-64 59q-11 11 -11 21z" />
    <glyph glyph-name="onequarter" unicode="&#xbc;" horiz-adv-x="1621" 
d="M322 1372q8 8 22 8h71q14 0 22 -8t8 -22v-603h182q14 0 22 -8t8 -22v-53q0 -14 -8 -22t-22 -8h-507q-14 0 -22 8t-8 22v53q0 14 8 22t22 8h189v396h-173q-14 0 -22 8t-8 22v52q0 14 8 22t22 8h121q30 0 43.5 14t13.5 44v37q0 14 8 22zM365 5q-7 5 -7 14q0 8 6 17
l883 1325q13 19 36 19h77q12 0 19 -5t7 -14q0 -8 -6 -17l-883 -1325q-13 -19 -36 -19h-77q-12 0 -19 5zM1327 8q-8 8 -8 22v138h-345q-14 0 -22 8t-8 22v56q0 21 13 37l340 437q15 18 37 18h87q14 0 22 -8t8 -22v-436h73q14 0 22 -8t8 -22v-52q0 -14 -8 -22t-22 -8h-73v-138
q0 -14 -8 -22t-22 -8h-72q-14 0 -22 8zM1319 280v305l-240 -305h240z" />
    <glyph glyph-name="onehalf" unicode="&#xbd;" horiz-adv-x="1702" 
d="M322 1372q8 8 22 8h71q14 0 22 -8t8 -22v-603h182q14 0 22 -8t8 -22v-53q0 -14 -8 -22t-22 -8h-507q-14 0 -22 8t-8 22v53q0 14 8 22t22 8h189v396h-173q-14 0 -22 8t-8 22v52q0 14 8 22t22 8h121q30 0 43.5 14t13.5 44v37q0 14 8 22zM365 5q-7 5 -7 14q0 8 6 17
l883 1325q13 19 36 19h77q12 0 19 -5t7 -14q0 -8 -6 -17l-883 -1325q-13 -19 -36 -19h-77q-12 0 -19 5zM1090 8q-8 8 -8 22v45q0 21 16 37l273 257q56 53 80 92.5t24 81.5q0 47 -31.5 74.5t-86.5 27.5q-112 0 -139 -105q-6 -27 -32 -27h-74q-15 0 -23 9t-5 24
q21 105 92.5 158t183.5 53q77 0 134.5 -26.5t88.5 -74.5t31 -112q0 -59 -34.5 -117t-110.5 -128l-199 -186h324q14 0 22 -8t8 -22v-53q0 -14 -8 -22t-22 -8h-482q-14 0 -22 8z" />
    <glyph glyph-name="threequarters" unicode="&#xbe;" horiz-adv-x="1620" 
d="M513.5 1366q59.5 -25 92.5 -71t33 -106q0 -62 -35.5 -105.5t-102.5 -62.5q74 -20 113 -66.5t39 -115.5q0 -64 -34.5 -113t-97 -76t-144.5 -27q-122 0 -200.5 56.5t-95.5 157.5q-3 15 5 23.5t23 8.5h71q26 0 33 -27q14 -52 56.5 -81.5t105.5 -29.5q65 0 103.5 31.5
t38.5 84.5t-40 83t-112 30h-50q-14 0 -22 8t-8 22v46q0 14 8 22t22 8h50q65 0 102 29t37 80q0 49 -35 77.5t-94 28.5q-56 0 -95 -25.5t-52 -71.5q-4 -14 -11.5 -20.5t-20.5 -6.5h-73q-15 0 -23 7.5t-6 21.5q16 96 92 150.5t191 54.5q77 0 136.5 -25zM362 5q-7 5 -7 14
q0 8 6 17l883 1325q13 19 36 19h77q12 0 19 -5t7 -14q0 -8 -6 -17l-883 -1325q-13 -19 -36 -19h-77q-12 0 -19 5zM1324 8q-8 8 -8 22v138h-345q-14 0 -22 8t-8 22v56q0 21 13 37l340 437q15 18 37 18h87q14 0 22 -8t8 -22v-436h73q14 0 22 -8t8 -22v-52q0 -14 -8 -22t-22 -8
h-73v-138q0 -14 -8 -22t-22 -8h-72q-14 0 -22 8zM1316 280v305l-240 -305h240z" />
    <glyph glyph-name="questiondown" unicode="&#xbf;" horiz-adv-x="1019" 
d="M584 460q-15 -54 -51.5 -99t-107.5 -101l-35 -27q-80 -62 -117 -119.5t-37 -122.5q0 -66 32 -118t91 -81t137 -29q122 0 199 66.5t101 191.5q4 28 32 28h113q15 0 22.5 -8.5t4.5 -23.5q-31 -195 -154.5 -299.5t-321.5 -104.5q-130 0 -228 47t-151.5 131t-53.5 191
q0 93 50 174.5t160 170.5l36 28q57 45 87.5 81.5t43.5 76.5t13 94q0 11 8 17.5t22 6.5h90q14 0 22 -8t8 -22v-5q0 -82 -15 -136zM423 813q-8 8 -8 22v147q0 14 8 22t22 8h158q14 0 22 -8t8 -22v-147q0 -14 -8 -22t-22 -8h-158q-14 0 -22 8z" />
    <glyph glyph-name="Agrave" unicode="&#xc0;" horiz-adv-x="1279" 
d="M44 21q0 8 2 13l469 1322q8 24 35 24h179q27 0 35 -24l470 -1322l2 -12q0 -10 -7 -16t-20 -6h-121q-25 0 -34 24l-121 350h-593l-121 -350q-9 -24 -34 -24h-115q-26 0 -26 21zM881 523l-244 707l-245 -707h489zM718 1518q0 -9 -6.5 -14.5t-19.5 -5.5h-76q-22 0 -37 18
l-183 235q-8 11 -8 19t6.5 13t18.5 5h138q24 0 36 -21l127 -233q4 -8 4 -16z" />
    <glyph glyph-name="Aacute" unicode="&#xc1;" horiz-adv-x="1279" 
d="M44 21q0 8 2 13l469 1322q8 24 35 24h179q27 0 35 -24l470 -1322l2 -12q0 -10 -7 -16t-20 -6h-121q-25 0 -34 24l-121 350h-593l-121 -350q-9 -24 -34 -24h-115q-26 0 -26 21zM881 523l-244 707l-245 -707h489zM563 1503.5q-7 5.5 -7 14.5q0 8 4 16l127 233q12 21 36 21
h138q12 0 18.5 -5t6.5 -13t-8 -19l-183 -235q-15 -18 -37 -18h-76q-12 0 -19 5.5z" />
    <glyph glyph-name="Acircumflex" unicode="&#xc2;" horiz-adv-x="1279" 
d="M44 21q0 8 2 13l469 1322q8 24 35 24h179q27 0 35 -24l470 -1322l2 -12q0 -10 -7 -16t-20 -6h-121q-25 0 -34 24l-121 350h-593l-121 -350q-9 -24 -34 -24h-115q-26 0 -26 21zM881 523l-244 707l-245 -707h489zM344 1503q-7 5 -7 13t8 19l185 235q15 18 37 18h146
q22 0 37 -18l185 -235q8 -11 8 -19t-7 -13t-19 -5h-80q-22 0 -37 15l-160 158l-160 -158q-15 -15 -37 -15h-80q-12 0 -19 5z" />
    <glyph glyph-name="Atilde" unicode="&#xc3;" horiz-adv-x="1279" 
d="M44 21q0 8 2 13l469 1322q8 24 35 24h179q27 0 35 -24l470 -1322l2 -12q0 -10 -7 -16t-20 -6h-121q-25 0 -34 24l-121 350h-593l-121 -350q-9 -24 -34 -24h-115q-26 0 -26 21zM881 523l-244 707l-245 -707h489zM695 1542.5q-33 16.5 -76 48.5q-31 24 -52.5 35.5
t-43.5 11.5q-27 0 -45 -19.5t-24 -55.5q-5 -29 -32 -29h-53q-30 0 -30 21q0 60 22 107t61 73.5t89 26.5q41 0 74 -16.5t76 -48.5q31 -24 52.5 -35.5t43.5 -11.5q27 0 45 19.5t24 55.5q5 29 32 29h53q30 0 30 -21q0 -60 -22 -107t-61 -73.5t-89 -26.5q-41 0 -74 16.5z" />
    <glyph glyph-name="Adieresis" unicode="&#xc4;" horiz-adv-x="1279" 
d="M44 21q0 8 2 13l469 1322q8 24 35 24h179q27 0 35 -24l470 -1322l2 -12q0 -10 -7 -16t-20 -6h-121q-25 0 -34 24l-121 350h-593l-121 -350q-9 -24 -34 -24h-115q-26 0 -26 21zM881 523l-244 707l-245 -707h489zM349 1569q-8 8 -8 22v133q0 14 8 22t22 8h142q14 0 22 -8
t8 -22v-133q0 -14 -8 -22t-22 -8h-142q-14 0 -22 8zM745 1569q-8 8 -8 22v133q0 14 8 22t22 8h142q14 0 22 -8t8 -22v-133q0 -14 -8 -22t-22 -8h-142q-14 0 -22 8z" />
    <glyph glyph-name="Aring" unicode="&#xc5;" horiz-adv-x="1279" 
d="M44 21q0 8 2 13l469 1322q8 24 35 24h179q27 0 35 -24l470 -1322l2 -12q0 -10 -7 -16t-20 -6h-121q-25 0 -34 24l-121 350h-593l-121 -350q-9 -24 -34 -24h-115q-26 0 -26 21zM881 523l-244 707l-245 -707h489zM527.5 1505q-50.5 28 -79.5 77t-29 109q0 59 29 108
t79.5 77.5t112.5 28.5t112.5 -28.5t79.5 -77.5t29 -108q0 -60 -29 -109t-79.5 -77t-112.5 -28t-112.5 28zM556.5 1607.5q34.5 -34.5 83.5 -34.5q50 0 84 34.5t34 83.5q0 50 -34 84t-84 34q-49 0 -83.5 -34t-34.5 -84q0 -49 34.5 -83.5z" />
    <glyph glyph-name="AE" unicode="&#xc6;" horiz-adv-x="1861" 
d="M10.5 5.5q-6.5 5.5 -6.5 13.5q0 10 5 17l758 1323q11 21 36 21h912q14 0 22 -8t8 -22v-91q0 -14 -8 -22t-22 -8h-659v-454h591q14 0 22 -8t8 -22v-90q0 -14 -8 -22t-22 -8h-591v-474h676q14 0 22 -8t8 -22v-91q0 -14 -8 -22t-22 -8h-821q-14 0 -22 8t-8 22v344h-487
l-202 -353q-11 -21 -36 -21h-127q-12 0 -18.5 5.5zM881 523v705l-402 -705h402z" />
    <glyph glyph-name="Ccedilla" unicode="&#xc7;" horiz-adv-x="1271" 
d="M1169.5 449.5q7.5 -8.5 4.5 -24.5q-39 -205 -165.5 -321t-317.5 -123l-16 -55h13q96 0 150 -41t54 -116q0 -76 -53.5 -117t-153.5 -41h-151q-14 0 -22 8t-8 22v50q0 14 8 22t22 8h115q53 0 78.5 14.5t25.5 45.5q0 60 -104 60h-73q-13 0 -20 6t-7 17q0 3 2 11l33 112
q-147 21 -254.5 112.5t-165.5 243t-58 347.5q0 215 69 375.5t196.5 247t299.5 86.5q133 0 237 -52t172.5 -151t94.5 -238q2 -16 -5.5 -24.5t-22.5 -8.5h-118q-27 0 -33 28q-28 143 -111.5 217t-213.5 74q-120 0 -206.5 -65.5t-132 -190t-45.5 -298.5t45.5 -298.5t132 -190
t206.5 -65.5q130 0 214 75t111 219q6 28 33 28h118q15 0 22.5 -8.5z" />
    <glyph glyph-name="Egrave" unicode="&#xc8;" horiz-adv-x="1184" 
d="M180 1372q8 8 22 8h836q14 0 22 -8t8 -22v-91q0 -14 -8 -22t-22 -8h-691v-454h622q14 0 22 -8t8 -22v-90q0 -14 -8 -22t-22 -8h-622v-474h708q14 0 22 -8t8 -22v-91q0 -14 -8 -22t-22 -8h-853q-14 0 -22 8t-8 22v1320q0 14 8 22zM698 1518q0 -9 -6.5 -14.5t-19.5 -5.5
h-76q-22 0 -37 18l-183 235q-8 11 -8 19t6.5 13t18.5 5h138q24 0 36 -21l127 -233q4 -8 4 -16z" />
    <glyph glyph-name="Eacute" unicode="&#xc9;" horiz-adv-x="1184" 
d="M180 1372q8 8 22 8h836q14 0 22 -8t8 -22v-91q0 -14 -8 -22t-22 -8h-691v-454h622q14 0 22 -8t8 -22v-90q0 -14 -8 -22t-22 -8h-622v-474h708q14 0 22 -8t8 -22v-91q0 -14 -8 -22t-22 -8h-853q-14 0 -22 8t-8 22v1320q0 14 8 22zM542 1503.5q-7 5.5 -7 14.5q0 8 4 16
l127 233q12 21 36 21h138q12 0 18.5 -5t6.5 -13t-8 -19l-183 -235q-15 -18 -37 -18h-76q-12 0 -19 5.5z" />
    <glyph glyph-name="Ecircumflex" unicode="&#xca;" horiz-adv-x="1184" 
d="M180 1372q8 8 22 8h836q14 0 22 -8t8 -22v-91q0 -14 -8 -22t-22 -8h-691v-454h622q14 0 22 -8t8 -22v-90q0 -14 -8 -22t-22 -8h-622v-474h708q14 0 22 -8t8 -22v-91q0 -14 -8 -22t-22 -8h-853q-14 0 -22 8t-8 22v1320q0 14 8 22zM324 1503q-7 5 -7 13t8 19l185 235
q15 18 37 18h146q22 0 37 -18l185 -235q8 -11 8 -19t-7 -13t-19 -5h-80q-22 0 -37 15l-160 158l-160 -158q-15 -15 -37 -15h-80q-12 0 -19 5z" />
    <glyph glyph-name="Edieresis" unicode="&#xcb;" horiz-adv-x="1184" 
d="M180 1372q8 8 22 8h836q14 0 22 -8t8 -22v-91q0 -14 -8 -22t-22 -8h-691v-454h622q14 0 22 -8t8 -22v-90q0 -14 -8 -22t-22 -8h-622v-474h708q14 0 22 -8t8 -22v-91q0 -14 -8 -22t-22 -8h-853q-14 0 -22 8t-8 22v1320q0 14 8 22zM329 1569q-8 8 -8 22v133q0 14 8 22t22 8
h142q14 0 22 -8t8 -22v-133q0 -14 -8 -22t-22 -8h-142q-14 0 -22 8zM725 1569q-8 8 -8 22v133q0 14 8 22t22 8h142q14 0 22 -8t8 -22v-133q0 -14 -8 -22t-22 -8h-142q-14 0 -22 8z" />
    <glyph glyph-name="Igrave" unicode="&#xcc;" horiz-adv-x="1007" 
d="M913 1372q8 -8 8 -22v-91q0 -14 -8 -22t-22 -8h-300v-1078h300q14 0 22 -8t8 -22v-91q0 -14 -8 -22t-22 -8h-775q-14 0 -22 8t-8 22v91q0 14 8 22t22 8h299v1078h-299q-14 0 -22 8t-8 22v91q0 14 8 22t22 8h775q14 0 22 -8zM581 1518q0 -9 -6.5 -14.5t-19.5 -5.5h-76
q-22 0 -37 18l-183 235q-8 11 -8 19t6.5 13t18.5 5h138q24 0 36 -21l127 -233q4 -8 4 -16z" />
    <glyph glyph-name="Iacute" unicode="&#xcd;" horiz-adv-x="1007" 
d="M913 1372q8 -8 8 -22v-91q0 -14 -8 -22t-22 -8h-300v-1078h300q14 0 22 -8t8 -22v-91q0 -14 -8 -22t-22 -8h-775q-14 0 -22 8t-8 22v91q0 14 8 22t22 8h299v1078h-299q-14 0 -22 8t-8 22v91q0 14 8 22t22 8h775q14 0 22 -8zM426 1503.5q-7 5.5 -7 14.5q0 8 4 16l127 233
q12 21 36 21h138q12 0 18.5 -5t6.5 -13t-8 -19l-183 -235q-15 -18 -37 -18h-76q-12 0 -19 5.5z" />
    <glyph glyph-name="Icircumflex" unicode="&#xce;" horiz-adv-x="1007" 
d="M913 1372q8 -8 8 -22v-91q0 -14 -8 -22t-22 -8h-300v-1078h300q14 0 22 -8t8 -22v-91q0 -14 -8 -22t-22 -8h-775q-14 0 -22 8t-8 22v91q0 14 8 22t22 8h299v1078h-299q-14 0 -22 8t-8 22v91q0 14 8 22t22 8h775q14 0 22 -8zM207 1503q-7 5 -7 13t8 19l185 235
q15 18 37 18h146q22 0 37 -18l185 -235q8 -11 8 -19t-7 -13t-19 -5h-80q-22 0 -37 15l-160 158l-160 -158q-15 -15 -37 -15h-80q-12 0 -19 5z" />
    <glyph glyph-name="Idieresis" unicode="&#xcf;" horiz-adv-x="1007" 
d="M913 1372q8 -8 8 -22v-91q0 -14 -8 -22t-22 -8h-300v-1078h300q14 0 22 -8t8 -22v-91q0 -14 -8 -22t-22 -8h-775q-14 0 -22 8t-8 22v91q0 14 8 22t22 8h299v1078h-299q-14 0 -22 8t-8 22v91q0 14 8 22t22 8h775q14 0 22 -8zM212 1569q-8 8 -8 22v133q0 14 8 22t22 8h142
q14 0 22 -8t8 -22v-133q0 -14 -8 -22t-22 -8h-142q-14 0 -22 8zM608 1569q-8 8 -8 22v133q0 14 8 22t22 8h142q14 0 22 -8t8 -22v-133q0 -14 -8 -22t-22 -8h-142q-14 0 -22 8z" />
    <glyph glyph-name="Eth" unicode="&#xd0;" horiz-adv-x="1373" 
d="M82 641q-8 8 -8 22v74q0 14 8 22t22 8h127v583q0 14 8 22t22 8h351q202 0 350.5 -84t228.5 -240t80 -366t-80 -366t-228.5 -240t-350.5 -84h-351q-14 0 -22 8t-8 22v603h-127q-14 0 -22 8zM596 151q156 0 267 64t169 185t58 290t-58 290t-169 185t-267 64h-190v-462h300
q14 0 22 -8t8 -22v-74q0 -14 -8 -22t-22 -8h-300v-482h190z" />
    <glyph glyph-name="Ntilde" unicode="&#xd1;" horiz-adv-x="1396" 
d="M180 8q-8 8 -8 22v1320q0 14 8 22t22 8h131q25 0 36 -20l683 -1094v1084q0 14 8 22t22 8h112q14 0 22 -8t8 -22v-1320q0 -14 -8 -22t-22 -8h-131q-25 0 -36 20l-683 1095v-1085q0 -14 -8 -22t-22 -8h-112q-14 0 -22 8zM753 1542.5q-33 16.5 -76 48.5q-31 24 -52.5 35.5
t-43.5 11.5q-27 0 -45 -19.5t-24 -55.5q-5 -29 -32 -29h-53q-30 0 -30 21q0 60 22 107t61 73.5t89 26.5q41 0 74 -16.5t76 -48.5q31 -24 52.5 -35.5t43.5 -11.5q27 0 45 19.5t24 55.5q5 29 32 29h53q30 0 30 -21q0 -60 -22 -107t-61 -73.5t-89 -26.5q-41 0 -74 16.5z" />
    <glyph glyph-name="Ograve" unicode="&#xd2;" horiz-adv-x="1344" 
d="M372.5 67.5q-127.5 86.5 -196.5 247t-69 375.5t69 375.5t196.5 247t299.5 86.5t299.5 -86.5t196.5 -247t69 -375.5t-69 -375.5t-196.5 -247t-299.5 -86.5t-299.5 86.5zM333.5 391.5q45.5 -124.5 131.5 -190t207 -65.5t207 65.5t131.5 190t45.5 298.5t-45.5 298.5
t-131.5 190t-207 65.5t-207 -65.5t-131.5 -190t-45.5 -298.5t45.5 -298.5zM750 1518q0 -9 -6.5 -14.5t-19.5 -5.5h-76q-22 0 -37 18l-183 235q-8 11 -8 19t6.5 13t18.5 5h138q24 0 36 -21l127 -233q4 -8 4 -16z" />
    <glyph glyph-name="Oacute" unicode="&#xd3;" horiz-adv-x="1344" 
d="M372.5 67.5q-127.5 86.5 -196.5 247t-69 375.5t69 375.5t196.5 247t299.5 86.5t299.5 -86.5t196.5 -247t69 -375.5t-69 -375.5t-196.5 -247t-299.5 -86.5t-299.5 86.5zM333.5 391.5q45.5 -124.5 131.5 -190t207 -65.5t207 65.5t131.5 190t45.5 298.5t-45.5 298.5
t-131.5 190t-207 65.5t-207 -65.5t-131.5 -190t-45.5 -298.5t45.5 -298.5zM594 1503.5q-7 5.5 -7 14.5q0 8 4 16l127 233q12 21 36 21h138q12 0 18.5 -5t6.5 -13t-8 -19l-183 -235q-15 -18 -37 -18h-76q-12 0 -19 5.5z" />
    <glyph glyph-name="Ocircumflex" unicode="&#xd4;" horiz-adv-x="1344" 
d="M372.5 67.5q-127.5 86.5 -196.5 247t-69 375.5t69 375.5t196.5 247t299.5 86.5t299.5 -86.5t196.5 -247t69 -375.5t-69 -375.5t-196.5 -247t-299.5 -86.5t-299.5 86.5zM333.5 391.5q45.5 -124.5 131.5 -190t207 -65.5t207 65.5t131.5 190t45.5 298.5t-45.5 298.5
t-131.5 190t-207 65.5t-207 -65.5t-131.5 -190t-45.5 -298.5t45.5 -298.5zM376 1503q-7 5 -7 13t8 19l185 235q15 18 37 18h146q22 0 37 -18l185 -235q8 -11 8 -19t-7 -13t-19 -5h-80q-22 0 -37 15l-160 158l-160 -158q-15 -15 -37 -15h-80q-12 0 -19 5z" />
    <glyph glyph-name="Otilde" unicode="&#xd5;" horiz-adv-x="1344" 
d="M372.5 67.5q-127.5 86.5 -196.5 247t-69 375.5t69 375.5t196.5 247t299.5 86.5t299.5 -86.5t196.5 -247t69 -375.5t-69 -375.5t-196.5 -247t-299.5 -86.5t-299.5 86.5zM333.5 391.5q45.5 -124.5 131.5 -190t207 -65.5t207 65.5t131.5 190t45.5 298.5t-45.5 298.5
t-131.5 190t-207 65.5t-207 -65.5t-131.5 -190t-45.5 -298.5t45.5 -298.5zM727 1542.5q-33 16.5 -76 48.5q-31 24 -52.5 35.5t-43.5 11.5q-27 0 -45 -19.5t-24 -55.5q-5 -29 -32 -29h-53q-30 0 -30 21q0 60 22 107t61 73.5t89 26.5q41 0 74 -16.5t76 -48.5
q31 -24 52.5 -35.5t43.5 -11.5q27 0 45 19.5t24 55.5q5 29 32 29h53q30 0 30 -21q0 -60 -22 -107t-61 -73.5t-89 -26.5q-41 0 -74 16.5z" />
    <glyph glyph-name="Odieresis" unicode="&#xd6;" horiz-adv-x="1344" 
d="M372.5 67.5q-127.5 86.5 -196.5 247t-69 375.5t69 375.5t196.5 247t299.5 86.5t299.5 -86.5t196.5 -247t69 -375.5t-69 -375.5t-196.5 -247t-299.5 -86.5t-299.5 86.5zM333.5 391.5q45.5 -124.5 131.5 -190t207 -65.5t207 65.5t131.5 190t45.5 298.5t-45.5 298.5
t-131.5 190t-207 65.5t-207 -65.5t-131.5 -190t-45.5 -298.5t45.5 -298.5zM381 1569q-8 8 -8 22v133q0 14 8 22t22 8h142q14 0 22 -8t8 -22v-133q0 -14 -8 -22t-22 -8h-142q-14 0 -22 8zM777 1569q-8 8 -8 22v133q0 14 8 22t22 8h142q14 0 22 -8t8 -22v-133q0 -14 -8 -22
t-22 -8h-142q-14 0 -22 8z" />
    <glyph glyph-name="multiply" unicode="&#xd7;" 
d="M293 1080q10 0 21 -11l296 -298l296 298q11 11 21 11q12 0 21 -11l58 -59q10 -10 10 -21t-10 -21l-296 -298l296 -298q10 -10 10 -21t-10 -21l-58 -59q-9 -10 -21 -10q-11 0 -21 10l-296 298l-296 -298q-10 -10 -21 -10t-21 10l-58 59q-10 12 -10 21t10 21l296 298
l-296 298q-10 12 -10 21t10 21l58 59q11 11 21 11z" />
    <glyph glyph-name="Oslash" unicode="&#xd8;" horiz-adv-x="1344" 
d="M372 68l-58 -96q-11 -20 -36 -20h-81q-13 0 -19.5 5t-6.5 13q0 7 6 18l99 165q-82 94 -125.5 230.5t-43.5 306.5q0 215 69 375.5t196.5 247t299.5 86.5q173 0 300 -87l58 96q11 20 36 20h81q13 0 19.5 -5t6.5 -13q0 -7 -6 -18l-99 -165q82 -94 125.5 -230.5t43.5 -306.5
q0 -215 -69 -375.5t-196.5 -247t-299.5 -86.5q-173 0 -300 87zM371 307l516 867q-90 71 -215 71q-121 0 -207.5 -65.5t-132 -190.5t-45.5 -299q0 -241 84 -383zM672 135q121 0 207.5 65.5t132 190.5t45.5 299q0 241 -84 383l-516 -867q90 -71 215 -71z" />
    <glyph glyph-name="Ugrave" unicode="&#xd9;" horiz-adv-x="1362" 
d="M167 1372q8 8 22 8h116q14 0 22 -8t8 -22v-811q0 -191 91 -296.5t257 -105.5t257 105.5t91 296.5v811q0 14 8 22t22 8h112q14 0 22 -8t8 -22v-817q0 -169 -63.5 -293.5t-181.5 -191.5t-278 -67t-277.5 67t-180.5 191.5t-63 293.5v817q0 14 8 22zM761 1518
q0 -9 -6.5 -14.5t-19.5 -5.5h-76q-22 0 -37 18l-183 235q-8 11 -8 19t6.5 13t18.5 5h138q24 0 36 -21l127 -233q4 -8 4 -16z" />
    <glyph glyph-name="Uacute" unicode="&#xda;" horiz-adv-x="1362" 
d="M167 1372q8 8 22 8h116q14 0 22 -8t8 -22v-811q0 -191 91 -296.5t257 -105.5t257 105.5t91 296.5v811q0 14 8 22t22 8h112q14 0 22 -8t8 -22v-817q0 -169 -63.5 -293.5t-181.5 -191.5t-278 -67t-277.5 67t-180.5 191.5t-63 293.5v817q0 14 8 22zM605 1503.5
q-7 5.5 -7 14.5q0 8 4 16l127 233q12 21 36 21h138q12 0 18.5 -5t6.5 -13t-8 -19l-183 -235q-15 -18 -37 -18h-76q-12 0 -19 5.5z" />
    <glyph glyph-name="Ucircumflex" unicode="&#xdb;" horiz-adv-x="1362" 
d="M167 1372q8 8 22 8h116q14 0 22 -8t8 -22v-811q0 -191 91 -296.5t257 -105.5t257 105.5t91 296.5v811q0 14 8 22t22 8h112q14 0 22 -8t8 -22v-817q0 -169 -63.5 -293.5t-181.5 -191.5t-278 -67t-277.5 67t-180.5 191.5t-63 293.5v817q0 14 8 22zM387 1503q-7 5 -7 13
t8 19l185 235q15 18 37 18h146q22 0 37 -18l185 -235q8 -11 8 -19t-7 -13t-19 -5h-80q-22 0 -37 15l-160 158l-160 -158q-15 -15 -37 -15h-80q-12 0 -19 5z" />
    <glyph glyph-name="Udieresis" unicode="&#xdc;" horiz-adv-x="1362" 
d="M167 1372q8 8 22 8h116q14 0 22 -8t8 -22v-811q0 -191 91 -296.5t257 -105.5t257 105.5t91 296.5v811q0 14 8 22t22 8h112q14 0 22 -8t8 -22v-817q0 -169 -63.5 -293.5t-181.5 -191.5t-278 -67t-277.5 67t-180.5 191.5t-63 293.5v817q0 14 8 22zM392 1569q-8 8 -8 22v133
q0 14 8 22t22 8h142q14 0 22 -8t8 -22v-133q0 -14 -8 -22t-22 -8h-142q-14 0 -22 8zM788 1569q-8 8 -8 22v133q0 14 8 22t22 8h142q14 0 22 -8t8 -22v-133q0 -14 -8 -22t-22 -8h-142q-14 0 -22 8z" />
    <glyph glyph-name="Yacute" unicode="&#xdd;" horiz-adv-x="1203" 
d="M43 1361q0 9 7 14t19 5h118q25 0 36 -20l381 -648l381 648q11 20 36 20h111q12 0 19 -5t7 -14t-5 -17l-464 -786v-528q0 -14 -8 -22t-22 -8h-116q-14 0 -22 8t-8 22v529l-465 785q-5 8 -5 17zM548 1503.5q-7 5.5 -7 14.5q0 8 4 16l127 233q12 21 36 21h138q12 0 18.5 -5
t6.5 -13t-8 -19l-183 -235q-15 -18 -37 -18h-76q-12 0 -19 5.5z" />
    <glyph glyph-name="Thorn" unicode="&#xde;" horiz-adv-x="1229" 
d="M180 8q-8 8 -8 22v1320q0 14 8 22t22 8h116q14 0 22 -8t8 -22v-239h339q138 0 240 -50.5t157 -143t55 -216.5t-55 -216.5t-157 -142.5t-240 -50h-339v-262q0 -14 -8 -22t-22 -8h-116q-14 0 -22 8zM669 445q143 0 216 65.5t73 191.5q0 125 -73 190t-216 65h-321v-512h321z
" />
    <glyph glyph-name="germandbls" unicode="&#xdf;" horiz-adv-x="1188" 
d="M213.5 1228q58.5 99 162.5 155t236 56q128 0 230.5 -50t160 -138.5t57.5 -199.5q0 -114 -64 -197t-176 -118q127 -36 200.5 -129.5t73.5 -223.5q0 -110 -51.5 -197t-143 -136.5t-206.5 -49.5h-191q-14 0 -22 8t-8 22v80q0 14 8 22t22 8h144q82 0 144.5 31.5t96.5 90
t34 135.5t-36.5 135t-104 89.5t-156.5 31.5h-68q-14 0 -22 8t-8 22v80q0 14 8 22t22 8h68q79 0 139 30t92.5 85.5t32.5 129.5q0 77 -34 135t-96.5 90t-145.5 32q-86 0 -151.5 -36.5t-101.5 -102.5t-36 -153v-973q0 -14 -8 -22t-22 -8h-108q-14 0 -22 8t-8 22v973
q0 126 58.5 225z" />
    <glyph glyph-name="agrave" unicode="&#xe0;" horiz-adv-x="1139" 
d="M963.5 153.5q15.5 -17.5 52.5 -17.5h66q14 0 22 -8t8 -22v-76q0 -14 -8 -22t-22 -8h-114q-88 0 -132 44t-46 134q-61 -98 -156.5 -147.5t-213.5 -49.5q-102 0 -179 37t-119 103.5t-42 152.5q0 124 86 197t256 92l360 41v78q0 63 -30 110.5t-85 73t-130 25.5
q-97 0 -164 -44.5t-84 -119.5q-6 -27 -32 -27h-103q-15 0 -23 8.5t-5 23.5q14 88 69.5 156t145 105.5t201.5 37.5q122 0 214 -42t142 -119t50 -177v-481q0 -41 15.5 -58.5zM303 156q57 -45 152 -45q83 0 158.5 37t122.5 109.5t47 173.5v53l-321 -37q-112 -12 -164 -52
t-52 -114q0 -80 57 -125zM635 1150q0 -9 -6.5 -14.5t-19.5 -5.5h-76q-22 0 -37 18l-183 235q-8 11 -8 19t6.5 13t18.5 5h138q24 0 36 -21l127 -233q4 -8 4 -16z" />
    <glyph glyph-name="aacute" unicode="&#xe1;" horiz-adv-x="1139" 
d="M963.5 153.5q15.5 -17.5 52.5 -17.5h66q14 0 22 -8t8 -22v-76q0 -14 -8 -22t-22 -8h-114q-88 0 -132 44t-46 134q-61 -98 -156.5 -147.5t-213.5 -49.5q-102 0 -179 37t-119 103.5t-42 152.5q0 124 86 197t256 92l360 41v78q0 63 -30 110.5t-85 73t-130 25.5
q-97 0 -164 -44.5t-84 -119.5q-6 -27 -32 -27h-103q-15 0 -23 8.5t-5 23.5q14 88 69.5 156t145 105.5t201.5 37.5q122 0 214 -42t142 -119t50 -177v-481q0 -41 15.5 -58.5zM303 156q57 -45 152 -45q83 0 158.5 37t122.5 109.5t47 173.5v53l-321 -37q-112 -12 -164 -52
t-52 -114q0 -80 57 -125zM479 1135.5q-7 5.5 -7 14.5q0 8 4 16l127 233q12 21 36 21h138q12 0 18.5 -5t6.5 -13t-8 -19l-183 -235q-15 -18 -37 -18h-76q-12 0 -19 5.5z" />
    <glyph glyph-name="acircumflex" unicode="&#xe2;" horiz-adv-x="1139" 
d="M963.5 153.5q15.5 -17.5 52.5 -17.5h66q14 0 22 -8t8 -22v-76q0 -14 -8 -22t-22 -8h-114q-88 0 -132 44t-46 134q-61 -98 -156.5 -147.5t-213.5 -49.5q-102 0 -179 37t-119 103.5t-42 152.5q0 124 86 197t256 92l360 41v78q0 63 -30 110.5t-85 73t-130 25.5
q-97 0 -164 -44.5t-84 -119.5q-6 -27 -32 -27h-103q-15 0 -23 8.5t-5 23.5q14 88 69.5 156t145 105.5t201.5 37.5q122 0 214 -42t142 -119t50 -177v-481q0 -41 15.5 -58.5zM303 156q57 -45 152 -45q83 0 158.5 37t122.5 109.5t47 173.5v53l-321 -37q-112 -12 -164 -52
t-52 -114q0 -80 57 -125zM261 1135q-7 5 -7 13t8 19l185 235q15 18 37 18h146q22 0 37 -18l185 -235q8 -11 8 -19t-7 -13t-19 -5h-80q-22 0 -37 15l-160 158l-160 -158q-15 -15 -37 -15h-80q-12 0 -19 5z" />
    <glyph glyph-name="atilde" unicode="&#xe3;" horiz-adv-x="1139" 
d="M963.5 153.5q15.5 -17.5 52.5 -17.5h66q14 0 22 -8t8 -22v-76q0 -14 -8 -22t-22 -8h-114q-88 0 -132 44t-46 134q-61 -98 -156.5 -147.5t-213.5 -49.5q-102 0 -179 37t-119 103.5t-42 152.5q0 124 86 197t256 92l360 41v78q0 63 -30 110.5t-85 73t-130 25.5
q-97 0 -164 -44.5t-84 -119.5q-6 -27 -32 -27h-103q-15 0 -23 8.5t-5 23.5q14 88 69.5 156t145 105.5t201.5 37.5q122 0 214 -42t142 -119t50 -177v-481q0 -41 15.5 -58.5zM303 156q57 -45 152 -45q83 0 158.5 37t122.5 109.5t47 173.5v53l-321 -37q-112 -12 -164 -52
t-52 -114q0 -80 57 -125zM612 1174.5q-33 16.5 -76 48.5q-31 24 -52.5 35.5t-43.5 11.5q-27 0 -45 -19.5t-24 -55.5q-5 -29 -32 -29h-53q-30 0 -30 21q0 60 22 107t61 73.5t89 26.5q41 0 74 -16.5t76 -48.5q31 -24 52.5 -35.5t43.5 -11.5q27 0 45 19.5t24 55.5q5 29 32 29
h53q30 0 30 -21q0 -60 -22 -107t-61 -73.5t-89 -26.5q-41 0 -74 16.5z" />
    <glyph glyph-name="adieresis" unicode="&#xe4;" horiz-adv-x="1139" 
d="M963.5 153.5q15.5 -17.5 52.5 -17.5h66q14 0 22 -8t8 -22v-76q0 -14 -8 -22t-22 -8h-114q-88 0 -132 44t-46 134q-61 -98 -156.5 -147.5t-213.5 -49.5q-102 0 -179 37t-119 103.5t-42 152.5q0 124 86 197t256 92l360 41v78q0 63 -30 110.5t-85 73t-130 25.5
q-97 0 -164 -44.5t-84 -119.5q-6 -27 -32 -27h-103q-15 0 -23 8.5t-5 23.5q14 88 69.5 156t145 105.5t201.5 37.5q122 0 214 -42t142 -119t50 -177v-481q0 -41 15.5 -58.5zM303 156q57 -45 152 -45q83 0 158.5 37t122.5 109.5t47 173.5v53l-321 -37q-112 -12 -164 -52
t-52 -114q0 -80 57 -125zM266 1201q-8 8 -8 22v133q0 14 8 22t22 8h142q14 0 22 -8t8 -22v-133q0 -14 -8 -22t-22 -8h-142q-14 0 -22 8zM662 1201q-8 8 -8 22v133q0 14 8 22t22 8h142q14 0 22 -8t8 -22v-133q0 -14 -8 -22t-22 -8h-142q-14 0 -22 8z" />
    <glyph glyph-name="aring" unicode="&#xe5;" horiz-adv-x="1139" 
d="M963.5 153.5q15.5 -17.5 52.5 -17.5h66q14 0 22 -8t8 -22v-76q0 -14 -8 -22t-22 -8h-114q-88 0 -132 44t-46 134q-61 -98 -156.5 -147.5t-213.5 -49.5q-102 0 -179 37t-119 103.5t-42 152.5q0 124 86 197t256 92l360 41v78q0 63 -30 110.5t-85 73t-130 25.5
q-97 0 -164 -44.5t-84 -119.5q-6 -27 -32 -27h-103q-15 0 -23 8.5t-5 23.5q14 88 69.5 156t145 105.5t201.5 37.5q122 0 214 -42t142 -119t50 -177v-481q0 -41 15.5 -58.5zM303 156q57 -45 152 -45q83 0 158.5 37t122.5 109.5t47 173.5v53l-321 -37q-112 -12 -164 -52
t-52 -114q0 -80 57 -125zM444.5 1137q-50.5 28 -79.5 77t-29 109q0 59 29 108t79.5 77.5t112.5 28.5t112.5 -28.5t79.5 -77.5t29 -108q0 -60 -29 -109t-79.5 -77t-112.5 -28t-112.5 28zM473.5 1239.5q34.5 -34.5 83.5 -34.5q50 0 84 34.5t34 83.5q0 50 -34 84t-84 34
q-49 0 -83.5 -34t-34.5 -84q0 -49 34.5 -83.5z" />
    <glyph glyph-name="ae" unicode="&#xe6;" horiz-adv-x="1823" 
d="M1007 49q-111 68 -172 187q-59 -126 -167 -190.5t-245 -64.5q-102 0 -179.5 37t-120 103.5t-42.5 152.5q0 124 83.5 197t250.5 92l351 41v78q0 96 -63.5 152.5t-172.5 56.5q-95 0 -159 -44t-81 -120q-6 -27 -32 -27h-103q-15 0 -23 8.5t-6 23.5q14 88 68.5 156
t142.5 105.5t198 37.5q130 0 218.5 -49t129.5 -138q63 89 158 138t214 49q135 0 243 -63t169 -177t61 -260v-28q0 -14 -8 -22t-22 -8h-763q5 -107 46.5 -186t113 -121.5t165.5 -42.5q106 0 184 51t106 137q9 26 34 26h106q13 0 20.5 -5.5t7.5 -15.5q0 -6 -1 -9
q-24 -94 -90.5 -168.5t-162 -116t-204.5 -41.5q-142 0 -253 68zM300.5 156q54.5 -45 147.5 -45q81 0 154.5 37t119.5 109.5t46 173.5v53l-314 -37q-109 -12 -158.5 -51.5t-49.5 -114.5q0 -80 54.5 -125zM1554 593q-7 88 -46 155.5t-104.5 104.5t-148.5 37q-127 0 -210.5 -79
t-104.5 -218h614z" />
    <glyph glyph-name="ccedilla" unicode="&#xe7;" horiz-adv-x="1138" 
d="M1045.5 350.5q7.5 -6.5 7.5 -16.5q0 -2 -2 -10q-26 -101 -89.5 -177t-154 -119t-197.5 -47l-17 -55h13q96 0 150 -41t54 -116q0 -76 -53.5 -117t-153.5 -41h-151q-14 0 -22 8t-8 22v50q0 14 8 22t22 8h115q53 0 78.5 14.5t25.5 45.5q0 60 -104 60h-73q-13 0 -20 6t-7 17
q0 3 2 11l33 113q-121 20 -214 91.5t-145 182t-52 244.5q0 150 64.5 269.5t178 187.5t256.5 68q110 0 204.5 -41.5t160.5 -118t94 -178.5q2 -8 2 -10q0 -10 -7.5 -16.5t-20.5 -6.5h-110q-25 0 -34 25q-34 97 -111 148t-178 51q-95 0 -168.5 -45.5t-114.5 -131t-41 -201.5
t41 -201.5t114.5 -131t168.5 -45.5q103 0 180 52t111 152q7 25 33 25h111q13 0 20.5 -6.5z" />
    <glyph glyph-name="egrave" unicode="&#xe8;" horiz-adv-x="1167" 
d="M1054.5 330.5q7.5 -6.5 7.5 -17.5q0 -6 -1 -9q-25 -94 -92.5 -167.5t-164.5 -114.5t-207 -41q-145 0 -260 68t-180.5 187.5t-65.5 269.5t64.5 269.5t179 187.5t257.5 68q137 0 246.5 -63t171.5 -177t62 -260v-28q0 -14 -8 -22t-22 -8h-778q6 -107 48.5 -186t115.5 -121.5
t169 -42.5q109 0 189.5 51.5t108.5 136.5q9 26 34 26h105q13 0 20.5 -6.5zM899 593q-7 88 -47.5 155.5t-107.5 104.5t-152 37q-129 0 -215 -79.5t-108 -217.5h630zM659 1150q0 -9 -6.5 -14.5t-19.5 -5.5h-76q-22 0 -37 18l-183 235q-8 11 -8 19t6.5 13t18.5 5h138
q24 0 36 -21l127 -233q4 -8 4 -16z" />
    <glyph glyph-name="eacute" unicode="&#xe9;" horiz-adv-x="1167" 
d="M1054.5 330.5q7.5 -6.5 7.5 -17.5q0 -6 -1 -9q-25 -94 -92.5 -167.5t-164.5 -114.5t-207 -41q-145 0 -260 68t-180.5 187.5t-65.5 269.5t64.5 269.5t179 187.5t257.5 68q137 0 246.5 -63t171.5 -177t62 -260v-28q0 -14 -8 -22t-22 -8h-778q6 -107 48.5 -186t115.5 -121.5
t169 -42.5q109 0 189.5 51.5t108.5 136.5q9 26 34 26h105q13 0 20.5 -6.5zM899 593q-7 88 -47.5 155.5t-107.5 104.5t-152 37q-129 0 -215 -79.5t-108 -217.5h630zM503 1135.5q-7 5.5 -7 14.5q0 8 4 16l127 233q12 21 36 21h138q12 0 18.5 -5t6.5 -13t-8 -19l-183 -235
q-15 -18 -37 -18h-76q-12 0 -19 5.5z" />
    <glyph glyph-name="ecircumflex" unicode="&#xea;" horiz-adv-x="1167" 
d="M1054.5 330.5q7.5 -6.5 7.5 -17.5q0 -6 -1 -9q-25 -94 -92.5 -167.5t-164.5 -114.5t-207 -41q-145 0 -260 68t-180.5 187.5t-65.5 269.5t64.5 269.5t179 187.5t257.5 68q137 0 246.5 -63t171.5 -177t62 -260v-28q0 -14 -8 -22t-22 -8h-778q6 -107 48.5 -186t115.5 -121.5
t169 -42.5q109 0 189.5 51.5t108.5 136.5q9 26 34 26h105q13 0 20.5 -6.5zM899 593q-7 88 -47.5 155.5t-107.5 104.5t-152 37q-129 0 -215 -79.5t-108 -217.5h630zM285 1135q-7 5 -7 13t8 19l185 235q15 18 37 18h146q22 0 37 -18l185 -235q8 -11 8 -19t-7 -13t-19 -5h-80
q-22 0 -37 15l-160 158l-160 -158q-15 -15 -37 -15h-80q-12 0 -19 5z" />
    <glyph glyph-name="edieresis" unicode="&#xeb;" horiz-adv-x="1167" 
d="M1054.5 330.5q7.5 -6.5 7.5 -17.5q0 -6 -1 -9q-25 -94 -92.5 -167.5t-164.5 -114.5t-207 -41q-145 0 -260 68t-180.5 187.5t-65.5 269.5t64.5 269.5t179 187.5t257.5 68q137 0 246.5 -63t171.5 -177t62 -260v-28q0 -14 -8 -22t-22 -8h-778q6 -107 48.5 -186t115.5 -121.5
t169 -42.5q109 0 189.5 51.5t108.5 136.5q9 26 34 26h105q13 0 20.5 -6.5zM899 593q-7 88 -47.5 155.5t-107.5 104.5t-152 37q-129 0 -215 -79.5t-108 -217.5h630zM290 1201q-8 8 -8 22v133q0 14 8 22t22 8h142q14 0 22 -8t8 -22v-133q0 -14 -8 -22t-22 -8h-142q-14 0 -22 8
zM686 1201q-8 8 -8 22v133q0 14 8 22t22 8h142q14 0 22 -8t8 -22v-133q0 -14 -8 -22t-22 -8h-142q-14 0 -22 8z" />
    <glyph glyph-name="igrave" unicode="&#xec;" horiz-adv-x="628" 
d="M313 8q-8 8 -8 22v841h-255q-14 0 -22 8t-8 22v81q0 14 8 22t22 8h393q14 0 22 -8t8 -22v-952q0 -14 -8 -22t-22 -8h-108q-14 0 -22 8zM467 1150q0 -9 -6.5 -14.5t-19.5 -5.5h-76q-22 0 -37 18l-183 235q-8 11 -8 19t6.5 13t18.5 5h138q24 0 36 -21l127 -233q4 -8 4 -16z
" />
    <glyph glyph-name="iacute" unicode="&#xed;" horiz-adv-x="628" 
d="M313 8q-8 8 -8 22v841h-255q-14 0 -22 8t-8 22v81q0 14 8 22t22 8h393q14 0 22 -8t8 -22v-952q0 -14 -8 -22t-22 -8h-108q-14 0 -22 8zM311 1135.5q-7 5.5 -7 14.5q0 8 4 16l127 233q12 21 36 21h138q12 0 18.5 -5t6.5 -13t-8 -19l-183 -235q-15 -18 -37 -18h-76
q-12 0 -19 5.5z" />
    <glyph glyph-name="icircumflex" unicode="&#xee;" horiz-adv-x="628" 
d="M313 8q-8 8 -8 22v841h-255q-14 0 -22 8t-8 22v81q0 14 8 22t22 8h393q14 0 22 -8t8 -22v-952q0 -14 -8 -22t-22 -8h-108q-14 0 -22 8zM93 1135q-7 5 -7 13t8 19l185 235q15 18 37 18h146q22 0 37 -18l185 -235q8 -11 8 -19t-7 -13t-19 -5h-80q-22 0 -37 15l-160 158
l-160 -158q-15 -15 -37 -15h-80q-12 0 -19 5z" />
    <glyph glyph-name="idieresis" unicode="&#xef;" horiz-adv-x="628" 
d="M313 8q-8 8 -8 22v841h-255q-14 0 -22 8t-8 22v81q0 14 8 22t22 8h393q14 0 22 -8t8 -22v-952q0 -14 -8 -22t-22 -8h-108q-14 0 -22 8zM98 1201q-8 8 -8 22v133q0 14 8 22t22 8h142q14 0 22 -8t8 -22v-133q0 -14 -8 -22t-22 -8h-142q-14 0 -22 8zM494 1201q-8 8 -8 22
v133q0 14 8 22t22 8h142q14 0 22 -8t8 -22v-133q0 -14 -8 -22t-22 -8h-142q-14 0 -22 8z" />
    <glyph glyph-name="eth" unicode="&#xf0;" horiz-adv-x="1190" 
d="M335 45.5q-115 64.5 -179 180.5t-64 263t61 262.5t168 180t242 64.5q80 0 144.5 -24t122.5 -73q-67 142 -214 283l-220 -97q-7 -3 -15 -3q-9 0 -14.5 6.5t-5.5 18.5v39q0 24 23 35l156 70q-70 59 -172 133q-14 10 -14 20q0 7 7 11.5t19 4.5h153q23 0 37 -13
q60 -46 111 -93l202 89q8 3 15 3q9 0 14.5 -6.5t5.5 -18.5v-39q0 -24 -23 -35l-141 -63q172 -174 256 -355.5t84 -362.5q0 -165 -63 -288.5t-176 -190t-259 -66.5t-261 64.5zM307 299.5q41 -81.5 116 -126.5t173 -45t172.5 45t115.5 126.5t41 189.5t-41 190t-115.5 127
t-172.5 45t-173 -45t-116 -127t-41 -190t41 -189.5z" />
    <glyph glyph-name="ntilde" unicode="&#xf1;" horiz-adv-x="1184" 
d="M163 1004q8 8 22 8h97q29 0 31 -29l8 -146q55 97 144.5 145.5t203.5 48.5q115 0 198.5 -47.5t128.5 -141.5t45 -228v-584q0 -14 -8 -22t-22 -8h-108q-14 0 -22 8t-8 22v555q0 146 -67 222t-188 76q-88 0 -154.5 -39.5t-103.5 -115.5t-37 -183v-515q0 -14 -8 -22t-22 -8
h-108q-14 0 -22 8t-8 22v952q0 14 8 22zM658 1174.5q-33 16.5 -76 48.5q-31 24 -52.5 35.5t-43.5 11.5q-27 0 -45 -19.5t-24 -55.5q-5 -29 -32 -29h-53q-30 0 -30 21q0 60 22 107t61 73.5t89 26.5q41 0 74 -16.5t76 -48.5q31 -24 52.5 -35.5t43.5 -11.5q27 0 45 19.5
t24 55.5q5 29 32 29h53q30 0 30 -21q0 -60 -22 -107t-61 -73.5t-89 -26.5q-41 0 -74 16.5z" />
    <glyph glyph-name="ograve" unicode="&#xf2;" horiz-adv-x="1192" 
d="M337 49q-115 68 -180.5 188t-65.5 269t65.5 269t180.5 188t259 68t259 -68t180.5 -188t65.5 -269t-65.5 -269t-180.5 -188t-259 -68t-259 68zM306.5 307.5q41.5 -85.5 116.5 -132.5t173 -47t173 47t116.5 132.5t41.5 198.5t-41.5 198.5t-116.5 132.5t-173 47t-173 -47
t-116.5 -132.5t-41.5 -198.5t41.5 -198.5zM674 1150q0 -9 -6.5 -14.5t-19.5 -5.5h-76q-22 0 -37 18l-183 235q-8 11 -8 19t6.5 13t18.5 5h138q24 0 36 -21l127 -233q4 -8 4 -16z" />
    <glyph glyph-name="oacute" unicode="&#xf3;" horiz-adv-x="1192" 
d="M337 49q-115 68 -180.5 188t-65.5 269t65.5 269t180.5 188t259 68t259 -68t180.5 -188t65.5 -269t-65.5 -269t-180.5 -188t-259 -68t-259 68zM306.5 307.5q41.5 -85.5 116.5 -132.5t173 -47t173 47t116.5 132.5t41.5 198.5t-41.5 198.5t-116.5 132.5t-173 47t-173 -47
t-116.5 -132.5t-41.5 -198.5t41.5 -198.5zM518 1135.5q-7 5.5 -7 14.5q0 8 4 16l127 233q12 21 36 21h138q12 0 18.5 -5t6.5 -13t-8 -19l-183 -235q-15 -18 -37 -18h-76q-12 0 -19 5.5z" />
    <glyph glyph-name="ocircumflex" unicode="&#xf4;" horiz-adv-x="1192" 
d="M337 49q-115 68 -180.5 188t-65.5 269t65.5 269t180.5 188t259 68t259 -68t180.5 -188t65.5 -269t-65.5 -269t-180.5 -188t-259 -68t-259 68zM306.5 307.5q41.5 -85.5 116.5 -132.5t173 -47t173 47t116.5 132.5t41.5 198.5t-41.5 198.5t-116.5 132.5t-173 47t-173 -47
t-116.5 -132.5t-41.5 -198.5t41.5 -198.5zM300 1135q-7 5 -7 13t8 19l185 235q15 18 37 18h146q22 0 37 -18l185 -235q8 -11 8 -19t-7 -13t-19 -5h-80q-22 0 -37 15l-160 158l-160 -158q-15 -15 -37 -15h-80q-12 0 -19 5z" />
    <glyph glyph-name="otilde" unicode="&#xf5;" horiz-adv-x="1192" 
d="M337 49q-115 68 -180.5 188t-65.5 269t65.5 269t180.5 188t259 68t259 -68t180.5 -188t65.5 -269t-65.5 -269t-180.5 -188t-259 -68t-259 68zM306.5 307.5q41.5 -85.5 116.5 -132.5t173 -47t173 47t116.5 132.5t41.5 198.5t-41.5 198.5t-116.5 132.5t-173 47t-173 -47
t-116.5 -132.5t-41.5 -198.5t41.5 -198.5zM651 1174.5q-33 16.5 -76 48.5q-31 24 -52.5 35.5t-43.5 11.5q-27 0 -45 -19.5t-24 -55.5q-5 -29 -32 -29h-53q-30 0 -30 21q0 60 22 107t61 73.5t89 26.5q41 0 74 -16.5t76 -48.5q31 -24 52.5 -35.5t43.5 -11.5q27 0 45 19.5
t24 55.5q5 29 32 29h53q30 0 30 -21q0 -60 -22 -107t-61 -73.5t-89 -26.5q-41 0 -74 16.5z" />
    <glyph glyph-name="odieresis" unicode="&#xf6;" horiz-adv-x="1192" 
d="M337 49q-115 68 -180.5 188t-65.5 269t65.5 269t180.5 188t259 68t259 -68t180.5 -188t65.5 -269t-65.5 -269t-180.5 -188t-259 -68t-259 68zM306.5 307.5q41.5 -85.5 116.5 -132.5t173 -47t173 47t116.5 132.5t41.5 198.5t-41.5 198.5t-116.5 132.5t-173 47t-173 -47
t-116.5 -132.5t-41.5 -198.5t41.5 -198.5zM305 1201q-8 8 -8 22v133q0 14 8 22t22 8h142q14 0 22 -8t8 -22v-133q0 -14 -8 -22t-22 -8h-142q-14 0 -22 8zM701 1201q-8 8 -8 22v133q0 14 8 22t22 8h142q14 0 22 -8t8 -22v-133q0 -14 -8 -22t-22 -8h-142q-14 0 -22 8z" />
    <glyph glyph-name="divide" unicode="&#xf7;" 
d="M527 962q-8 8 -8 22v123q0 14 8 22t22 8h122q14 0 22 -8t8 -22v-123q0 -14 -8 -22t-22 -8h-122q-14 0 -22 8zM154 606q-8 8 -8 22v84q0 14 8 22t22 8h868q14 0 22 -8t8 -22v-84q0 -14 -8 -22t-22 -8h-868q-14 0 -22 8zM527 211q-8 8 -8 22v123q0 14 8 22t22 8h122
q14 0 22 -8t8 -22v-123q0 -14 -8 -22t-22 -8h-122q-14 0 -22 8z" />
    <glyph glyph-name="oslash" unicode="&#xf8;" horiz-adv-x="1192" 
d="M347 44l-51 -73q-12 -19 -36 -19h-77q-12 0 -19 5t-7 13t7 18l87 126q-76 72 -118 173t-42 219q0 149 65.5 269t180.5 188t259 68q138 0 249 -63l51 73q12 19 36 19h77q12 0 19 -5t7 -13t-7 -18l-87 -126q76 -72 118 -173t42 -219q0 -149 -65.5 -269t-180.5 -188
t-259 -68q-138 0 -249 63zM285 359.5q21 -66.5 60 -115.5l413 601q-72 40 -162 40q-99 0 -174 -47t-116.5 -133t-41.5 -199q0 -80 21 -146.5zM596 127q99 0 174 47t116.5 133t41.5 199q0 80 -21 146.5t-60 115.5l-413 -601q72 -40 162 -40z" />
    <glyph glyph-name="ugrave" unicode="&#xf9;" horiz-adv-x="1184" 
d="M1021 8q-8 -8 -22 -8h-97q-29 0 -31 29l-8 145q-55 -96 -144.5 -144.5t-203.5 -48.5q-115 0 -198.5 47.5t-128.5 141.5t-45 228v584q0 14 8 22t22 8h108q14 0 22 -8t8 -22v-555q0 -146 67 -222t189 -76q88 0 154 39.5t103 115.5t37 183v515q0 14 8 22t22 8h108
q14 0 22 -8t8 -22v-952q0 -14 -8 -22zM666 1150q0 -9 -6.5 -14.5t-19.5 -5.5h-76q-22 0 -37 18l-183 235q-8 11 -8 19t6.5 13t18.5 5h138q24 0 36 -21l127 -233q4 -8 4 -16z" />
    <glyph glyph-name="uacute" unicode="&#xfa;" horiz-adv-x="1184" 
d="M1021 8q-8 -8 -22 -8h-97q-29 0 -31 29l-8 145q-55 -96 -144.5 -144.5t-203.5 -48.5q-115 0 -198.5 47.5t-128.5 141.5t-45 228v584q0 14 8 22t22 8h108q14 0 22 -8t8 -22v-555q0 -146 67 -222t189 -76q88 0 154 39.5t103 115.5t37 183v515q0 14 8 22t22 8h108
q14 0 22 -8t8 -22v-952q0 -14 -8 -22zM510 1135.5q-7 5.5 -7 14.5q0 8 4 16l127 233q12 21 36 21h138q12 0 18.5 -5t6.5 -13t-8 -19l-183 -235q-15 -18 -37 -18h-76q-12 0 -19 5.5z" />
    <glyph glyph-name="ucircumflex" unicode="&#xfb;" horiz-adv-x="1184" 
d="M1021 8q-8 -8 -22 -8h-97q-29 0 -31 29l-8 145q-55 -96 -144.5 -144.5t-203.5 -48.5q-115 0 -198.5 47.5t-128.5 141.5t-45 228v584q0 14 8 22t22 8h108q14 0 22 -8t8 -22v-555q0 -146 67 -222t189 -76q88 0 154 39.5t103 115.5t37 183v515q0 14 8 22t22 8h108
q14 0 22 -8t8 -22v-952q0 -14 -8 -22zM292 1135q-7 5 -7 13t8 19l185 235q15 18 37 18h146q22 0 37 -18l185 -235q8 -11 8 -19t-7 -13t-19 -5h-80q-22 0 -37 15l-160 158l-160 -158q-15 -15 -37 -15h-80q-12 0 -19 5z" />
    <glyph glyph-name="udieresis" unicode="&#xfc;" horiz-adv-x="1184" 
d="M1021 8q-8 -8 -22 -8h-97q-29 0 -31 29l-8 145q-55 -96 -144.5 -144.5t-203.5 -48.5q-115 0 -198.5 47.5t-128.5 141.5t-45 228v584q0 14 8 22t22 8h108q14 0 22 -8t8 -22v-555q0 -146 67 -222t189 -76q88 0 154 39.5t103 115.5t37 183v515q0 14 8 22t22 8h108
q14 0 22 -8t8 -22v-952q0 -14 -8 -22zM297 1201q-8 8 -8 22v133q0 14 8 22t22 8h142q14 0 22 -8t8 -22v-133q0 -14 -8 -22t-22 -8h-142q-14 0 -22 8zM693 1201q-8 8 -8 22v133q0 14 8 22t22 8h142q14 0 22 -8t8 -22v-133q0 -14 -8 -22t-22 -8h-142q-14 0 -22 8z" />
    <glyph glyph-name="yacute" unicode="&#xfd;" horiz-adv-x="1054" 
d="M322 -364q-7 6 -7 16q0 5 3 13l124 317l-394 995q-3 8 -3 14q0 21 26 21h115q26 0 34 -24l309 -802l310 802q8 24 34 24h109q26 0 26 -21q0 -6 -3 -14l-521 -1323q-9 -24 -34 -24h-108q-13 0 -20 6zM451 1135.5q-7 5.5 -7 14.5q0 8 4 16l127 233q12 21 36 21h138
q12 0 18.5 -5t6.5 -13t-8 -19l-183 -235q-15 -18 -37 -18h-76q-12 0 -19 5.5z" />
    <glyph glyph-name="thorn" unicode="&#xfe;" horiz-adv-x="1243" 
d="M163 1412q8 8 22 8h108q14 0 22 -8t8 -22v-544q57 89 148.5 137t204.5 48q136 0 244.5 -68t170 -187.5t61.5 -269.5t-61.5 -269.5t-170 -187.5t-244.5 -68q-117 0 -208 51t-145 145v-517q0 -14 -8 -22t-22 -8h-108q-14 0 -22 8t-8 22v1730q0 14 8 22zM361 306.5
q41 -86.5 115.5 -134t171.5 -47.5q98 0 172.5 47.5t115.5 134t41 199.5t-41 199.5t-115.5 134t-172.5 47.5q-97 0 -171.5 -47.5t-115.5 -134t-41 -199.5t41 -199.5z" />
    <glyph glyph-name="ydieresis" unicode="&#xff;" horiz-adv-x="1054" 
d="M322 -364q-7 6 -7 16q0 5 3 13l124 317l-394 995q-3 8 -3 14q0 21 26 21h115q26 0 34 -24l309 -802l310 802q8 24 34 24h109q26 0 26 -21q0 -6 -3 -14l-521 -1323q-9 -24 -34 -24h-108q-13 0 -20 6zM238 1201q-8 8 -8 22v133q0 14 8 22t22 8h142q14 0 22 -8t8 -22v-133
q0 -14 -8 -22t-22 -8h-142q-14 0 -22 8zM634 1201q-8 8 -8 22v133q0 14 8 22t22 8h142q14 0 22 -8t8 -22v-133q0 -14 -8 -22t-22 -8h-142q-14 0 -22 8z" />
    <glyph glyph-name="Amacron" unicode="&#x100;" horiz-adv-x="1279" 
d="M44 21q0 8 2 13l469 1322q8 24 35 24h179q27 0 35 -24l470 -1322l2 -12q0 -10 -7 -16t-20 -6h-121q-25 0 -34 24l-121 350h-593l-121 -350q-9 -24 -34 -24h-115q-26 0 -26 21zM881 523l-244 707l-245 -707h489zM352 1699q8 8 22 8h532q14 0 22 -8t8 -22v-65q0 -14 -8 -22
t-22 -8h-532q-14 0 -22 8t-8 22v65q0 14 8 22z" />
    <glyph glyph-name="amacron" unicode="&#x101;" horiz-adv-x="1139" 
d="M963.5 153.5q15.5 -17.5 52.5 -17.5h66q14 0 22 -8t8 -22v-76q0 -14 -8 -22t-22 -8h-114q-88 0 -132 44t-46 134q-61 -98 -156.5 -147.5t-213.5 -49.5q-102 0 -179 37t-119 103.5t-42 152.5q0 124 86 197t256 92l360 41v78q0 63 -30 110.5t-85 73t-130 25.5
q-97 0 -164 -44.5t-84 -119.5q-6 -27 -32 -27h-103q-15 0 -23 8.5t-5 23.5q14 88 69.5 156t145 105.5t201.5 37.5q122 0 214 -42t142 -119t50 -177v-481q0 -41 15.5 -58.5zM303 156q57 -45 152 -45q83 0 158.5 37t122.5 109.5t47 173.5v53l-321 -37q-112 -12 -164 -52
t-52 -114q0 -80 57 -125zM269 1331q8 8 22 8h532q14 0 22 -8t8 -22v-65q0 -14 -8 -22t-22 -8h-532q-14 0 -22 8t-8 22v65q0 14 8 22z" />
    <glyph glyph-name="Abreve" unicode="&#x102;" horiz-adv-x="1279" 
d="M44 21q0 8 2 13l469 1322q8 24 35 24h179q27 0 35 -24l470 -1322l2 -12q0 -10 -7 -16t-20 -6h-121q-25 0 -34 24l-121 350h-593l-121 -350q-9 -24 -34 -24h-115q-26 0 -26 21zM881 523l-244 707l-245 -707h489zM838 1560q74 75 81 209h-126q-5 -76 -45.5 -119t-107.5 -43
t-107.5 43t-45.5 119h-126q7 -134 81 -209t198 -75t198 75z" />
    <glyph glyph-name="abreve" unicode="&#x103;" horiz-adv-x="1139" 
d="M963.5 153.5q15.5 -17.5 52.5 -17.5h66q14 0 22 -8t8 -22v-76q0 -14 -8 -22t-22 -8h-114q-88 0 -132 44t-46 134q-61 -98 -156.5 -147.5t-213.5 -49.5q-102 0 -179 37t-119 103.5t-42 152.5q0 124 86 197t256 92l360 41v78q0 63 -30 110.5t-85 73t-130 25.5
q-97 0 -164 -44.5t-84 -119.5q-6 -27 -32 -27h-103q-15 0 -23 8.5t-5 23.5q14 88 69.5 156t145 105.5t201.5 37.5q122 0 214 -42t142 -119t50 -177v-481q0 -41 15.5 -58.5zM303 156q57 -45 152 -45q83 0 158.5 37t122.5 109.5t47 173.5v53l-321 -37q-112 -12 -164 -52
t-52 -114q0 -80 57 -125zM755 1192q74 75 81 209h-126q-5 -76 -45.5 -119t-107.5 -43t-107.5 43t-45.5 119h-126q7 -134 81 -209t198 -75t198 75z" />
    <glyph glyph-name="Aogonek" unicode="&#x104;" horiz-adv-x="1279" 
d="M44 21q0 8 2 13l469 1322q8 24 35 24h179q27 0 35 -24l473 -1330q2 -5 2 -13q0 -17 -18 -27q-158 -88 -158 -175q0 -78 112 -78h68q14 0 22 -8t8 -22v-62q0 -14 -8 -22t-22 -8h-113q-99 0 -155 46.5t-56 129.5q0 122 146 213h-3l-129 374h-593l-121 -350q-9 -24 -34 -24
h-115q-26 0 -26 21zM881 523l-244 707l-245 -707h489z" />
    <glyph glyph-name="aogonek" unicode="&#x105;" horiz-adv-x="1139" 
d="M963.5 153.5q15.5 -17.5 52.5 -17.5h66q14 0 22 -8t8 -22v-82q0 -23 -22 -36q-81 -45 -121 -88.5t-40 -88.5q0 -78 112 -78h68q14 0 22 -8t8 -22v-62q0 -14 -8 -22t-22 -8h-113q-99 0 -155 46.5t-56 129.5q0 62 37 115t112 100q-71 7 -106.5 51t-37.5 125
q-61 -98 -156.5 -147.5t-213.5 -49.5q-102 0 -179 37t-119 103.5t-42 152.5q0 124 86 197t256 92l360 41v78q0 63 -30 110.5t-85 73t-130 25.5q-97 0 -164 -44.5t-84 -119.5q-6 -27 -32 -27h-103q-15 0 -23 8.5t-5 23.5q14 88 69.5 156t145 105.5t201.5 37.5q122 0 214 -42
t142 -119t50 -177v-481q0 -41 15.5 -58.5zM303 156q57 -45 152 -45q83 0 158.5 37t122.5 109.5t47 173.5v53l-321 -37q-112 -12 -164 -52t-52 -114q0 -80 57 -125z" />
    <glyph glyph-name="Cacute" unicode="&#x106;" horiz-adv-x="1271" 
d="M1169.5 449.5q7.5 -8.5 4.5 -24.5q-26 -140 -94.5 -239.5t-172.5 -152t-236 -52.5q-172 0 -299.5 86.5t-196.5 247t-69 375.5t69 375.5t196.5 247t299.5 86.5q133 0 237 -52t172.5 -151t94.5 -238q2 -16 -5.5 -24.5t-22.5 -8.5h-118q-27 0 -33 28q-28 143 -111.5 217
t-213.5 74q-120 0 -206.5 -65.5t-132 -190t-45.5 -298.5t45.5 -298.5t132 -190t206.5 -65.5q130 0 214 75t111 219q6 28 33 28h118q15 0 22.5 -8.5zM579 1503.5q-7 5.5 -7 14.5q0 8 4 16l127 233q12 21 36 21h138q12 0 18.5 -5t6.5 -13t-8 -19l-183 -235q-15 -18 -37 -18
h-76q-12 0 -19 5.5z" />
    <glyph glyph-name="cacute" unicode="&#x107;" horiz-adv-x="1138" 
d="M1045.5 350.5q7.5 -6.5 7.5 -16.5q0 -2 -2 -10q-27 -104 -93.5 -181.5t-161.5 -119.5t-206 -42q-143 0 -256.5 68t-178 187.5t-64.5 269.5t64.5 269.5t178 187.5t256.5 68q110 0 204.5 -41.5t160.5 -118t94 -178.5q2 -8 2 -10q0 -10 -7.5 -16.5t-20.5 -6.5h-110
q-25 0 -34 25q-34 97 -111 148t-178 51q-95 0 -168.5 -45.5t-114.5 -131t-41 -201.5t41 -201.5t114.5 -131t168.5 -45.5q103 0 180 52t111 152q7 25 33 25h111q13 0 20.5 -6.5zM498 1135.5q-7 5.5 -7 14.5q0 8 4 16l127 233q12 21 36 21h138q12 0 18.5 -5t6.5 -13t-8 -19
l-183 -235q-15 -18 -37 -18h-76q-12 0 -19 5.5z" />
    <glyph glyph-name="Ccircumflex" unicode="&#x108;" horiz-adv-x="1271" 
d="M1169.5 449.5q7.5 -8.5 4.5 -24.5q-26 -140 -94.5 -239.5t-172.5 -152t-236 -52.5q-172 0 -299.5 86.5t-196.5 247t-69 375.5t69 375.5t196.5 247t299.5 86.5q133 0 237 -52t172.5 -151t94.5 -238q2 -16 -5.5 -24.5t-22.5 -8.5h-118q-27 0 -33 28q-28 143 -111.5 217
t-213.5 74q-120 0 -206.5 -65.5t-132 -190t-45.5 -298.5t45.5 -298.5t132 -190t206.5 -65.5q130 0 214 75t111 219q6 28 33 28h118q15 0 22.5 -8.5zM361 1503q-7 5 -7 13t8 19l185 235q15 18 37 18h146q22 0 37 -18l185 -235q8 -11 8 -19t-7 -13t-19 -5h-80q-22 0 -37 15
l-160 158l-160 -158q-15 -15 -37 -15h-80q-12 0 -19 5z" />
    <glyph glyph-name="ccircumflex" unicode="&#x109;" horiz-adv-x="1138" 
d="M1045.5 350.5q7.5 -6.5 7.5 -16.5q0 -2 -2 -10q-27 -104 -93.5 -181.5t-161.5 -119.5t-206 -42q-143 0 -256.5 68t-178 187.5t-64.5 269.5t64.5 269.5t178 187.5t256.5 68q110 0 204.5 -41.5t160.5 -118t94 -178.5q2 -8 2 -10q0 -10 -7.5 -16.5t-20.5 -6.5h-110
q-25 0 -34 25q-34 97 -111 148t-178 51q-95 0 -168.5 -45.5t-114.5 -131t-41 -201.5t41 -201.5t114.5 -131t168.5 -45.5q103 0 180 52t111 152q7 25 33 25h111q13 0 20.5 -6.5zM279 1135q-7 5 -7 13t8 19l185 235q15 18 37 18h146q22 0 37 -18l185 -235q8 -11 8 -19t-7 -13
t-19 -5h-80q-22 0 -37 15l-160 158l-160 -158q-15 -15 -37 -15h-80q-12 0 -19 5z" />
    <glyph glyph-name="Cdotaccent" unicode="&#x10a;" horiz-adv-x="1271" 
d="M1169.5 449.5q7.5 -8.5 4.5 -24.5q-26 -140 -94.5 -239.5t-172.5 -152t-236 -52.5q-172 0 -299.5 86.5t-196.5 247t-69 375.5t69 375.5t196.5 247t299.5 86.5q133 0 237 -52t172.5 -151t94.5 -238q2 -16 -5.5 -24.5t-22.5 -8.5h-118q-27 0 -33 28q-28 143 -111.5 217
t-213.5 74q-120 0 -206.5 -65.5t-132 -190t-45.5 -298.5t45.5 -298.5t132 -190t206.5 -65.5q130 0 214 75t111 219q6 28 33 28h118q15 0 22.5 -8.5zM564 1565q-8 8 -8 22v141q0 14 8 22t22 8h142q14 0 22 -8t8 -22v-141q0 -14 -8 -22t-22 -8h-142q-14 0 -22 8z" />
    <glyph glyph-name="cdotaccent" unicode="&#x10b;" horiz-adv-x="1138" 
d="M1045.5 350.5q7.5 -6.5 7.5 -16.5q0 -2 -2 -10q-27 -104 -93.5 -181.5t-161.5 -119.5t-206 -42q-143 0 -256.5 68t-178 187.5t-64.5 269.5t64.5 269.5t178 187.5t256.5 68q110 0 204.5 -41.5t160.5 -118t94 -178.5q2 -8 2 -10q0 -10 -7.5 -16.5t-20.5 -6.5h-110
q-25 0 -34 25q-34 97 -111 148t-178 51q-95 0 -168.5 -45.5t-114.5 -131t-41 -201.5t41 -201.5t114.5 -131t168.5 -45.5q103 0 180 52t111 152q7 25 33 25h111q13 0 20.5 -6.5zM482 1197q-8 8 -8 22v141q0 14 8 22t22 8h142q14 0 22 -8t8 -22v-141q0 -14 -8 -22t-22 -8h-142
q-14 0 -22 8z" />
    <glyph glyph-name="Ccaron" unicode="&#x10c;" horiz-adv-x="1271" 
d="M1169.5 449.5q7.5 -8.5 4.5 -24.5q-26 -140 -94.5 -239.5t-172.5 -152t-236 -52.5q-172 0 -299.5 86.5t-196.5 247t-69 375.5t69 375.5t196.5 247t299.5 86.5q133 0 237 -52t172.5 -151t94.5 -238q2 -16 -5.5 -24.5t-22.5 -8.5h-118q-27 0 -33 28q-28 143 -111.5 217
t-213.5 74q-120 0 -206.5 -65.5t-132 -190t-45.5 -298.5t45.5 -298.5t132 -190t206.5 -65.5q130 0 214 75t111 219q6 28 33 28h118q15 0 22.5 -8.5zM354 1770q0 8 7 13t19 5h80q22 0 37 -15l160 -158l160 158q15 15 37 15h80q12 0 19 -5t7 -13t-8 -19l-185 -235
q-15 -18 -37 -18h-146q-22 0 -37 18l-185 235q-8 11 -8 19z" />
    <glyph glyph-name="ccaron" unicode="&#x10d;" horiz-adv-x="1138" 
d="M1045.5 350.5q7.5 -6.5 7.5 -16.5q0 -2 -2 -10q-27 -104 -93.5 -181.5t-161.5 -119.5t-206 -42q-143 0 -256.5 68t-178 187.5t-64.5 269.5t64.5 269.5t178 187.5t256.5 68q110 0 204.5 -41.5t160.5 -118t94 -178.5q2 -8 2 -10q0 -10 -7.5 -16.5t-20.5 -6.5h-110
q-25 0 -34 25q-34 97 -111 148t-178 51q-95 0 -168.5 -45.5t-114.5 -131t-41 -201.5t41 -201.5t114.5 -131t168.5 -45.5q103 0 180 52t111 152q7 25 33 25h111q13 0 20.5 -6.5zM272 1402q0 8 7 13t19 5h80q22 0 37 -15l160 -158l160 158q15 15 37 15h80q12 0 19 -5t7 -13
t-8 -19l-185 -235q-15 -18 -37 -18h-146q-22 0 -37 18l-185 235q-8 11 -8 19z" />
    <glyph glyph-name="Dcaron" unicode="&#x10e;" horiz-adv-x="1314" 
d="M180 8q-8 8 -8 22v1320q0 14 8 22t22 8h351q202 0 350.5 -84t228.5 -240t80 -366t-80 -366t-228.5 -240t-350.5 -84h-351q-14 0 -22 8zM537 151q156 0 267 64t169 185t58 290t-58 290t-169 185t-267 64h-190v-1078h190zM337 1770q0 8 7 13t19 5h80q22 0 37 -15l160 -158
l160 158q15 15 37 15h80q12 0 19 -5t7 -13t-8 -19l-185 -235q-15 -18 -37 -18h-146q-22 0 -37 18l-185 235q-8 11 -8 19z" />
    <glyph glyph-name="dcaron" unicode="&#x10f;" horiz-adv-x="1270" 
d="M930 29l-8 151q-54 -95 -145.5 -147t-209.5 -52q-136 0 -244.5 68t-170 187.5t-61.5 269.5t61.5 269.5t170 187.5t244.5 68q113 0 204.5 -48t148.5 -137v544q0 14 8 22t22 8h108q14 0 22 -8t8 -22v-1360q0 -14 -8 -22t-22 -8h-97q-30 0 -31 29zM307 306.5
q41 -86.5 115.5 -134t172.5 -47.5q97 0 171.5 47.5t115.5 134t41 199.5t-41 199.5t-115.5 134t-171.5 47.5q-98 0 -172.5 -47.5t-115.5 -134t-41 -199.5t41 -199.5zM1413 1414q7 -6 7 -16q0 -4 -2 -12l-89 -271q-7 -25 -34 -25h-66q-15 0 -22 8t-5 24l39 270q4 28 32 28h120
q13 0 20 -6z" />
    <glyph glyph-name="Dcroat" unicode="&#x110;" horiz-adv-x="1373" 
d="M82 641q-8 8 -8 22v74q0 14 8 22t22 8h127v583q0 14 8 22t22 8h351q202 0 350.5 -84t228.5 -240t80 -366t-80 -366t-228.5 -240t-350.5 -84h-351q-14 0 -22 8t-8 22v603h-127q-14 0 -22 8zM596 151q156 0 267 64t169 185t58 290t-58 290t-169 185t-267 64h-190v-462h300
q14 0 22 -8t8 -22v-74q0 -14 -8 -22t-22 -8h-300v-482h190z" />
    <glyph glyph-name="dcroat" unicode="&#x111;" horiz-adv-x="1243" 
d="M322.5 48.5q-108.5 67.5 -170 187t-61.5 269.5q0 149 61.5 267.5t170 185.5t244.5 67q113 0 204.5 -47.5t148.5 -134.5v312h-333q-14 0 -22 8t-8 22v63q0 14 8 22t22 8h333v115q0 14 8 22t22 8h108q14 0 22 -8t8 -22v-115h127q14 0 22 -8t8 -22v-63q0 -14 -8 -22t-22 -8
h-127v-1125q0 -14 -8 -22t-22 -8h-97q-30 0 -31 29l-8 151q-54 -95 -145.5 -147t-209.5 -52q-136 0 -244.5 67.5zM307 306.5q41 -85.5 115.5 -132.5t172.5 -47q97 0 171.5 47t115.5 132.5t41 198.5t-41 199t-115.5 133t-171.5 47q-98 0 -172.5 -47t-115.5 -133t-41 -199
t41 -198.5z" />
    <glyph glyph-name="Emacron" unicode="&#x112;" horiz-adv-x="1184" 
d="M180 1372q8 8 22 8h836q14 0 22 -8t8 -22v-91q0 -14 -8 -22t-22 -8h-691v-454h622q14 0 22 -8t8 -22v-90q0 -14 -8 -22t-22 -8h-622v-474h708q14 0 22 -8t8 -22v-91q0 -14 -8 -22t-22 -8h-853q-14 0 -22 8t-8 22v1320q0 14 8 22zM332 1699q8 8 22 8h532q14 0 22 -8t8 -22
v-65q0 -14 -8 -22t-22 -8h-532q-14 0 -22 8t-8 22v65q0 14 8 22z" />
    <glyph glyph-name="emacron" unicode="&#x113;" horiz-adv-x="1167" 
d="M1054.5 330.5q7.5 -6.5 7.5 -17.5q0 -6 -1 -9q-25 -94 -92.5 -167.5t-164.5 -114.5t-207 -41q-145 0 -260 68t-180.5 187.5t-65.5 269.5t64.5 269.5t179 187.5t257.5 68q137 0 246.5 -63t171.5 -177t62 -260v-28q0 -14 -8 -22t-22 -8h-778q6 -107 48.5 -186t115.5 -121.5
t169 -42.5q109 0 189.5 51.5t108.5 136.5q9 26 34 26h105q13 0 20.5 -6.5zM899 593q-7 88 -47.5 155.5t-107.5 104.5t-152 37q-129 0 -215 -79.5t-108 -217.5h630zM293 1331q8 8 22 8h532q14 0 22 -8t8 -22v-65q0 -14 -8 -22t-22 -8h-532q-14 0 -22 8t-8 22v65q0 14 8 22z
" />
    <glyph glyph-name="Ebreve" unicode="&#x114;" horiz-adv-x="1184" 
d="M180 1372q8 8 22 8h836q14 0 22 -8t8 -22v-91q0 -14 -8 -22t-22 -8h-691v-454h622q14 0 22 -8t8 -22v-90q0 -14 -8 -22t-22 -8h-622v-474h708q14 0 22 -8t8 -22v-91q0 -14 -8 -22t-22 -8h-853q-14 0 -22 8t-8 22v1320q0 14 8 22zM818 1560q74 75 81 209h-126
q-5 -76 -45.5 -119t-107.5 -43t-107.5 43t-45.5 119h-126q7 -134 81 -209t198 -75t198 75z" />
    <glyph glyph-name="ebreve" unicode="&#x115;" horiz-adv-x="1167" 
d="M1054.5 330.5q7.5 -6.5 7.5 -17.5q0 -6 -1 -9q-25 -94 -92.5 -167.5t-164.5 -114.5t-207 -41q-145 0 -260 68t-180.5 187.5t-65.5 269.5t64.5 269.5t179 187.5t257.5 68q137 0 246.5 -63t171.5 -177t62 -260v-28q0 -14 -8 -22t-22 -8h-778q6 -107 48.5 -186t115.5 -121.5
t169 -42.5q109 0 189.5 51.5t108.5 136.5q9 26 34 26h105q13 0 20.5 -6.5zM899 593q-7 88 -47.5 155.5t-107.5 104.5t-152 37q-129 0 -215 -79.5t-108 -217.5h630zM779 1192q74 75 81 209h-126q-5 -76 -45.5 -119t-107.5 -43t-107.5 43t-45.5 119h-126q7 -134 81 -209
t198 -75t198 75z" />
    <glyph glyph-name="Edotaccent" unicode="&#x116;" horiz-adv-x="1184" 
d="M180 1372q8 8 22 8h836q14 0 22 -8t8 -22v-91q0 -14 -8 -22t-22 -8h-691v-454h622q14 0 22 -8t8 -22v-90q0 -14 -8 -22t-22 -8h-622v-474h708q14 0 22 -8t8 -22v-91q0 -14 -8 -22t-22 -8h-853q-14 0 -22 8t-8 22v1320q0 14 8 22zM527 1565q-8 8 -8 22v141q0 14 8 22t22 8
h142q14 0 22 -8t8 -22v-141q0 -14 -8 -22t-22 -8h-142q-14 0 -22 8z" />
    <glyph glyph-name="edotaccent" unicode="&#x117;" horiz-adv-x="1167" 
d="M1054.5 330.5q7.5 -6.5 7.5 -17.5q0 -6 -1 -9q-25 -94 -92.5 -167.5t-164.5 -114.5t-207 -41q-145 0 -260 68t-180.5 187.5t-65.5 269.5t64.5 269.5t179 187.5t257.5 68q137 0 246.5 -63t171.5 -177t62 -260v-28q0 -14 -8 -22t-22 -8h-778q6 -107 48.5 -186t115.5 -121.5
t169 -42.5q109 0 189.5 51.5t108.5 136.5q9 26 34 26h105q13 0 20.5 -6.5zM899 593q-7 88 -47.5 155.5t-107.5 104.5t-152 37q-129 0 -215 -79.5t-108 -217.5h630zM488 1197q-8 8 -8 22v141q0 14 8 22t22 8h142q14 0 22 -8t8 -22v-141q0 -14 -8 -22t-22 -8h-142q-14 0 -22 8
z" />
    <glyph glyph-name="Eogonek" unicode="&#x118;" horiz-adv-x="1184" 
d="M180 1372q8 8 22 8h836q14 0 22 -8t8 -22v-91q0 -14 -8 -22t-22 -8h-691v-454h622q14 0 22 -8t8 -22v-90q0 -14 -8 -22t-22 -8h-622v-474h708q14 0 22 -8t8 -22v-97q0 -23 -22 -36q-81 -45 -121 -88.5t-40 -88.5q0 -78 112 -78h68q14 0 22 -8t8 -22v-62q0 -14 -8 -22
t-22 -8h-113q-99 0 -155 46.5t-56 129.5q0 122 146 213h-702q-14 0 -22 8t-8 22v1320q0 14 8 22z" />
    <glyph glyph-name="eogonek" unicode="&#x119;" horiz-adv-x="1167" 
d="M337 49q-115 68 -180.5 187.5t-65.5 269.5t64.5 269.5t179 187.5t257.5 68q137 0 246.5 -63t171.5 -177t62 -260v-28q0 -14 -8 -22t-22 -8h-778q6 -107 48.5 -186t115.5 -121.5t169 -42.5q109 0 189.5 51.5t108.5 136.5q9 26 34 26h105q28 0 28 -24q0 -6 -1 -9
q-30 -115 -145 -225q-158 -154 -158 -257q0 -89 122 -89h65q14 0 22 -8t8 -22v-62q0 -14 -8 -22t-22 -8h-110q-103 0 -161.5 49t-58.5 135q0 105 99 200q-58 -14 -117 -14q-145 0 -260 68zM899 593q-7 88 -47.5 155.5t-107.5 104.5t-152 37q-129 0 -215 -79.5t-108 -217.5
h630z" />
    <glyph glyph-name="Ecaron" unicode="&#x11a;" horiz-adv-x="1184" 
d="M180 1372q8 8 22 8h836q14 0 22 -8t8 -22v-91q0 -14 -8 -22t-22 -8h-691v-454h622q14 0 22 -8t8 -22v-90q0 -14 -8 -22t-22 -8h-622v-474h708q14 0 22 -8t8 -22v-91q0 -14 -8 -22t-22 -8h-853q-14 0 -22 8t-8 22v1320q0 14 8 22zM317 1770q0 8 7 13t19 5h80q22 0 37 -15
l160 -158l160 158q15 15 37 15h80q12 0 19 -5t7 -13t-8 -19l-185 -235q-15 -18 -37 -18h-146q-22 0 -37 18l-185 235q-8 11 -8 19z" />
    <glyph glyph-name="ecaron" unicode="&#x11b;" horiz-adv-x="1167" 
d="M1054.5 330.5q7.5 -6.5 7.5 -17.5q0 -6 -1 -9q-25 -94 -92.5 -167.5t-164.5 -114.5t-207 -41q-145 0 -260 68t-180.5 187.5t-65.5 269.5t64.5 269.5t179 187.5t257.5 68q137 0 246.5 -63t171.5 -177t62 -260v-28q0 -14 -8 -22t-22 -8h-778q6 -107 48.5 -186t115.5 -121.5
t169 -42.5q109 0 189.5 51.5t108.5 136.5q9 26 34 26h105q13 0 20.5 -6.5zM899 593q-7 88 -47.5 155.5t-107.5 104.5t-152 37q-129 0 -215 -79.5t-108 -217.5h630zM278 1402q0 8 7 13t19 5h80q22 0 37 -15l160 -158l160 158q15 15 37 15h80q12 0 19 -5t7 -13t-8 -19
l-185 -235q-15 -18 -37 -18h-146q-22 0 -37 18l-185 235q-8 11 -8 19z" />
    <glyph glyph-name="Gcircumflex" unicode="&#x11c;" horiz-adv-x="1355" 
d="M368 67.5q-125 86.5 -193 246t-68 373.5q0 217 70 377.5t200 247.5t304 87q135 0 241.5 -52t176 -151t95.5 -238q2 -16 -5.5 -24.5t-22.5 -8.5h-117q-27 0 -33 28q-28 143 -114.5 217t-220.5 74q-123 0 -211.5 -65.5t-135 -190t-46.5 -298.5q0 -175 46.5 -299t136.5 -189
t218 -65q108 0 191 45.5t130 135.5t47 219v14h-300q-14 0 -22 8t-8 22v79q0 14 8 22t22 8h430q14 0 22 -8t8 -22v-630q0 -14 -8 -22t-22 -8h-89q-29 0 -30 29l-9 191q-54 -118 -156 -178.5t-242 -60.5q-168 0 -293 86.5zM375 1503q-7 5 -7 13t8 19l185 235q15 18 37 18h146
q22 0 37 -18l185 -235q8 -11 8 -19t-7 -13t-19 -5h-80q-22 0 -37 15l-160 158l-160 -158q-15 -15 -37 -15h-80q-12 0 -19 5z" />
    <glyph glyph-name="gcircumflex" unicode="&#x11d;" horiz-adv-x="1244" 
d="M370.5 -348q-104.5 41 -170 115t-80.5 171q-2 15 6 23t23 8h109q26 0 32 -27q15 -57 58.5 -99.5t109 -66t144.5 -23.5q153 0 236.5 89t83.5 252v118q-54 -93 -145.5 -142.5t-208.5 -49.5q-137 0 -245.5 65t-169.5 180t-61 258t61.5 259t170.5 182.5t245 66.5
q113 0 205 -48.5t150 -138.5l8 139q2 29 31 29h97q14 0 22 -8t8 -22v-885q0 -152 -58 -261.5t-167.5 -167t-262.5 -57.5q-127 0 -231.5 41zM307.5 335.5q41.5 -82.5 116.5 -129t173 -46.5q97 0 172 46.5t116 129t41 187.5q0 106 -41 188.5t-116 129t-172 46.5
q-98 0 -173 -46.5t-116.5 -129t-41.5 -188.5q0 -105 41.5 -187.5zM306 1135q-7 5 -7 13t8 19l185 235q15 18 37 18h146q22 0 37 -18l185 -235q8 -11 8 -19t-7 -13t-19 -5h-80q-22 0 -37 15l-160 158l-160 -158q-15 -15 -37 -15h-80q-12 0 -19 5z" />
    <glyph glyph-name="Gbreve" unicode="&#x11e;" horiz-adv-x="1355" 
d="M368 67.5q-125 86.5 -193 246t-68 373.5q0 217 70 377.5t200 247.5t304 87q135 0 241.5 -52t176 -151t95.5 -238q2 -16 -5.5 -24.5t-22.5 -8.5h-117q-27 0 -33 28q-28 143 -114.5 217t-220.5 74q-123 0 -211.5 -65.5t-135 -190t-46.5 -298.5q0 -175 46.5 -299t136.5 -189
t218 -65q108 0 191 45.5t130 135.5t47 219v14h-300q-14 0 -22 8t-8 22v79q0 14 8 22t22 8h430q14 0 22 -8t8 -22v-630q0 -14 -8 -22t-22 -8h-89q-29 0 -30 29l-9 191q-54 -118 -156 -178.5t-242 -60.5q-168 0 -293 86.5zM869 1560q74 75 81 209h-126q-5 -76 -45.5 -119
t-107.5 -43t-107.5 43t-45.5 119h-126q7 -134 81 -209t198 -75t198 75z" />
    <glyph glyph-name="gbreve" unicode="&#x11f;" horiz-adv-x="1244" 
d="M370.5 -348q-104.5 41 -170 115t-80.5 171q-2 15 6 23t23 8h109q26 0 32 -27q15 -57 58.5 -99.5t109 -66t144.5 -23.5q153 0 236.5 89t83.5 252v118q-54 -93 -145.5 -142.5t-208.5 -49.5q-137 0 -245.5 65t-169.5 180t-61 258t61.5 259t170.5 182.5t245 66.5
q113 0 205 -48.5t150 -138.5l8 139q2 29 31 29h97q14 0 22 -8t8 -22v-885q0 -152 -58 -261.5t-167.5 -167t-262.5 -57.5q-127 0 -231.5 41zM307.5 335.5q41.5 -82.5 116.5 -129t173 -46.5q97 0 172 46.5t116 129t41 187.5q0 106 -41 188.5t-116 129t-172 46.5
q-98 0 -173 -46.5t-116.5 -129t-41.5 -188.5q0 -105 41.5 -187.5zM800 1192q74 75 81 209h-126q-5 -76 -45.5 -119t-107.5 -43t-107.5 43t-45.5 119h-126q7 -134 81 -209t198 -75t198 75z" />
    <glyph glyph-name="Gdotaccent" unicode="&#x120;" horiz-adv-x="1355" 
d="M368 67.5q-125 86.5 -193 246t-68 373.5q0 217 70 377.5t200 247.5t304 87q135 0 241.5 -52t176 -151t95.5 -238q2 -16 -5.5 -24.5t-22.5 -8.5h-117q-27 0 -33 28q-28 143 -114.5 217t-220.5 74q-123 0 -211.5 -65.5t-135 -190t-46.5 -298.5q0 -175 46.5 -299t136.5 -189
t218 -65q108 0 191 45.5t130 135.5t47 219v14h-300q-14 0 -22 8t-8 22v79q0 14 8 22t22 8h430q14 0 22 -8t8 -22v-630q0 -14 -8 -22t-22 -8h-89q-29 0 -30 29l-9 191q-54 -118 -156 -178.5t-242 -60.5q-168 0 -293 86.5zM578 1565q-8 8 -8 22v141q0 14 8 22t22 8h142
q14 0 22 -8t8 -22v-141q0 -14 -8 -22t-22 -8h-142q-14 0 -22 8z" />
    <glyph glyph-name="gdotaccent" unicode="&#x121;" horiz-adv-x="1244" 
d="M370.5 -348q-104.5 41 -170 115t-80.5 171q-2 15 6 23t23 8h109q26 0 32 -27q15 -57 58.5 -99.5t109 -66t144.5 -23.5q153 0 236.5 89t83.5 252v118q-54 -93 -145.5 -142.5t-208.5 -49.5q-137 0 -245.5 65t-169.5 180t-61 258t61.5 259t170.5 182.5t245 66.5
q113 0 205 -48.5t150 -138.5l8 139q2 29 31 29h97q14 0 22 -8t8 -22v-885q0 -152 -58 -261.5t-167.5 -167t-262.5 -57.5q-127 0 -231.5 41zM307.5 335.5q41.5 -82.5 116.5 -129t173 -46.5q97 0 172 46.5t116 129t41 187.5q0 106 -41 188.5t-116 129t-172 46.5
q-98 0 -173 -46.5t-116.5 -129t-41.5 -188.5q0 -105 41.5 -187.5zM509 1197q-8 8 -8 22v141q0 14 8 22t22 8h142q14 0 22 -8t8 -22v-141q0 -14 -8 -22t-22 -8h-142q-14 0 -22 8z" />
    <glyph glyph-name="uni0122" unicode="&#x122;" horiz-adv-x="1355" 
d="M368 67.5q-125 86.5 -193 246t-68 373.5q0 217 70 377.5t200 247.5t304 87q135 0 241.5 -52t176 -151t95.5 -238q2 -16 -5.5 -24.5t-22.5 -8.5h-117q-27 0 -33 28q-28 143 -114.5 217t-220.5 74q-123 0 -211.5 -65.5t-135 -190t-46.5 -298.5q0 -175 46.5 -299t136.5 -189
t218 -65q108 0 191 45.5t130 135.5t47 219v14h-300q-14 0 -22 8t-8 22v79q0 14 8 22t22 8h430q14 0 22 -8t8 -22v-630q0 -14 -8 -22t-22 -8h-89q-29 0 -30 29l-9 191q-54 -118 -156 -178.5t-242 -60.5q-168 0 -293 86.5zM590 -310q-8 8 -8 22v121q0 14 8 22t22 8h142
q14 0 22 -8t8 -22v-131q0 -19 -12 -37l-110 -161q-12 -19 -36 -19h-41q-12 0 -19 5.5t-7 14.5q0 8 4 16l81 161h-32q-14 0 -22 8z" />
    <glyph glyph-name="uni0123" unicode="&#x123;" horiz-adv-x="1244" 
d="M370.5 -348q-104.5 41 -170 115t-80.5 171q-2 15 6 23t23 8h109q26 0 32 -27q15 -57 58.5 -99.5t109 -66t144.5 -23.5q153 0 236.5 89t83.5 252v118q-54 -93 -145.5 -142.5t-208.5 -49.5q-137 0 -245.5 65t-169.5 180t-61 258t61.5 259t170.5 182.5t245 66.5
q113 0 205 -48.5t150 -138.5l8 139q2 29 31 29h97q14 0 22 -8t8 -22v-885q0 -152 -58 -261.5t-167.5 -167t-262.5 -57.5q-127 0 -231.5 41zM307.5 335.5q41.5 -82.5 116.5 -129t173 -46.5q97 0 172 46.5t116 129t41 187.5q0 106 -41 188.5t-116 129t-172 46.5
q-98 0 -173 -46.5t-116.5 -129t-41.5 -188.5q0 -105 41.5 -187.5zM695 1362q8 -8 8 -22v-121q0 -14 -8 -22t-22 -8h-142q-14 0 -22 8t-8 22v131q0 19 12 37l110 161q12 19 36 19h41q13 0 19.5 -5.5t6.5 -14.5q0 -8 -4 -16l-81 -161h32q14 0 22 -8z" />
    <glyph glyph-name="Hcircumflex" unicode="&#x124;" horiz-adv-x="1379" 
d="M180 1372q8 8 22 8h116q14 0 22 -8t8 -22v-565h683v565q0 14 8 22t22 8h116q14 0 22 -8t8 -22v-1320q0 -14 -8 -22t-22 -8h-116q-14 0 -22 8t-8 22v602h-683v-602q0 -14 -8 -22t-22 -8h-116q-14 0 -22 8t-8 22v1320q0 14 8 22zM393 1503q-7 5 -7 13t8 19l185 235
q15 18 37 18h146q22 0 37 -18l185 -235q8 -11 8 -19t-7 -13t-19 -5h-80q-22 0 -37 15l-160 158l-160 -158q-15 -15 -37 -15h-80q-12 0 -19 5z" />
    <glyph glyph-name="hcircumflex" unicode="&#x125;" horiz-adv-x="1184" 
d="M163 8q-8 8 -8 22v1360q0 14 8 22t22 8h108q14 0 22 -8t8 -22v-550q55 96 144 143.5t202 47.5q115 0 198.5 -47.5t128.5 -141.5t45 -228v-584q0 -14 -8 -22t-22 -8h-108q-14 0 -22 8t-8 22v555q0 146 -67 222t-188 76q-88 0 -154.5 -39.5t-103.5 -115.5t-37 -183v-515
q0 -14 -8 -22t-22 -8h-108q-14 0 -22 8zM-41 1543q-7 5 -7 13t8 19l185 235q15 18 37 18h146q22 0 37 -18l185 -235q8 -11 8 -19t-7 -13t-19 -5h-80q-22 0 -37 15l-160 158l-160 -158q-15 -15 -37 -15h-80q-12 0 -19 5z" />
    <glyph glyph-name="Hbar" unicode="&#x126;" horiz-adv-x="1467" 
d="M67 1032q-8 8 -8 22v73q0 14 8 22t22 8h127v193q0 14 8 22t22 8h116q14 0 22 -8t8 -22v-193h683v193q0 14 8 22t22 8h116q14 0 22 -8t8 -22v-193h127q14 0 22 -8t8 -22v-73q0 -14 -8 -22t-22 -8h-127v-994q0 -14 -8 -22t-22 -8h-116q-14 0 -22 8t-8 22v602h-683v-602
q0 -14 -8 -22t-22 -8h-116q-14 0 -22 8t-8 22v994h-127q-14 0 -22 8zM1075 785v239h-683v-239h683z" />
    <glyph glyph-name="hbar" unicode="&#x127;" horiz-adv-x="1184" 
d="M163 8q-8 8 -8 22v1125h-127q-14 0 -22 8t-8 22v63q0 14 8 22t22 8h127v115q0 14 8 22t22 8h108q14 0 22 -8t8 -22v-115h333q14 0 22 -8t8 -22v-63q0 -14 -8 -22t-22 -8h-333v-318q55 95 143.5 141.5t202.5 46.5q115 0 198.5 -47t128.5 -140t45 -227v-581q0 -14 -8 -22
t-22 -8h-108q-14 0 -22 8t-8 22v553q0 146 -67 222t-188 76q-88 0 -154.5 -39.5t-103.5 -116t-37 -183.5v-512q0 -14 -8 -22t-22 -8h-108q-14 0 -22 8z" />
    <glyph glyph-name="Itilde" unicode="&#x128;" horiz-adv-x="1007" 
d="M913 1372q8 -8 8 -22v-91q0 -14 -8 -22t-22 -8h-300v-1078h300q14 0 22 -8t8 -22v-91q0 -14 -8 -22t-22 -8h-775q-14 0 -22 8t-8 22v91q0 14 8 22t22 8h299v1078h-299q-14 0 -22 8t-8 22v91q0 14 8 22t22 8h775q14 0 22 -8zM558 1542.5q-33 16.5 -76 48.5
q-31 24 -52.5 35.5t-43.5 11.5q-27 0 -45 -19.5t-24 -55.5q-5 -29 -32 -29h-53q-30 0 -30 21q0 60 22 107t61 73.5t89 26.5q41 0 74 -16.5t76 -48.5q31 -24 52.5 -35.5t43.5 -11.5q27 0 45 19.5t24 55.5q5 29 32 29h53q30 0 30 -21q0 -60 -22 -107t-61 -73.5t-89 -26.5
q-41 0 -74 16.5z" />
    <glyph glyph-name="itilde" unicode="&#x129;" horiz-adv-x="628" 
d="M313 8q-8 8 -8 22v841h-255q-14 0 -22 8t-8 22v81q0 14 8 22t22 8h393q14 0 22 -8t8 -22v-952q0 -14 -8 -22t-22 -8h-108q-14 0 -22 8zM444 1174.5q-33 16.5 -76 48.5q-31 24 -52.5 35.5t-43.5 11.5q-27 0 -45 -19.5t-24 -55.5q-5 -29 -32 -29h-53q-30 0 -30 21
q0 60 22 107t61 73.5t89 26.5q41 0 74 -16.5t76 -48.5q31 -24 52.5 -35.5t43.5 -11.5q27 0 45 19.5t24 55.5q5 29 32 29h53q30 0 30 -21q0 -60 -22 -107t-61 -73.5t-89 -26.5q-41 0 -74 16.5z" />
    <glyph glyph-name="Imacron" unicode="&#x12a;" horiz-adv-x="1007" 
d="M913 1372q8 -8 8 -22v-91q0 -14 -8 -22t-22 -8h-300v-1078h300q14 0 22 -8t8 -22v-91q0 -14 -8 -22t-22 -8h-775q-14 0 -22 8t-8 22v91q0 14 8 22t22 8h299v1078h-299q-14 0 -22 8t-8 22v91q0 14 8 22t22 8h775q14 0 22 -8zM215 1699q8 8 22 8h532q14 0 22 -8t8 -22v-65
q0 -14 -8 -22t-22 -8h-532q-14 0 -22 8t-8 22v65q0 14 8 22z" />
    <glyph glyph-name="imacron" unicode="&#x12b;" horiz-adv-x="628" 
d="M313 8q-8 8 -8 22v841h-255q-14 0 -22 8t-8 22v81q0 14 8 22t22 8h393q14 0 22 -8t8 -22v-952q0 -14 -8 -22t-22 -8h-108q-14 0 -22 8zM101 1331q8 8 22 8h532q14 0 22 -8t8 -22v-65q0 -14 -8 -22t-22 -8h-532q-14 0 -22 8t-8 22v65q0 14 8 22z" />
    <glyph glyph-name="Ibreve" unicode="&#x12c;" horiz-adv-x="1007" 
d="M913 1372q8 -8 8 -22v-91q0 -14 -8 -22t-22 -8h-300v-1078h300q14 0 22 -8t8 -22v-91q0 -14 -8 -22t-22 -8h-775q-14 0 -22 8t-8 22v91q0 14 8 22t22 8h299v1078h-299q-14 0 -22 8t-8 22v91q0 14 8 22t22 8h775q14 0 22 -8zM701 1560q74 75 81 209h-126
q-5 -76 -45.5 -119t-107.5 -43t-107.5 43t-45.5 119h-126q7 -134 81 -209t198 -75t198 75z" />
    <glyph glyph-name="ibreve" unicode="&#x12d;" horiz-adv-x="628" 
d="M313 8q-8 8 -8 22v841h-255q-14 0 -22 8t-8 22v81q0 14 8 22t22 8h393q14 0 22 -8t8 -22v-952q0 -14 -8 -22t-22 -8h-108q-14 0 -22 8zM587 1192q74 75 81 209h-126q-5 -76 -45.5 -119t-107.5 -43t-107.5 43t-45.5 119h-126q7 -134 81 -209t198 -75t198 75z" />
    <glyph glyph-name="Iogonek" unicode="&#x12e;" horiz-adv-x="1007" 
d="M913 1372q8 -8 8 -22v-91q0 -14 -8 -22t-22 -8h-300v-1078h300q14 0 22 -8t8 -22v-97q0 -23 -22 -36q-81 -45 -121 -88.5t-40 -88.5q0 -78 112 -78h68q14 0 22 -8t8 -22v-62q0 -14 -8 -22t-22 -8h-113q-99 0 -155 46.5t-56 129.5q0 122 146 213h-624q-14 0 -22 8t-8 22
v91q0 14 8 22t22 8h299v1078h-299q-14 0 -22 8t-8 22v91q0 14 8 22t22 8h775q14 0 22 -8z" />
    <glyph glyph-name="iogonek" unicode="&#x12f;" horiz-adv-x="628" 
d="M296 1197q-8 8 -8 22v141q0 14 8 22t22 8h142q14 0 22 -8t8 -22v-141q0 -14 -8 -22t-22 -8h-142q-14 0 -22 8zM28 879q-8 8 -8 22v81q0 14 8 22t22 8h393q14 0 22 -8t8 -22v-958q0 -23 -22 -36q-81 -45 -121 -88.5t-40 -88.5q0 -78 112 -78h68q14 0 22 -8t8 -22v-62
q0 -14 -8 -22t-22 -8h-113q-99 0 -155 46.5t-56 129.5q0 64 39.5 119t119.5 102v863h-255q-14 0 -22 8z" />
    <glyph glyph-name="Idotaccent" unicode="&#x130;" horiz-adv-x="1007" 
d="M913 1372q8 -8 8 -22v-91q0 -14 -8 -22t-22 -8h-300v-1078h300q14 0 22 -8t8 -22v-91q0 -14 -8 -22t-22 -8h-775q-14 0 -22 8t-8 22v91q0 14 8 22t22 8h299v1078h-299q-14 0 -22 8t-8 22v91q0 14 8 22t22 8h775q14 0 22 -8zM410 1565q-8 8 -8 22v141q0 14 8 22t22 8h142
q14 0 22 -8t8 -22v-141q0 -14 -8 -22t-22 -8h-142q-14 0 -22 8z" />
    <glyph glyph-name="dotlessi" unicode="&#x131;" horiz-adv-x="628" 
d="M313 8q-8 8 -8 22v841h-255q-14 0 -22 8t-8 22v81q0 14 8 22t22 8h393q14 0 22 -8t8 -22v-952q0 -14 -8 -22t-22 -8h-108q-14 0 -22 8z" />
    <glyph glyph-name="IJ" unicode="&#x132;" horiz-adv-x="1297" 
d="M180 8q-8 8 -8 22v93q0 14 8 22t22 8h567q100 0 143.5 45.5t43.5 149.5v1002q0 14 8 22t22 8h116q14 0 22 -8t8 -22v-1026q0 -163 -78 -243.5t-236 -80.5h-616q-14 0 -22 8zM180 378q-8 8 -8 22v950q0 14 8 22t22 8h116q14 0 22 -8t8 -22v-950q0 -14 -8 -22t-22 -8h-116
q-14 0 -22 8z" />
    <glyph glyph-name="ij" unicode="&#x133;" horiz-adv-x="1280" 
d="M313 8q-8 8 -8 22v841h-255q-14 0 -22 8t-8 22v81q0 14 8 22t22 8h393q14 0 22 -8t8 -22v-952q0 -14 -8 -22t-22 -8h-108q-14 0 -22 8zM296 1197q-8 8 -8 22v141q0 14 8 22t22 8h142q14 0 22 -8t8 -22v-141q0 -14 -8 -22t-22 -8h-142q-14 0 -22 8zM642 -362q-8 8 -8 22
v81q0 14 8 22t22 8h226q36 0 51.5 17.5t15.5 57.5v1025h-255q-14 0 -22 8t-8 22v81q0 14 8 22t22 8h393q14 0 22 -8t8 -22v-1160q0 -192 -186 -192h-275q-14 0 -22 8zM948 1197q-8 8 -8 22v141q0 14 8 22t22 8h142q14 0 22 -8t8 -22v-141q0 -14 -8 -22t-22 -8h-142
q-14 0 -22 8z" />
    <glyph glyph-name="Jcircumflex" unicode="&#x134;" horiz-adv-x="1043" 
d="M67 8q-8 8 -8 22v93q0 14 8 22t22 8h426q100 0 143.5 45.5t43.5 149.5v881h-455q-14 0 -22 8t-8 22v91q0 14 8 22t22 8h601q14 0 22 -8t8 -22v-1026q0 -163 -78 -243.5t-236 -80.5h-475q-14 0 -22 8zM251 1503q-7 5 -7 13t8 19l185 235q15 18 37 18h146q22 0 37 -18
l185 -235q8 -11 8 -19t-7 -13t-19 -5h-80q-22 0 -37 15l-160 158l-160 -158q-15 -15 -37 -15h-80q-12 0 -19 5z" />
    <glyph glyph-name="jcircumflex" unicode="&#x135;" horiz-adv-x="628" 
d="M-10 -362q-8 8 -8 22v81q0 14 8 22t22 8h226q36 0 51.5 17.5t15.5 57.5v1025h-255q-14 0 -22 8t-8 22v81q0 14 8 22t22 8h393q14 0 22 -8t8 -22v-1160q0 -192 -186 -192h-275q-14 0 -22 8zM93 1135q-7 5 -7 13t8 19l185 235q15 18 37 18h146q22 0 37 -18l185 -235
q8 -11 8 -19t-7 -13t-19 -5h-80q-22 0 -37 15l-160 158l-160 -158q-15 -15 -37 -15h-80q-12 0 -19 5z" />
    <glyph glyph-name="uni0136" unicode="&#x136;" horiz-adv-x="1243" 
d="M999 19l-428 613h-223v-602q0 -14 -8 -22t-22 -8h-116q-14 0 -22 8t-8 22v1320q0 14 8 22t22 8h116q14 0 22 -8t8 -22v-565h217l419 576q13 19 36 19h136q12 0 19 -5t7 -13t-8 -19l-458 -625l477 -682q7 -10 7 -19q0 -8 -6.5 -12.5t-18.5 -4.5h-140q-24 0 -36 19z
M575 -310q-8 8 -8 22v121q0 14 8 22t22 8h142q14 0 22 -8t8 -22v-131q0 -19 -12 -37l-110 -161q-12 -19 -36 -19h-41q-12 0 -19 5.5t-7 14.5q0 8 4 16l81 161h-32q-14 0 -22 8z" />
    <glyph glyph-name="uni0137" unicode="&#x137;" horiz-adv-x="1054" 
d="M163 8q-8 8 -8 22v1360q0 14 8 22t22 8h108q14 0 22 -8t8 -22v-793h166l317 397q14 18 37 18h124q12 0 19 -5t7 -13t-8 -19l-350 -435l369 -503q8 -11 8 -19t-7 -13t-19 -5h-129q-25 0 -37 18l-319 438h-178v-426q0 -14 -8 -22t-22 -8h-108q-14 0 -22 8zM475 -310
q-8 8 -8 22v121q0 14 8 22t22 8h142q14 0 22 -8t8 -22v-131q0 -19 -12 -37l-110 -161q-12 -19 -36 -19h-41q-12 0 -19 5.5t-7 14.5q0 8 4 16l81 161h-32q-14 0 -22 8z" />
    <glyph glyph-name="kgreenlandic" unicode="&#x138;" horiz-adv-x="1054" 
d="M820 18l-319 438h-178v-426q0 -14 -8 -22t-22 -8h-108q-14 0 -22 8t-8 22v952q0 14 8 22t22 8h108q14 0 22 -8t8 -22v-385h166l317 397q14 18 37 18h124q12 0 19 -5t7 -13t-8 -19l-350 -435l369 -503q8 -11 8 -19t-7 -13t-19 -5h-129q-25 0 -37 18z" />
    <glyph glyph-name="Lacute" unicode="&#x139;" horiz-adv-x="1121" 
d="M180 1372q8 8 22 8h116q14 0 22 -8t8 -22v-1197h701q14 0 22 -8t8 -22v-93q0 -14 -8 -22t-22 -8h-847q-14 0 -22 8t-8 22v1320q0 14 8 22zM198 1503.5q-7 5.5 -7 14.5q0 8 4 16l127 233q12 21 36 21h138q12 0 18.5 -5t6.5 -13t-8 -19l-183 -235q-15 -18 -37 -18h-76
q-12 0 -19 5.5z" />
    <glyph glyph-name="lacute" unicode="&#x13a;" horiz-adv-x="820" 
d="M486 1412q8 -8 8 -22v-1249h267q14 0 22 -8t8 -22v-81q0 -14 -8 -22t-22 -8h-702q-14 0 -22 8t-8 22v81q0 14 8 22t22 8h267v1138h-255q-14 0 -22 8t-8 22v81q0 14 8 22t22 8h393q14 0 22 -8zM332 1543.5q-7 5.5 -7 14.5q0 8 4 16l127 233q12 21 36 21h138q12 0 18.5 -5
t6.5 -13t-8 -19l-183 -235q-15 -18 -37 -18h-76q-12 0 -19 5.5z" />
    <glyph glyph-name="uni013B" unicode="&#x13b;" horiz-adv-x="1121" 
d="M180 1372q8 8 22 8h116q14 0 22 -8t8 -22v-1197h701q14 0 22 -8t8 -22v-93q0 -14 -8 -22t-22 -8h-847q-14 0 -22 8t-8 22v1320q0 14 8 22zM538 -310q-8 8 -8 22v121q0 14 8 22t22 8h142q14 0 22 -8t8 -22v-131q0 -19 -12 -37l-110 -161q-12 -19 -36 -19h-41
q-12 0 -19 5.5t-7 14.5q0 8 4 16l81 161h-32q-14 0 -22 8z" />
    <glyph glyph-name="uni013C" unicode="&#x13c;" horiz-adv-x="820" 
d="M486 1412q8 -8 8 -22v-1249h267q14 0 22 -8t8 -22v-81q0 -14 -8 -22t-22 -8h-702q-14 0 -22 8t-8 22v81q0 14 8 22t22 8h267v1138h-255q-14 0 -22 8t-8 22v81q0 14 8 22t22 8h393q14 0 22 -8zM317 -310q-8 8 -8 22v121q0 14 8 22t22 8h142q14 0 22 -8t8 -22v-131
q0 -19 -12 -37l-110 -161q-12 -19 -36 -19h-41q-12 0 -19 5.5t-7 14.5q0 8 4 16l81 161h-32q-14 0 -22 8z" />
    <glyph glyph-name="Lcaron" unicode="&#x13d;" horiz-adv-x="1123" 
d="M180 1372q8 8 22 8h116q14 0 22 -8t8 -22v-1197h701q14 0 22 -8t8 -22v-93q0 -14 -8 -22t-22 -8h-847q-14 0 -22 8t-8 22v1320q0 14 8 22zM846 1374q7 -6 7 -16q0 -4 -2 -12l-89 -271q-7 -25 -34 -25h-66q-15 0 -22 8t-5 24l39 270q4 28 32 28h120q13 0 20 -6z" />
    <glyph glyph-name="lcaron" unicode="&#x13e;" horiz-adv-x="820" 
d="M486 1412q8 -8 8 -22v-1249h267q14 0 22 -8t8 -22v-81q0 -14 -8 -22t-22 -8h-702q-14 0 -22 8t-8 22v81q0 14 8 22t22 8h267v1138h-255q-14 0 -22 8t-8 22v81q0 14 8 22t22 8h393q14 0 22 -8zM819 1414q7 -6 7 -16q0 -4 -2 -12l-89 -271q-7 -25 -34 -25h-66q-15 0 -22 8
t-5 24l39 270q4 28 32 28h120q13 0 20 -6z" />
    <glyph glyph-name="Ldot" unicode="&#x13f;" horiz-adv-x="1132" 
d="M180 1372q8 8 22 8h116q14 0 22 -8t8 -22v-1197h701q14 0 22 -8t8 -22v-93q0 -14 -8 -22t-22 -8h-847q-14 0 -22 8t-8 22v1320q0 14 8 22zM764 691q-8 8 -8 22v146q0 14 8 22t22 8h159q14 0 22 -8t8 -22v-146q0 -14 -8 -22t-22 -8h-159q-14 0 -22 8z" />
    <glyph glyph-name="ldot" unicode="&#x140;" horiz-adv-x="1019" 
d="M486 1412q8 -8 8 -22v-1249h267q14 0 22 -8t8 -22v-81q0 -14 -8 -22t-22 -8h-702q-14 0 -22 8t-8 22v81q0 14 8 22t22 8h267v1138h-255q-14 0 -22 8t-8 22v81q0 14 8 22t22 8h393q14 0 22 -8zM818 651q-8 8 -8 22v146q0 14 8 22t22 8h159q14 0 22 -8t8 -22v-146
q0 -14 -8 -22t-22 -8h-159q-14 0 -22 8z" />
    <glyph glyph-name="Lslash" unicode="&#x141;" horiz-adv-x="1189" 
d="M101 493q-20 0 -20 26v81q0 25 22 35l136 64v651q0 14 8 22t22 8h116q14 0 22 -8t8 -22v-568l381 178q8 4 15 4q20 0 20 -26v-81q0 -25 -22 -35l-394 -185v-484h701q14 0 22 -8t8 -22v-93q0 -14 -8 -22t-22 -8h-847q-14 0 -22 8t-8 22v524l-123 -57q-8 -4 -15 -4z" />
    <glyph glyph-name="lslash" unicode="&#x142;" horiz-adv-x="906" 
d="M138 533q-20 0 -20 26v73q0 26 22 36l228 107v504h-255q-14 0 -22 8t-8 22v81q0 14 8 22t22 8h393q14 0 22 -8t8 -22v-536l216 101q8 4 15 4q20 0 20 -26v-73q0 -25 -22 -35l-229 -108v-576h267q14 0 22 -8t8 -22v-81q0 -14 -8 -22t-22 -8h-702q-14 0 -22 8t-8 22v81
q0 14 8 22t22 8h267v497l-215 -101q-8 -4 -15 -4z" />
    <glyph glyph-name="Nacute" unicode="&#x143;" horiz-adv-x="1396" 
d="M180 8q-8 8 -8 22v1320q0 14 8 22t22 8h131q25 0 36 -20l683 -1094v1084q0 14 8 22t22 8h112q14 0 22 -8t8 -22v-1320q0 -14 -8 -22t-22 -8h-131q-25 0 -36 20l-683 1095v-1085q0 -14 -8 -22t-22 -8h-112q-14 0 -22 8zM620 1503.5q-7 5.5 -7 14.5q0 8 4 16l127 233
q12 21 36 21h138q12 0 18.5 -5t6.5 -13t-8 -19l-183 -235q-15 -18 -37 -18h-76q-12 0 -19 5.5z" />
    <glyph glyph-name="nacute" unicode="&#x144;" horiz-adv-x="1184" 
d="M163 1004q8 8 22 8h97q29 0 31 -29l8 -146q55 97 144.5 145.5t203.5 48.5q115 0 198.5 -47.5t128.5 -141.5t45 -228v-584q0 -14 -8 -22t-22 -8h-108q-14 0 -22 8t-8 22v555q0 146 -67 222t-188 76q-88 0 -154.5 -39.5t-103.5 -115.5t-37 -183v-515q0 -14 -8 -22t-22 -8
h-108q-14 0 -22 8t-8 22v952q0 14 8 22zM525 1135.5q-7 5.5 -7 14.5q0 8 4 16l127 233q12 21 36 21h138q12 0 18.5 -5t6.5 -13t-8 -19l-183 -235q-15 -18 -37 -18h-76q-12 0 -19 5.5z" />
    <glyph glyph-name="uni0145" unicode="&#x145;" horiz-adv-x="1396" 
d="M180 8q-8 8 -8 22v1320q0 14 8 22t22 8h131q25 0 36 -20l683 -1094v1084q0 14 8 22t22 8h112q14 0 22 -8t8 -22v-1320q0 -14 -8 -22t-22 -8h-131q-25 0 -36 20l-683 1095v-1085q0 -14 -8 -22t-22 -8h-112q-14 0 -22 8zM605 -310q-8 8 -8 22v121q0 14 8 22t22 8h142
q14 0 22 -8t8 -22v-131q0 -19 -12 -37l-110 -161q-12 -19 -36 -19h-41q-12 0 -19 5.5t-7 14.5q0 8 4 16l81 161h-32q-14 0 -22 8z" />
    <glyph glyph-name="uni0146" unicode="&#x146;" horiz-adv-x="1184" 
d="M163 1004q8 8 22 8h97q29 0 31 -29l8 -146q55 97 144.5 145.5t203.5 48.5q115 0 198.5 -47.5t128.5 -141.5t45 -228v-584q0 -14 -8 -22t-22 -8h-108q-14 0 -22 8t-8 22v555q0 146 -67 222t-188 76q-88 0 -154.5 -39.5t-103.5 -115.5t-37 -183v-515q0 -14 -8 -22t-22 -8
h-108q-14 0 -22 8t-8 22v952q0 14 8 22zM505 -310q-8 8 -8 22v121q0 14 8 22t22 8h142q14 0 22 -8t8 -22v-131q0 -19 -12 -37l-110 -161q-12 -19 -36 -19h-41q-12 0 -19 5.5t-7 14.5q0 8 4 16l81 161h-32q-14 0 -22 8z" />
    <glyph glyph-name="Ncaron" unicode="&#x147;" horiz-adv-x="1396" 
d="M180 8q-8 8 -8 22v1320q0 14 8 22t22 8h131q25 0 36 -20l683 -1094v1084q0 14 8 22t22 8h112q14 0 22 -8t8 -22v-1320q0 -14 -8 -22t-22 -8h-131q-25 0 -36 20l-683 1095v-1085q0 -14 -8 -22t-22 -8h-112q-14 0 -22 8zM395 1770q0 8 7 13t19 5h80q22 0 37 -15l160 -158
l160 158q15 15 37 15h80q12 0 19 -5t7 -13t-8 -19l-185 -235q-15 -18 -37 -18h-146q-22 0 -37 18l-185 235q-8 11 -8 19z" />
    <glyph glyph-name="ncaron" unicode="&#x148;" horiz-adv-x="1184" 
d="M163 1004q8 8 22 8h97q29 0 31 -29l8 -146q55 97 144.5 145.5t203.5 48.5q115 0 198.5 -47.5t128.5 -141.5t45 -228v-584q0 -14 -8 -22t-22 -8h-108q-14 0 -22 8t-8 22v555q0 146 -67 222t-188 76q-88 0 -154.5 -39.5t-103.5 -115.5t-37 -183v-515q0 -14 -8 -22t-22 -8
h-108q-14 0 -22 8t-8 22v952q0 14 8 22zM300 1402q0 8 7 13t19 5h80q22 0 37 -15l160 -158l160 158q15 15 37 15h80q12 0 19 -5t7 -13t-8 -19l-185 -235q-15 -18 -37 -18h-146q-22 0 -37 18l-185 235q-8 11 -8 19z" />
    <glyph glyph-name="Eng" unicode="&#x14a;" horiz-adv-x="1396" 
d="M180 8q-8 8 -8 22v1320q0 14 8 22t22 8h130q22 0 36 -20l684 -1077v1067q0 14 8 22t22 8h112q14 0 22 -8t8 -22v-1528q0 -192 -186 -192h-235q-14 0 -22 8t-8 22v85q0 14 8 22t22 8h186q34 0 48.5 16.5t14.5 54.5v154l-708 1113v-1083q0 -14 -8 -22t-22 -8h-112
q-14 0 -22 8z" />
    <glyph glyph-name="eng" unicode="&#x14b;" horiz-adv-x="1184" 
d="M638 -362q-8 8 -8 22v81q0 14 8 22t22 8h146q36 0 51.5 17.5t15.5 57.5v739q0 146 -67 222t-188 76q-88 0 -154.5 -39.5t-103.5 -115.5t-37 -183v-515q0 -14 -8 -22t-22 -8h-108q-14 0 -22 8t-8 22v952q0 14 8 22t22 8h97q29 0 31 -29l8 -146q55 97 144.5 145.5
t203.5 48.5q115 0 198.5 -47.5t128.5 -141.5t45 -228v-792q0 -192 -186 -192h-195q-14 0 -22 8z" />
    <glyph glyph-name="Omacron" unicode="&#x14c;" horiz-adv-x="1344" 
d="M372.5 67.5q-127.5 86.5 -196.5 247t-69 375.5t69 375.5t196.5 247t299.5 86.5t299.5 -86.5t196.5 -247t69 -375.5t-69 -375.5t-196.5 -247t-299.5 -86.5t-299.5 86.5zM333.5 391.5q45.5 -124.5 131.5 -190t207 -65.5t207 65.5t131.5 190t45.5 298.5t-45.5 298.5
t-131.5 190t-207 65.5t-207 -65.5t-131.5 -190t-45.5 -298.5t45.5 -298.5zM384 1699q8 8 22 8h532q14 0 22 -8t8 -22v-65q0 -14 -8 -22t-22 -8h-532q-14 0 -22 8t-8 22v65q0 14 8 22z" />
    <glyph glyph-name="omacron" unicode="&#x14d;" horiz-adv-x="1192" 
d="M337 49q-115 68 -180.5 188t-65.5 269t65.5 269t180.5 188t259 68t259 -68t180.5 -188t65.5 -269t-65.5 -269t-180.5 -188t-259 -68t-259 68zM306.5 307.5q41.5 -85.5 116.5 -132.5t173 -47t173 47t116.5 132.5t41.5 198.5t-41.5 198.5t-116.5 132.5t-173 47t-173 -47
t-116.5 -132.5t-41.5 -198.5t41.5 -198.5zM308 1331q8 8 22 8h532q14 0 22 -8t8 -22v-65q0 -14 -8 -22t-22 -8h-532q-14 0 -22 8t-8 22v65q0 14 8 22z" />
    <glyph glyph-name="Obreve" unicode="&#x14e;" horiz-adv-x="1344" 
d="M372.5 67.5q-127.5 86.5 -196.5 247t-69 375.5t69 375.5t196.5 247t299.5 86.5t299.5 -86.5t196.5 -247t69 -375.5t-69 -375.5t-196.5 -247t-299.5 -86.5t-299.5 86.5zM333.5 391.5q45.5 -124.5 131.5 -190t207 -65.5t207 65.5t131.5 190t45.5 298.5t-45.5 298.5
t-131.5 190t-207 65.5t-207 -65.5t-131.5 -190t-45.5 -298.5t45.5 -298.5zM870 1560q74 75 81 209h-126q-5 -76 -45.5 -119t-107.5 -43t-107.5 43t-45.5 119h-126q7 -134 81 -209t198 -75t198 75z" />
    <glyph glyph-name="obreve" unicode="&#x14f;" horiz-adv-x="1192" 
d="M337 49q-115 68 -180.5 188t-65.5 269t65.5 269t180.5 188t259 68t259 -68t180.5 -188t65.5 -269t-65.5 -269t-180.5 -188t-259 -68t-259 68zM306.5 307.5q41.5 -85.5 116.5 -132.5t173 -47t173 47t116.5 132.5t41.5 198.5t-41.5 198.5t-116.5 132.5t-173 47t-173 -47
t-116.5 -132.5t-41.5 -198.5t41.5 -198.5zM794 1192q74 75 81 209h-126q-5 -76 -45.5 -119t-107.5 -43t-107.5 43t-45.5 119h-126q7 -134 81 -209t198 -75t198 75z" />
    <glyph glyph-name="Ohungarumlaut" unicode="&#x150;" horiz-adv-x="1344" 
d="M372.5 67.5q-127.5 86.5 -196.5 247t-69 375.5t69 375.5t196.5 247t299.5 86.5t299.5 -86.5t196.5 -247t69 -375.5t-69 -375.5t-196.5 -247t-299.5 -86.5t-299.5 86.5zM333.5 391.5q45.5 -124.5 131.5 -190t207 -65.5t207 65.5t131.5 190t45.5 298.5t-45.5 298.5
t-131.5 190t-207 65.5t-207 -65.5t-131.5 -190t-45.5 -298.5t45.5 -298.5zM414 1518q0 7 4 15l113 233q10 22 35 22h127q12 0 19 -5t7 -13q0 -10 -7 -18l-165 -235q-12 -19 -36 -19h-71q-26 0 -26 20zM762 1518q0 7 4 15l113 233q10 22 35 22h127q12 0 19 -5t7 -13
q0 -10 -7 -18l-165 -235q-12 -19 -36 -19h-71q-26 0 -26 20z" />
    <glyph glyph-name="ohungarumlaut" unicode="&#x151;" horiz-adv-x="1192" 
d="M337 49q-115 68 -180.5 188t-65.5 269t65.5 269t180.5 188t259 68t259 -68t180.5 -188t65.5 -269t-65.5 -269t-180.5 -188t-259 -68t-259 68zM306.5 307.5q41.5 -85.5 116.5 -132.5t173 -47t173 47t116.5 132.5t41.5 198.5t-41.5 198.5t-116.5 132.5t-173 47t-173 -47
t-116.5 -132.5t-41.5 -198.5t41.5 -198.5zM338 1150q0 7 4 15l113 233q10 22 35 22h127q12 0 19 -5t7 -13q0 -10 -7 -18l-165 -235q-12 -19 -36 -19h-71q-26 0 -26 20zM686 1150q0 7 4 15l113 233q10 22 35 22h127q12 0 19 -5t7 -13q0 -10 -7 -18l-165 -235q-12 -19 -36 -19
h-71q-26 0 -26 20z" />
    <glyph glyph-name="OE" unicode="&#x152;" horiz-adv-x="1916" 
d="M412.5 84.5q-148.5 84.5 -229 241t-80.5 365.5t80.5 364.5t229 240t347.5 84.5h1011q14 0 22 -8t8 -22v-91q0 -14 -8 -22t-22 -8h-660v-454h592q14 0 22 -8t8 -22v-90q0 -14 -8 -22t-22 -8h-592v-474h677q14 0 22 -8t8 -22v-91q0 -14 -8 -22t-22 -8h-1028
q-199 0 -347.5 84.5zM343.5 399q58.5 -121 169.5 -184.5t267 -63.5h157v1078h-157q-156 0 -267 -63.5t-169.5 -185t-58.5 -291.5q0 -169 58.5 -290z" />
    <glyph glyph-name="oe" unicode="&#x153;" horiz-adv-x="1968" 
d="M333.5 49q-113.5 68 -178 187.5t-64.5 269.5t64.5 269.5t178 187.5t255.5 68q137 0 241.5 -64.5t163.5 -178.5q59 114 164.5 178.5t242.5 64.5q136 0 243.5 -63t168 -177t60.5 -260v-28q0 -14 -8 -22t-22 -8h-763q6 -107 48 -186t114 -121.5t166 -42.5q106 0 185 51.5
t105 136.5q9 26 34 26h103q13 0 20.5 -6.5t7.5 -17.5q0 -6 -1 -9q-25 -94 -91.5 -167.5t-162 -114.5t-203.5 -41q-138 0 -244.5 64.5t-166.5 178.5q-58 -114 -162.5 -178.5t-242.5 -64.5q-142 0 -255.5 68zM306 307.5q40 -85.5 113.5 -132.5t169.5 -47t169 47t113 132.5
t40 198.5t-40 198.5t-113 132.5t-169 47t-169.5 -47t-113.5 -132.5t-40 -198.5t40 -198.5zM1699 593q-7 89 -46 156t-104.5 104t-149.5 37q-126 0 -209.5 -79.5t-104.5 -217.5h614z" />
    <glyph glyph-name="Racute" unicode="&#x154;" horiz-adv-x="1249" 
d="M888 787q73 66 73 188t-73 187.5t-210 65.5h-330v-507h330q137 0 210 66zM180 8q-8 8 -8 22v1320q0 14 8 22t22 8h492q136 0 237 -49.5t156 -141.5t55 -214q0 -151 -84 -252t-232 -133l319 -554q6 -9 6 -17q0 -9 -7 -14t-19 -5h-136q-25 0 -36 21l-310 551h-295v-542
q0 -14 -8 -22t-22 -8h-116q-14 0 -22 8zM540 1503.5q-7 5.5 -7 14.5q0 8 4 16l127 233q12 21 36 21h138q12 0 18.5 -5t6.5 -13t-8 -19l-183 -235q-15 -18 -37 -18h-76q-12 0 -19 5.5z" />
    <glyph glyph-name="racute" unicode="&#x155;" horiz-adv-x="1001" 
d="M612 781.5q-91 -83.5 -91 -250.5v-390h265q14 0 22 -8t8 -22v-81q0 -14 -8 -22t-22 -8h-675q-14 0 -22 8t-8 22v81q0 14 8 22t22 8h242v730h-230q-14 0 -22 8t-8 22v81q0 14 8 22t22 8h357q29 0 31 -29l10 -175q52 114 143.5 168.5t210.5 54.5q32 0 56 -4q27 -4 27 -32
v-106q0 -15 -8.5 -22.5t-24.5 -5.5q-32 4 -69 4q-153 0 -244 -83.5zM471 1135.5q-7 5.5 -7 14.5q0 8 4 16l127 233q12 21 36 21h138q12 0 18.5 -5t6.5 -13t-8 -19l-183 -235q-15 -18 -37 -18h-76q-12 0 -19 5.5z" />
    <glyph glyph-name="uni0156" unicode="&#x156;" horiz-adv-x="1249" 
d="M888 787q73 66 73 188t-73 187.5t-210 65.5h-330v-507h330q137 0 210 66zM180 8q-8 8 -8 22v1320q0 14 8 22t22 8h492q136 0 237 -49.5t156 -141.5t55 -214q0 -151 -84 -252t-232 -133l319 -554q6 -9 6 -17q0 -9 -7 -14t-19 -5h-136q-25 0 -36 21l-310 551h-295v-542
q0 -14 -8 -22t-22 -8h-116q-14 0 -22 8zM560 -310q-8 8 -8 22v121q0 14 8 22t22 8h142q14 0 22 -8t8 -22v-131q0 -19 -12 -37l-110 -161q-12 -19 -36 -19h-41q-12 0 -19 5.5t-7 14.5q0 8 4 16l81 161h-32q-14 0 -22 8z" />
    <glyph glyph-name="uni0157" unicode="&#x157;" horiz-adv-x="1001" 
d="M612 781.5q-91 -83.5 -91 -250.5v-390h265q14 0 22 -8t8 -22v-81q0 -14 -8 -22t-22 -8h-675q-14 0 -22 8t-8 22v81q0 14 8 22t22 8h242v730h-230q-14 0 -22 8t-8 22v81q0 14 8 22t22 8h357q29 0 31 -29l10 -175q52 114 143.5 168.5t210.5 54.5q32 0 56 -4q27 -4 27 -32
v-106q0 -15 -8.5 -22.5t-24.5 -5.5q-32 4 -69 4q-153 0 -244 -83.5zM344 -310q-8 8 -8 22v121q0 14 8 22t22 8h142q14 0 22 -8t8 -22v-131q0 -19 -12 -37l-110 -161q-12 -19 -36 -19h-41q-12 0 -19 5.5t-7 14.5q0 8 4 16l81 161h-32q-14 0 -22 8z" />
    <glyph glyph-name="Rcaron" unicode="&#x158;" horiz-adv-x="1249" 
d="M888 787q73 66 73 188t-73 187.5t-210 65.5h-330v-507h330q137 0 210 66zM180 8q-8 8 -8 22v1320q0 14 8 22t22 8h492q136 0 237 -49.5t156 -141.5t55 -214q0 -151 -84 -252t-232 -133l319 -554q6 -9 6 -17q0 -9 -7 -14t-19 -5h-136q-25 0 -36 21l-310 551h-295v-542
q0 -14 -8 -22t-22 -8h-116q-14 0 -22 8zM314 1770q0 8 7 13t19 5h80q22 0 37 -15l160 -158l160 158q15 15 37 15h80q12 0 19 -5t7 -13t-8 -19l-185 -235q-15 -18 -37 -18h-146q-22 0 -37 18l-185 235q-8 11 -8 19z" />
    <glyph glyph-name="rcaron" unicode="&#x159;" horiz-adv-x="1001" 
d="M612 781.5q-91 -83.5 -91 -250.5v-390h265q14 0 22 -8t8 -22v-81q0 -14 -8 -22t-22 -8h-675q-14 0 -22 8t-8 22v81q0 14 8 22t22 8h242v730h-230q-14 0 -22 8t-8 22v81q0 14 8 22t22 8h357q29 0 31 -29l10 -175q52 114 143.5 168.5t210.5 54.5q32 0 56 -4q27 -4 27 -32
v-106q0 -15 -8.5 -22.5t-24.5 -5.5q-32 4 -69 4q-153 0 -244 -83.5zM246 1402q0 8 7 13t19 5h80q22 0 37 -15l160 -158l160 158q15 15 37 15h80q12 0 19 -5t7 -13t-8 -19l-185 -235q-15 -18 -37 -18h-146q-22 0 -37 18l-185 235q-8 11 -8 19z" />
    <glyph glyph-name="Sacute" unicode="&#x15a;" horiz-adv-x="1233" 
d="M368.5 31q-113.5 50 -183 143.5t-85.5 219.5q-1 16 6.5 24t22.5 8h112q27 0 32 -28q13 -83 60.5 -143.5t123 -93t170.5 -32.5q101 0 177 32.5t118 91.5t42 137q0 94 -69 148.5t-218 77.5l-169 26q-200 31 -296 117.5t-96 235.5q0 122 60 213.5t171 141t260 49.5
q141 0 249 -48t173 -138t80 -213q2 -15 -5.5 -23t-22.5 -8h-111q-28 0 -32 28q-21 120 -109 187t-226 67q-95 0 -166.5 -29.5t-111 -83t-39.5 -125.5q0 -85 62 -135t195 -71l173 -28q215 -33 317.5 -125t102.5 -249q0 -128 -62.5 -224t-177.5 -148t-269 -52
q-145 0 -258.5 50zM529 1503.5q-7 5.5 -7 14.5q0 8 4 16l127 233q12 21 36 21h138q12 0 18.5 -5t6.5 -13t-8 -19l-183 -235q-15 -18 -37 -18h-76q-12 0 -19 5.5z" />
    <glyph glyph-name="sacute" unicode="&#x15b;" horiz-adv-x="1044" 
d="M767 745q-20 73 -89 113.5t-171 40.5q-111 0 -178 -42t-67 -112q0 -64 48 -96t158 -45l137 -16q182 -22 266.5 -89.5t84.5 -193.5q0 -96 -53 -169.5t-149.5 -114t-222.5 -40.5q-119 0 -212.5 36.5t-153 105t-76.5 160.5q-2 15 5.5 23.5t22.5 8.5h100q27 0 33 -27
q20 -83 94 -129t187 -46q80 0 139.5 21.5t92.5 61.5t33 94q0 68 -51 103.5t-176 48.5l-134 15q-170 17 -251 83.5t-81 188.5q0 90 51 158.5t143.5 106t213.5 37.5q112 0 200.5 -34t144.5 -97t72 -149q2 -15 -5.5 -23.5t-22.5 -8.5h-100q-25 0 -33 26zM432 1135.5
q-7 5.5 -7 14.5q0 8 4 16l127 233q12 21 36 21h138q12 0 18.5 -5t6.5 -13t-8 -19l-183 -235q-15 -18 -37 -18h-76q-12 0 -19 5.5z" />
    <glyph glyph-name="Scircumflex" unicode="&#x15c;" horiz-adv-x="1233" 
d="M368.5 31q-113.5 50 -183 143.5t-85.5 219.5q-1 16 6.5 24t22.5 8h112q27 0 32 -28q13 -83 60.5 -143.5t123 -93t170.5 -32.5q101 0 177 32.5t118 91.5t42 137q0 94 -69 148.5t-218 77.5l-169 26q-200 31 -296 117.5t-96 235.5q0 122 60 213.5t171 141t260 49.5
q141 0 249 -48t173 -138t80 -213q2 -15 -5.5 -23t-22.5 -8h-111q-28 0 -32 28q-21 120 -109 187t-226 67q-95 0 -166.5 -29.5t-111 -83t-39.5 -125.5q0 -85 62 -135t195 -71l173 -28q215 -33 317.5 -125t102.5 -249q0 -128 -62.5 -224t-177.5 -148t-269 -52
q-145 0 -258.5 50zM311 1503q-7 5 -7 13t8 19l185 235q15 18 37 18h146q22 0 37 -18l185 -235q8 -11 8 -19t-7 -13t-19 -5h-80q-22 0 -37 15l-160 158l-160 -158q-15 -15 -37 -15h-80q-12 0 -19 5z" />
    <glyph glyph-name="scircumflex" unicode="&#x15d;" horiz-adv-x="1044" 
d="M767 745q-20 73 -89 113.5t-171 40.5q-111 0 -178 -42t-67 -112q0 -64 48 -96t158 -45l137 -16q182 -22 266.5 -89.5t84.5 -193.5q0 -96 -53 -169.5t-149.5 -114t-222.5 -40.5q-119 0 -212.5 36.5t-153 105t-76.5 160.5q-2 15 5.5 23.5t22.5 8.5h100q27 0 33 -27
q20 -83 94 -129t187 -46q80 0 139.5 21.5t92.5 61.5t33 94q0 68 -51 103.5t-176 48.5l-134 15q-170 17 -251 83.5t-81 188.5q0 90 51 158.5t143.5 106t213.5 37.5q112 0 200.5 -34t144.5 -97t72 -149q2 -15 -5.5 -23.5t-22.5 -8.5h-100q-25 0 -33 26zM214 1135q-7 5 -7 13
t8 19l185 235q15 18 37 18h146q22 0 37 -18l185 -235q8 -11 8 -19t-7 -13t-19 -5h-80q-22 0 -37 15l-160 158l-160 -158q-15 -15 -37 -15h-80q-12 0 -19 5z" />
    <glyph glyph-name="Scedilla" unicode="&#x15e;" horiz-adv-x="1233" 
d="M515 -153q-7 6 -7 17q0 3 2 11l32 111q-123 14 -217.5 67t-152.5 140t-72 201q-1 16 6.5 24t22.5 8h112q27 0 32 -28q13 -83 60.5 -143.5t123 -93t170.5 -32.5q101 0 177 32.5t118 91.5t42 137q0 94 -69 148.5t-218 77.5l-169 26q-200 31 -296 117.5t-96 235.5
q0 122 60 213.5t171 141t260 49.5q141 0 249 -48t173 -138t80 -213q2 -15 -5.5 -23t-22.5 -8h-111q-28 0 -32 28q-21 120 -109 187t-226 67q-95 0 -166.5 -29.5t-111 -83t-39.5 -125.5q0 -85 62 -135t195 -71l173 -28q215 -33 317.5 -125t102.5 -249q0 -124 -59.5 -218.5
t-169.5 -148t-257 -57.5l-16 -55h13q96 0 150 -41t54 -116q0 -76 -53.5 -117t-153.5 -41h-151q-14 0 -22 8t-8 22v50q0 14 8 22t22 8h115q53 0 78.5 14.5t25.5 45.5q0 60 -104 60h-73q-13 0 -20 6z" />
    <glyph glyph-name="scedilla" unicode="&#x15f;" horiz-adv-x="1044" 
d="M767 745q-20 73 -89 113.5t-171 40.5q-111 0 -178 -42t-67 -112q0 -64 48 -96t158 -45l137 -16q182 -22 266.5 -89.5t84.5 -193.5q0 -93 -50 -165t-141 -113.5t-210 -45.5l-17 -55h13q96 0 150 -41t54 -116q0 -76 -53.5 -117t-153.5 -41h-151q-14 0 -22 8t-8 22v50
q0 14 8 22t22 8h115q53 0 78.5 14.5t25.5 45.5q0 60 -104 60h-73q-13 0 -20 6t-7 17q0 3 2 11l32 111q-146 18 -240 96.5t-116 200.5q-3 15 4.5 23.5t22.5 8.5h100q27 0 33 -27q20 -83 94 -129t187 -46q80 0 139.5 21.5t92.5 61.5t33 94q0 68 -51 103.5t-176 48.5l-134 15
q-170 17 -251 83.5t-81 188.5q0 90 51 158.5t143.5 106t213.5 37.5q112 0 200.5 -34t144.5 -97t72 -149q2 -15 -5.5 -23.5t-22.5 -8.5h-100q-25 0 -33 26z" />
    <glyph glyph-name="Scaron" unicode="&#x160;" horiz-adv-x="1233" 
d="M368.5 31q-113.5 50 -183 143.5t-85.5 219.5q-1 16 6.5 24t22.5 8h112q27 0 32 -28q13 -83 60.5 -143.5t123 -93t170.5 -32.5q101 0 177 32.5t118 91.5t42 137q0 94 -69 148.5t-218 77.5l-169 26q-200 31 -296 117.5t-96 235.5q0 122 60 213.5t171 141t260 49.5
q141 0 249 -48t173 -138t80 -213q2 -15 -5.5 -23t-22.5 -8h-111q-28 0 -32 28q-21 120 -109 187t-226 67q-95 0 -166.5 -29.5t-111 -83t-39.5 -125.5q0 -85 62 -135t195 -71l173 -28q215 -33 317.5 -125t102.5 -249q0 -128 -62.5 -224t-177.5 -148t-269 -52
q-145 0 -258.5 50zM304 1770q0 8 7 13t19 5h80q22 0 37 -15l160 -158l160 158q15 15 37 15h80q12 0 19 -5t7 -13t-8 -19l-185 -235q-15 -18 -37 -18h-146q-22 0 -37 18l-185 235q-8 11 -8 19z" />
    <glyph glyph-name="scaron" unicode="&#x161;" horiz-adv-x="1044" 
d="M767 745q-20 73 -89 113.5t-171 40.5q-111 0 -178 -42t-67 -112q0 -64 48 -96t158 -45l137 -16q182 -22 266.5 -89.5t84.5 -193.5q0 -96 -53 -169.5t-149.5 -114t-222.5 -40.5q-119 0 -212.5 36.5t-153 105t-76.5 160.5q-2 15 5.5 23.5t22.5 8.5h100q27 0 33 -27
q20 -83 94 -129t187 -46q80 0 139.5 21.5t92.5 61.5t33 94q0 68 -51 103.5t-176 48.5l-134 15q-170 17 -251 83.5t-81 188.5q0 90 51 158.5t143.5 106t213.5 37.5q112 0 200.5 -34t144.5 -97t72 -149q2 -15 -5.5 -23.5t-22.5 -8.5h-100q-25 0 -33 26zM207 1402q0 8 7 13
t19 5h80q22 0 37 -15l160 -158l160 158q15 15 37 15h80q12 0 19 -5t7 -13t-8 -19l-185 -235q-15 -18 -37 -18h-146q-22 0 -37 18l-185 235q-8 11 -8 19z" />
    <glyph glyph-name="uni0162" unicode="&#x162;" horiz-adv-x="1137" 
d="M1086 1372q8 -8 8 -22v-93q0 -14 -8 -22t-22 -8h-408v-1197q0 -14 -6.5 -22t-17.5 -8h-24l-22 -74h13q96 0 150 -41t54 -116q0 -76 -53.5 -117t-153.5 -41h-151q-14 0 -22 8t-8 22v50q0 14 8 22t22 8h115q53 0 78.5 14.5t25.5 45.5q0 60 -104 60h-73q-13 0 -20 6t-7 17
q0 3 2 11l37 125q-9 0 -14 8t-5 22v1197h-407q-14 0 -22 8t-8 22v93q0 14 8 22t22 8h991q14 0 22 -8z" />
    <glyph glyph-name="uni0163" unicode="&#x163;" horiz-adv-x="844" 
d="M40 879q-8 8 -8 22v81q0 14 8 22t22 8h197v255q0 14 8 22t22 8h108q14 0 22 -8t8 -22v-255h317q14 0 22 -8t8 -22v-81q0 -14 -8 -22t-22 -8h-317v-655q0 -40 15.5 -57.5t51.5 -17.5h267q14 0 22 -8t8 -22v-81q0 -14 -8 -22t-22 -8h-308l-22 -74h13q96 0 150 -41t54 -116
q0 -76 -53.5 -117t-153.5 -41h-151q-14 0 -22 8t-8 22v50q0 14 8 22t22 8h115q53 0 78.5 14.5t25.5 45.5q0 60 -104 60h-73q-13 0 -20 6t-7 17q0 3 2 11l42 143q-90 40 -90 174v679h-197q-14 0 -22 8z" />
    <glyph glyph-name="Tcaron" unicode="&#x164;" horiz-adv-x="1137" 
d="M1086 1372q8 -8 8 -22v-93q0 -14 -8 -22t-22 -8h-408v-1197q0 -14 -8 -22t-22 -8h-116q-14 0 -22 8t-8 22v1197h-407q-14 0 -22 8t-8 22v93q0 14 8 22t22 8h991q14 0 22 -8zM265 1770q0 8 7 13t19 5h80q22 0 37 -15l160 -158l160 158q15 15 37 15h80q12 0 19 -5t7 -13
t-8 -19l-185 -235q-15 -18 -37 -18h-146q-22 0 -37 18l-185 235q-8 11 -8 19z" />
    <glyph glyph-name="tcaron" unicode="&#x165;" horiz-adv-x="844" 
d="M259 192v679h-197q-14 0 -22 8t-8 22v81q0 14 8 22t22 8h197v255q0 14 8 22t22 8h108q14 0 22 -8t8 -22v-255h317q14 0 22 -8t8 -22v-81q0 -14 -8 -22t-22 -8h-317v-655q0 -40 15.5 -57.5t51.5 -17.5h267q14 0 22 -8t8 -22v-81q0 -14 -8 -22t-22 -8h-316q-186 0 -186 192
zM745 1414q7 -6 7 -16q0 -4 -2 -12l-89 -271q-7 -25 -34 -25h-66q-15 0 -22 8t-5 24l39 270q4 28 32 28h120q13 0 20 -6z" />
    <glyph glyph-name="Tbar" unicode="&#x166;" horiz-adv-x="1162" 
d="M232 620q-8 8 -8 22v73q0 14 8 22t22 8h239v482h-407q-14 0 -22 8t-8 22v93q0 14 8 22t22 8h991q14 0 22 -8t8 -22v-93q0 -14 -8 -22t-22 -8h-408v-482h239q14 0 22 -8t8 -22v-73q0 -14 -8 -22t-22 -8h-239v-582q0 -14 -8 -22t-22 -8h-116q-14 0 -22 8t-8 22v582h-239
q-14 0 -22 8z" />
    <glyph glyph-name="tbar" unicode="&#x167;" horiz-adv-x="868" 
d="M69 496q-8 8 -8 22v63q0 14 8 22t22 8h188v260h-197q-14 0 -22 8t-8 22v81q0 14 8 22t22 8h197v255q0 14 8 22t22 8h108q14 0 22 -8t8 -22v-255h317q14 0 22 -8t8 -22v-81q0 -14 -8 -22t-22 -8h-317v-260h309q14 0 22 -8t8 -22v-63q0 -14 -8 -22t-22 -8h-309v-272
q0 -40 15.5 -57.5t51.5 -17.5h267q14 0 22 -8t8 -22v-81q0 -14 -8 -22t-22 -8h-316q-186 0 -186 192v296h-188q-14 0 -22 8z" />
    <glyph glyph-name="Utilde" unicode="&#x168;" horiz-adv-x="1362" 
d="M167 1372q8 8 22 8h116q14 0 22 -8t8 -22v-811q0 -191 91 -296.5t257 -105.5t257 105.5t91 296.5v811q0 14 8 22t22 8h112q14 0 22 -8t8 -22v-817q0 -169 -63.5 -293.5t-181.5 -191.5t-278 -67t-277.5 67t-180.5 191.5t-63 293.5v817q0 14 8 22zM738 1542.5
q-33 16.5 -76 48.5q-31 24 -52.5 35.5t-43.5 11.5q-27 0 -45 -19.5t-24 -55.5q-5 -29 -32 -29h-53q-30 0 -30 21q0 60 22 107t61 73.5t89 26.5q41 0 74 -16.5t76 -48.5q31 -24 52.5 -35.5t43.5 -11.5q27 0 45 19.5t24 55.5q5 29 32 29h53q30 0 30 -21q0 -60 -22 -107
t-61 -73.5t-89 -26.5q-41 0 -74 16.5z" />
    <glyph glyph-name="utilde" unicode="&#x169;" horiz-adv-x="1184" 
d="M1021 8q-8 -8 -22 -8h-97q-29 0 -31 29l-8 145q-55 -96 -144.5 -144.5t-203.5 -48.5q-115 0 -198.5 47.5t-128.5 141.5t-45 228v584q0 14 8 22t22 8h108q14 0 22 -8t8 -22v-555q0 -146 67 -222t189 -76q88 0 154 39.5t103 115.5t37 183v515q0 14 8 22t22 8h108
q14 0 22 -8t8 -22v-952q0 -14 -8 -22zM643 1174.5q-33 16.5 -76 48.5q-31 24 -52.5 35.5t-43.5 11.5q-27 0 -45 -19.5t-24 -55.5q-5 -29 -32 -29h-53q-30 0 -30 21q0 60 22 107t61 73.5t89 26.5q41 0 74 -16.5t76 -48.5q31 -24 52.5 -35.5t43.5 -11.5q27 0 45 19.5t24 55.5
q5 29 32 29h53q30 0 30 -21q0 -60 -22 -107t-61 -73.5t-89 -26.5q-41 0 -74 16.5z" />
    <glyph glyph-name="Umacron" unicode="&#x16a;" horiz-adv-x="1362" 
d="M167 1372q8 8 22 8h116q14 0 22 -8t8 -22v-811q0 -191 91 -296.5t257 -105.5t257 105.5t91 296.5v811q0 14 8 22t22 8h112q14 0 22 -8t8 -22v-817q0 -169 -63.5 -293.5t-181.5 -191.5t-278 -67t-277.5 67t-180.5 191.5t-63 293.5v817q0 14 8 22zM395 1699q8 8 22 8h532
q14 0 22 -8t8 -22v-65q0 -14 -8 -22t-22 -8h-532q-14 0 -22 8t-8 22v65q0 14 8 22z" />
    <glyph glyph-name="umacron" unicode="&#x16b;" horiz-adv-x="1184" 
d="M1021 8q-8 -8 -22 -8h-97q-29 0 -31 29l-8 145q-55 -96 -144.5 -144.5t-203.5 -48.5q-115 0 -198.5 47.5t-128.5 141.5t-45 228v584q0 14 8 22t22 8h108q14 0 22 -8t8 -22v-555q0 -146 67 -222t189 -76q88 0 154 39.5t103 115.5t37 183v515q0 14 8 22t22 8h108
q14 0 22 -8t8 -22v-952q0 -14 -8 -22zM300 1331q8 8 22 8h532q14 0 22 -8t8 -22v-65q0 -14 -8 -22t-22 -8h-532q-14 0 -22 8t-8 22v65q0 14 8 22z" />
    <glyph glyph-name="Ubreve" unicode="&#x16c;" horiz-adv-x="1362" 
d="M167 1372q8 8 22 8h116q14 0 22 -8t8 -22v-811q0 -191 91 -296.5t257 -105.5t257 105.5t91 296.5v811q0 14 8 22t22 8h112q14 0 22 -8t8 -22v-817q0 -169 -63.5 -293.5t-181.5 -191.5t-278 -67t-277.5 67t-180.5 191.5t-63 293.5v817q0 14 8 22zM881 1560q74 75 81 209
h-126q-5 -76 -45.5 -119t-107.5 -43t-107.5 43t-45.5 119h-126q7 -134 81 -209t198 -75t198 75z" />
    <glyph glyph-name="ubreve" unicode="&#x16d;" horiz-adv-x="1184" 
d="M1021 8q-8 -8 -22 -8h-97q-29 0 -31 29l-8 145q-55 -96 -144.5 -144.5t-203.5 -48.5q-115 0 -198.5 47.5t-128.5 141.5t-45 228v584q0 14 8 22t22 8h108q14 0 22 -8t8 -22v-555q0 -146 67 -222t189 -76q88 0 154 39.5t103 115.5t37 183v515q0 14 8 22t22 8h108
q14 0 22 -8t8 -22v-952q0 -14 -8 -22zM786 1192q74 75 81 209h-126q-5 -76 -45.5 -119t-107.5 -43t-107.5 43t-45.5 119h-126q7 -134 81 -209t198 -75t198 75z" />
    <glyph glyph-name="Uring" unicode="&#x16e;" horiz-adv-x="1362" 
d="M167 1372q8 8 22 8h116q14 0 22 -8t8 -22v-811q0 -191 91 -296.5t257 -105.5t257 105.5t91 296.5v811q0 14 8 22t22 8h112q14 0 22 -8t8 -22v-817q0 -169 -63.5 -293.5t-181.5 -191.5t-278 -67t-277.5 67t-180.5 191.5t-63 293.5v817q0 14 8 22zM570.5 1505
q-50.5 28 -79.5 77t-29 109q0 59 29 108t79.5 77.5t112.5 28.5t112.5 -28.5t79.5 -77.5t29 -108q0 -60 -29 -109t-79.5 -77t-112.5 -28t-112.5 28zM599.5 1607.5q34.5 -34.5 83.5 -34.5q50 0 84 34.5t34 83.5q0 50 -34 84t-84 34q-49 0 -83.5 -34t-34.5 -84
q0 -49 34.5 -83.5z" />
    <glyph glyph-name="uring" unicode="&#x16f;" horiz-adv-x="1184" 
d="M1021 8q-8 -8 -22 -8h-97q-29 0 -31 29l-8 145q-55 -96 -144.5 -144.5t-203.5 -48.5q-115 0 -198.5 47.5t-128.5 141.5t-45 228v584q0 14 8 22t22 8h108q14 0 22 -8t8 -22v-555q0 -146 67 -222t189 -76q88 0 154 39.5t103 115.5t37 183v515q0 14 8 22t22 8h108
q14 0 22 -8t8 -22v-952q0 -14 -8 -22zM475.5 1137q-50.5 28 -79.5 77t-29 109q0 59 29 108t79.5 77.5t112.5 28.5t112.5 -28.5t79.5 -77.5t29 -108q0 -60 -29 -109t-79.5 -77t-112.5 -28t-112.5 28zM504.5 1239.5q34.5 -34.5 83.5 -34.5q50 0 84 34.5t34 83.5q0 50 -34 84
t-84 34q-49 0 -83.5 -34t-34.5 -84q0 -49 34.5 -83.5z" />
    <glyph glyph-name="Uhungarumlaut" unicode="&#x170;" horiz-adv-x="1362" 
d="M167 1372q8 8 22 8h116q14 0 22 -8t8 -22v-811q0 -191 91 -296.5t257 -105.5t257 105.5t91 296.5v811q0 14 8 22t22 8h112q14 0 22 -8t8 -22v-817q0 -169 -63.5 -293.5t-181.5 -191.5t-278 -67t-277.5 67t-180.5 191.5t-63 293.5v817q0 14 8 22zM425 1518q0 7 4 15
l113 233q10 22 35 22h127q12 0 19 -5t7 -13q0 -10 -7 -18l-165 -235q-12 -19 -36 -19h-71q-26 0 -26 20zM773 1518q0 7 4 15l113 233q10 22 35 22h127q12 0 19 -5t7 -13q0 -10 -7 -18l-165 -235q-12 -19 -36 -19h-71q-26 0 -26 20z" />
    <glyph glyph-name="uhungarumlaut" unicode="&#x171;" horiz-adv-x="1184" 
d="M1021 8q-8 -8 -22 -8h-97q-29 0 -31 29l-8 145q-55 -96 -144.5 -144.5t-203.5 -48.5q-115 0 -198.5 47.5t-128.5 141.5t-45 228v584q0 14 8 22t22 8h108q14 0 22 -8t8 -22v-555q0 -146 67 -222t189 -76q88 0 154 39.5t103 115.5t37 183v515q0 14 8 22t22 8h108
q14 0 22 -8t8 -22v-952q0 -14 -8 -22zM330 1150q0 7 4 15l113 233q10 22 35 22h127q12 0 19 -5t7 -13q0 -10 -7 -18l-165 -235q-12 -19 -36 -19h-71q-26 0 -26 20zM678 1150q0 7 4 15l113 233q10 22 35 22h127q12 0 19 -5t7 -13q0 -10 -7 -18l-165 -235q-12 -19 -36 -19h-71
q-26 0 -26 20z" />
    <glyph glyph-name="Uogonek" unicode="&#x172;" horiz-adv-x="1362" 
d="M587 -342.5q-56 46.5 -56 129.5q0 111 117 195q-151 7 -261 75.5t-169 190.5t-59 285v817q0 14 8 22t22 8h116q14 0 22 -8t8 -22v-811q0 -191 91 -296.5t257 -105.5t257 105.5t91 296.5v811q0 14 8 22t22 8h112q14 0 22 -8t8 -22v-817q0 -194 -83.5 -329t-234.5 -190
q-100 -40 -155 -93.5t-55 -109.5q0 -78 112 -78h67q14 0 22 -8t8 -22v-62q0 -14 -8 -22t-22 -8h-112q-99 0 -155 46.5z" />
    <glyph glyph-name="uogonek" unicode="&#x173;" horiz-adv-x="1184" 
d="M1007 -12q-81 -45 -121 -88.5t-40 -88.5q0 -78 112 -78h68q14 0 22 -8t8 -22v-62q0 -14 -8 -22t-22 -8h-113q-99 0 -155 46.5t-56 129.5q0 67 42 122.5t128 104.5l-9 160q-55 -96 -144.5 -144.5t-203.5 -48.5q-115 0 -198.5 47.5t-128.5 141.5t-45 228v584q0 14 8 22
t22 8h108q14 0 22 -8t8 -22v-555q0 -146 67 -222t189 -76q88 0 154 39.5t103 115.5t37 183v515q0 14 8 22t22 8h108q14 0 22 -8t8 -22v-958q0 -23 -22 -36z" />
    <glyph glyph-name="Wcircumflex" unicode="&#x174;" horiz-adv-x="1577" 
d="M87 1355q0 12 7.5 18.5t20.5 6.5h113q29 0 33 -27l202 -1156l250 980q6 26 34 26h90q28 0 34 -26l249 -976l203 1152q4 27 33 27h105q15 0 22.5 -8.5t4.5 -24.5l-245 -1320q-4 -27 -32 -27h-160q-28 0 -34 26l-229 894l-229 -894q-6 -26 -34 -26h-160q-27 0 -32 27
l-245 1320q-1 3 -1 8zM496 1503q-7 5 -7 13t8 19l185 235q15 18 37 18h146q22 0 37 -18l185 -235q8 -11 8 -19t-7 -13t-19 -5h-80q-22 0 -37 15l-160 158l-160 -158q-15 -15 -37 -15h-80q-12 0 -19 5z" />
    <glyph glyph-name="wcircumflex" unicode="&#x175;" horiz-adv-x="1503" 
d="M71 989q0 11 7 17t20 6h105q27 0 33 -26l199 -806l243 735q8 25 34 25h86q26 0 34 -25l243 -733l199 804q6 26 33 26h98q13 0 20 -6t7 -17q0 -7 -1 -10l-241 -953q-6 -26 -34 -26h-141q-26 0 -34 24l-229 677l-230 -677q-9 -24 -34 -24h-141q-28 0 -34 26l-241 953
q-1 3 -1 10zM459 1135q-7 5 -7 13t8 19l185 235q15 18 37 18h146q22 0 37 -18l185 -235q8 -11 8 -19t-7 -13t-19 -5h-80q-22 0 -37 15l-160 158l-160 -158q-15 -15 -37 -15h-80q-12 0 -19 5z" />
    <glyph glyph-name="Ycircumflex" unicode="&#x176;" horiz-adv-x="1203" 
d="M43 1361q0 9 7 14t19 5h118q25 0 36 -20l381 -648l381 648q11 20 36 20h111q12 0 19 -5t7 -14t-5 -17l-464 -786v-528q0 -14 -8 -22t-22 -8h-116q-14 0 -22 8t-8 22v529l-465 785q-5 8 -5 17zM307 1503q-7 5 -7 13t8 19l185 235q15 18 37 18h146q22 0 37 -18l185 -235
q8 -11 8 -19t-7 -13t-19 -5h-80q-22 0 -37 15l-160 158l-160 -158q-15 -15 -37 -15h-80q-12 0 -19 5z" />
    <glyph glyph-name="ycircumflex" unicode="&#x177;" horiz-adv-x="1054" 
d="M322 -364q-7 6 -7 16q0 5 3 13l124 317l-394 995q-3 8 -3 14q0 21 26 21h115q26 0 34 -24l309 -802l310 802q8 24 34 24h109q26 0 26 -21q0 -6 -3 -14l-521 -1323q-9 -24 -34 -24h-108q-13 0 -20 6zM233 1135q-7 5 -7 13t8 19l185 235q15 18 37 18h146q22 0 37 -18
l185 -235q8 -11 8 -19t-7 -13t-19 -5h-80q-22 0 -37 15l-160 158l-160 -158q-15 -15 -37 -15h-80q-12 0 -19 5z" />
    <glyph glyph-name="Ydieresis" unicode="&#x178;" horiz-adv-x="1203" 
d="M43 1361q0 9 7 14t19 5h118q25 0 36 -20l381 -648l381 648q11 20 36 20h111q12 0 19 -5t7 -14t-5 -17l-464 -786v-528q0 -14 -8 -22t-22 -8h-116q-14 0 -22 8t-8 22v529l-465 785q-5 8 -5 17zM312 1569q-8 8 -8 22v133q0 14 8 22t22 8h142q14 0 22 -8t8 -22v-133
q0 -14 -8 -22t-22 -8h-142q-14 0 -22 8zM708 1569q-8 8 -8 22v133q0 14 8 22t22 8h142q14 0 22 -8t8 -22v-133q0 -14 -8 -22t-22 -8h-142q-14 0 -22 8z" />
    <glyph glyph-name="Zacute" unicode="&#x179;" horiz-adv-x="1164" 
d="M88 8q-8 8 -8 22v96q0 20 12 38l766 1064h-731q-14 0 -22 8t-8 22v92q0 14 8 22t22 8h909q14 0 22 -8t8 -22v-96q0 -20 -12 -38l-766 -1064h767q14 0 22 -8t8 -22v-92q0 -14 -8 -22t-22 -8h-945q-14 0 -22 8zM504 1503.5q-7 5.5 -7 14.5q0 8 4 16l127 233q12 21 36 21
h138q12 0 18.5 -5t6.5 -13t-8 -19l-183 -235q-15 -18 -37 -18h-76q-12 0 -19 5.5z" />
    <glyph glyph-name="zacute" unicode="&#x17a;" horiz-adv-x="1000" 
d="M88 8q-8 8 -8 22v85q0 20 14 37l605 719h-575q-14 0 -22 8t-8 22v81q0 14 8 22t22 8h750q14 0 22 -8t8 -22v-85q0 -20 -14 -37l-605 -719h606q14 0 22 -8t8 -22v-81q0 -14 -8 -22t-22 -8h-781q-14 0 -22 8zM421 1135.5q-7 5.5 -7 14.5q0 8 4 16l127 233q12 21 36 21h138
q12 0 18.5 -5t6.5 -13t-8 -19l-183 -235q-15 -18 -37 -18h-76q-12 0 -19 5.5z" />
    <glyph glyph-name="Zdotaccent" unicode="&#x17b;" horiz-adv-x="1164" 
d="M88 8q-8 8 -8 22v96q0 20 12 38l766 1064h-731q-14 0 -22 8t-8 22v92q0 14 8 22t22 8h909q14 0 22 -8t8 -22v-96q0 -20 -12 -38l-766 -1064h767q14 0 22 -8t8 -22v-92q0 -14 -8 -22t-22 -8h-945q-14 0 -22 8zM489 1565q-8 8 -8 22v141q0 14 8 22t22 8h142q14 0 22 -8
t8 -22v-141q0 -14 -8 -22t-22 -8h-142q-14 0 -22 8z" />
    <glyph glyph-name="zdotaccent" unicode="&#x17c;" horiz-adv-x="1000" 
d="M88 8q-8 8 -8 22v85q0 20 14 37l605 719h-575q-14 0 -22 8t-8 22v81q0 14 8 22t22 8h750q14 0 22 -8t8 -22v-85q0 -20 -14 -37l-605 -719h606q14 0 22 -8t8 -22v-81q0 -14 -8 -22t-22 -8h-781q-14 0 -22 8zM406 1197q-8 8 -8 22v141q0 14 8 22t22 8h142q14 0 22 -8t8 -22
v-141q0 -14 -8 -22t-22 -8h-142q-14 0 -22 8z" />
    <glyph glyph-name="Zcaron" unicode="&#x17d;" horiz-adv-x="1164" 
d="M88 8q-8 8 -8 22v96q0 20 12 38l766 1064h-731q-14 0 -22 8t-8 22v92q0 14 8 22t22 8h909q14 0 22 -8t8 -22v-96q0 -20 -12 -38l-766 -1064h767q14 0 22 -8t8 -22v-92q0 -14 -8 -22t-22 -8h-945q-14 0 -22 8zM279 1770q0 8 7 13t19 5h80q22 0 37 -15l160 -158l160 158
q15 15 37 15h80q12 0 19 -5t7 -13t-8 -19l-185 -235q-15 -18 -37 -18h-146q-22 0 -37 18l-185 235q-8 11 -8 19z" />
    <glyph glyph-name="zcaron" unicode="&#x17e;" horiz-adv-x="1000" 
d="M88 8q-8 8 -8 22v85q0 20 14 37l605 719h-575q-14 0 -22 8t-8 22v81q0 14 8 22t22 8h750q14 0 22 -8t8 -22v-85q0 -20 -14 -37l-605 -719h606q14 0 22 -8t8 -22v-81q0 -14 -8 -22t-22 -8h-781q-14 0 -22 8zM196 1402q0 8 7 13t19 5h80q22 0 37 -15l160 -158l160 158
q15 15 37 15h80q12 0 19 -5t7 -13t-8 -19l-185 -235q-15 -18 -37 -18h-146q-22 0 -37 18l-185 235q-8 11 -8 19z" />
    <glyph glyph-name="uni018F" unicode="&#x18f;" horiz-adv-x="1316" 
d="M359 65q-122 84 -186.5 241.5t-64.5 373.5v47q0 14 8 22t22 8h888q-13 233 -111.5 360t-268.5 127q-128 0 -216 -73t-126 -208q-8 -26 -34 -26h-116q-13 0 -20.5 6.5t-7.5 17.5q0 6 1 9q33 134 106 230.5t178.5 147.5t234.5 51q172 0 299.5 -86.5t195.5 -246.5t68 -376
q0 -215 -68.5 -375t-195.5 -247t-297 -87q-167 0 -289 84zM392.5 258.5q92.5 -122.5 253.5 -122.5q110 0 191.5 55.5t129.5 161.5t58 255h-738q13 -227 105.5 -349.5z" />
    <glyph glyph-name="uni01C4" unicode="&#x1c4;" horiz-adv-x="2537" 
d="M180 8q-8 8 -8 22v1320q0 14 8 22t22 8h351q202 0 350.5 -84t228.5 -240t80 -366t-80 -366t-228.5 -240t-350.5 -84h-351q-14 0 -22 8zM537 151q156 0 267 64t169 185t58 290t-58 290t-169 185t-267 64h-190v-1078h190zM1461 8q-8 8 -8 22v96q0 20 12 38l766 1064h-731
q-14 0 -22 8t-8 22v92q0 14 8 22t22 8h909q14 0 22 -8t8 -22v-96q0 -20 -12 -38l-766 -1064h767q14 0 22 -8t8 -22v-92q0 -14 -8 -22t-22 -8h-945q-14 0 -22 8zM1652 1770q0 8 7 13t19 5h80q22 0 37 -15l160 -158l160 158q15 15 37 15h80q12 0 19 -5t7 -13t-8 -19l-185 -235
q-15 -18 -37 -18h-146q-22 0 -37 18l-185 235q-8 11 -8 19z" />
    <glyph glyph-name="uni01C5" unicode="&#x1c5;" horiz-adv-x="2348" 
d="M183 8q-8 8 -8 22v1320q0 14 8 22t22 8h351q202 0 350.5 -84t228.5 -240t80 -366t-80 -366t-228.5 -240t-350.5 -84h-351q-14 0 -22 8zM540 151q156 0 267 64t169 185t58 290t-58 290t-169 185t-267 64h-190v-1078h190zM1436 8q-8 8 -8 22v85q0 20 14 37l605 719h-575
q-14 0 -22 8t-8 22v81q0 14 8 22t22 8h750q14 0 22 -8t8 -22v-85q0 -20 -14 -37l-605 -719h606q14 0 22 -8t8 -22v-81q0 -14 -8 -22t-22 -8h-781q-14 0 -22 8zM1544 1402q0 8 7 13t19 5h80q22 0 37 -15l160 -158l160 158q15 15 37 15h80q12 0 19 -5t7 -13t-8 -19l-185 -235
q-15 -18 -37 -18h-146q-22 0 -37 18l-185 235q-8 11 -8 19z" />
    <glyph glyph-name="uni01C6" unicode="&#x1c6;" horiz-adv-x="2253" 
d="M930 29l-8 151q-54 -95 -145.5 -147t-209.5 -52q-136 0 -244.5 68t-170 187.5t-61.5 269.5t61.5 269.5t170 187.5t244.5 68q113 0 204.5 -48t148.5 -137v544q0 14 8 22t22 8h108q14 0 22 -8t8 -22v-1360q0 -14 -8 -22t-22 -8h-97q-30 0 -31 29zM307 306.5
q41 -86.5 115.5 -134t172.5 -47.5q97 0 171.5 47.5t115.5 134t41 199.5t-41 199.5t-115.5 134t-171.5 47.5q-98 0 -172.5 -47.5t-115.5 -134t-41 -199.5t41 -199.5zM1340 8q-8 8 -8 22v85q0 20 14 37l605 719h-575q-14 0 -22 8t-8 22v81q0 14 8 22t22 8h750q14 0 22 -8
t8 -22v-85q0 -20 -14 -37l-605 -719h606q14 0 22 -8t8 -22v-81q0 -14 -8 -22t-22 -8h-781q-14 0 -22 8zM1448 1402q0 8 7 13t19 5h80q22 0 37 -15l160 -158l160 158q15 15 37 15h80q12 0 19 -5t7 -13t-8 -19l-185 -235q-15 -18 -37 -18h-146q-22 0 -37 18l-185 235
q-8 11 -8 19z" />
    <glyph glyph-name="uni01C7" unicode="&#x1c7;" horiz-adv-x="2242" 
d="M180 1372q8 8 22 8h116q14 0 22 -8t8 -22v-1197h701q14 0 22 -8t8 -22v-93q0 -14 -8 -22t-22 -8h-847q-14 0 -22 8t-8 22v1320q0 14 8 22zM1266 8q-8 8 -8 22v93q0 14 8 22t22 8h426q100 0 143.5 45.5t43.5 149.5v881h-455q-14 0 -22 8t-8 22v91q0 14 8 22t22 8h601
q14 0 22 -8t8 -22v-1026q0 -163 -78 -243.5t-236 -80.5h-475q-14 0 -22 8z" />
    <glyph glyph-name="uni01C8" unicode="&#x1c8;" horiz-adv-x="1818" 
d="M183 1372q8 8 22 8h116q14 0 22 -8t8 -22v-1197h701q14 0 22 -8t8 -22v-93q0 -14 -8 -22t-22 -8h-847q-14 0 -22 8t-8 22v1320q0 14 8 22zM1180 -362q-8 8 -8 22v81q0 14 8 22t22 8h226q36 0 51.5 17.5t15.5 57.5v1025h-255q-14 0 -22 8t-8 22v81q0 14 8 22t22 8h393
q14 0 22 -8t8 -22v-1160q0 -192 -186 -192h-275q-14 0 -22 8zM1486 1197q-8 8 -8 22v141q0 14 8 22t22 8h142q14 0 22 -8t8 -22v-141q0 -14 -8 -22t-22 -8h-142q-14 0 -22 8z" />
    <glyph glyph-name="uni01C9" unicode="&#x1c9;" horiz-adv-x="1448" 
d="M486 1412q8 -8 8 -22v-1249h267q14 0 22 -8t8 -22v-81q0 -14 -8 -22t-22 -8h-702q-14 0 -22 8t-8 22v81q0 14 8 22t22 8h267v1138h-255q-14 0 -22 8t-8 22v81q0 14 8 22t22 8h393q14 0 22 -8zM810 -362q-8 8 -8 22v81q0 14 8 22t22 8h226q36 0 51.5 17.5t15.5 57.5v1025
h-255q-14 0 -22 8t-8 22v81q0 14 8 22t22 8h393q14 0 22 -8t8 -22v-1160q0 -192 -186 -192h-275q-14 0 -22 8zM1116 1197q-8 8 -8 22v141q0 14 8 22t22 8h142q14 0 22 -8t8 -22v-141q0 -14 -8 -22t-22 -8h-142q-14 0 -22 8z" />
    <glyph glyph-name="uni01CA" unicode="&#x1ca;" horiz-adv-x="2495" 
d="M180 8q-8 8 -8 22v1320q0 14 8 22t22 8h131q25 0 36 -20l683 -1094v1084q0 14 8 22t22 8h112q14 0 22 -8t8 -22v-1320q0 -14 -8 -22t-22 -8h-131q-25 0 -36 20l-683 1095v-1085q0 -14 -8 -22t-22 -8h-112q-14 0 -22 8zM1520 8q-8 8 -8 22v93q0 14 8 22t22 8h426
q100 0 143.5 45.5t43.5 149.5v881h-455q-14 0 -22 8t-8 22v91q0 14 8 22t22 8h601q14 0 22 -8t8 -22v-1026q0 -163 -78 -243.5t-236 -80.5h-475q-14 0 -22 8z" />
    <glyph glyph-name="uni01CB" unicode="&#x1cb;" horiz-adv-x="2071" 
d="M183 8q-8 8 -8 22v1320q0 14 8 22t22 8h131q25 0 36 -20l683 -1094v1084q0 14 8 22t22 8h112q14 0 22 -8t8 -22v-1320q0 -14 -8 -22t-22 -8h-131q-25 0 -36 20l-683 1095v-1085q0 -14 -8 -22t-22 -8h-112q-14 0 -22 8zM1433 -362q-8 8 -8 22v81q0 14 8 22t22 8h226
q36 0 51.5 17.5t15.5 57.5v1025h-255q-14 0 -22 8t-8 22v81q0 14 8 22t22 8h393q14 0 22 -8t8 -22v-1160q0 -192 -186 -192h-275q-14 0 -22 8zM1739 1197q-8 8 -8 22v141q0 14 8 22t22 8h142q14 0 22 -8t8 -22v-141q0 -14 -8 -22t-22 -8h-142q-14 0 -22 8z" />
    <glyph glyph-name="uni01CC" unicode="&#x1cc;" horiz-adv-x="1828" 
d="M163 1004q8 8 22 8h97q29 0 31 -29l8 -146q55 97 144.5 145.5t203.5 48.5q115 0 198.5 -47.5t128.5 -141.5t45 -228v-584q0 -14 -8 -22t-22 -8h-108q-14 0 -22 8t-8 22v555q0 146 -67 222t-188 76q-88 0 -154.5 -39.5t-103.5 -115.5t-37 -183v-515q0 -14 -8 -22t-22 -8
h-108q-14 0 -22 8t-8 22v952q0 14 8 22zM1190 -362q-8 8 -8 22v81q0 14 8 22t22 8h226q36 0 51.5 17.5t15.5 57.5v1025h-255q-14 0 -22 8t-8 22v81q0 14 8 22t22 8h393q14 0 22 -8t8 -22v-1160q0 -192 -186 -192h-275q-14 0 -22 8zM1496 1197q-8 8 -8 22v141q0 14 8 22t22 8
h142q14 0 22 -8t8 -22v-141q0 -14 -8 -22t-22 -8h-142q-14 0 -22 8z" />
    <glyph glyph-name="Gcaron" unicode="&#x1e6;" horiz-adv-x="1355" 
d="M368 67.5q-125 86.5 -193 246t-68 373.5q0 217 70 377.5t200 247.5t304 87q135 0 241.5 -52t176 -151t95.5 -238q2 -16 -5.5 -24.5t-22.5 -8.5h-117q-27 0 -33 28q-28 143 -114.5 217t-220.5 74q-123 0 -211.5 -65.5t-135 -190t-46.5 -298.5q0 -175 46.5 -299t136.5 -189
t218 -65q108 0 191 45.5t130 135.5t47 219v14h-300q-14 0 -22 8t-8 22v79q0 14 8 22t22 8h430q14 0 22 -8t8 -22v-630q0 -14 -8 -22t-22 -8h-89q-29 0 -30 29l-9 191q-54 -118 -156 -178.5t-242 -60.5q-168 0 -293 86.5zM368 1770q0 8 7 13t19 5h80q22 0 37 -15l160 -158
l160 158q15 15 37 15h80q12 0 19 -5t7 -13t-8 -19l-185 -235q-15 -18 -37 -18h-146q-22 0 -37 18l-185 235q-8 11 -8 19z" />
    <glyph glyph-name="gcaron" unicode="&#x1e7;" horiz-adv-x="1244" 
d="M370.5 -348q-104.5 41 -170 115t-80.5 171q-2 15 6 23t23 8h109q26 0 32 -27q15 -57 58.5 -99.5t109 -66t144.5 -23.5q153 0 236.5 89t83.5 252v118q-54 -93 -145.5 -142.5t-208.5 -49.5q-137 0 -245.5 65t-169.5 180t-61 258t61.5 259t170.5 182.5t245 66.5
q113 0 205 -48.5t150 -138.5l8 139q2 29 31 29h97q14 0 22 -8t8 -22v-885q0 -152 -58 -261.5t-167.5 -167t-262.5 -57.5q-127 0 -231.5 41zM307.5 335.5q41.5 -82.5 116.5 -129t173 -46.5q97 0 172 46.5t116 129t41 187.5q0 106 -41 188.5t-116 129t-172 46.5
q-98 0 -173 -46.5t-116.5 -129t-41.5 -188.5q0 -105 41.5 -187.5zM299 1402q0 8 7 13t19 5h80q22 0 37 -15l160 -158l160 158q15 15 37 15h80q12 0 19 -5t7 -13t-8 -19l-185 -235q-15 -18 -37 -18h-146q-22 0 -37 18l-185 235q-8 11 -8 19z" />
    <glyph glyph-name="uni01EA" unicode="&#x1ea;" horiz-adv-x="1344" 
d="M578.5 -342.5q-55.5 46.5 -55.5 129.5q0 111 117 195q-163 8 -283 96.5t-185 246t-65 365.5q0 215 69 375.5t196.5 247t299.5 86.5t299.5 -86.5t196.5 -247t69 -375.5q0 -170 -43.5 -306.5t-125 -230.5t-195.5 -137q-98 -42 -152 -95.5t-54 -109.5q0 -78 112 -78h67
q14 0 22 -8t8 -22v-62q0 -14 -8 -22t-22 -8h-113q-99 0 -154.5 46.5zM333.5 391.5q45.5 -124.5 131.5 -190t207 -65.5t207 65.5t131.5 190t45.5 298.5t-45.5 298.5t-131.5 190t-207 65.5t-207 -65.5t-131.5 -190t-45.5 -298.5t45.5 -298.5z" />
    <glyph glyph-name="uni01EB" unicode="&#x1eb;" horiz-adv-x="1192" 
d="M502.5 -342.5q-55.5 46.5 -55.5 129.5q0 111 117 195q-136 8 -244 77.5t-168.5 186t-60.5 260.5q0 149 65.5 269t180.5 188t259 68t259 -68t180.5 -188t65.5 -269q0 -112 -37.5 -208.5t-106 -168t-159.5 -109.5q-97 -42 -152 -97.5t-55 -111.5q0 -78 112 -78h67
q14 0 22 -8t8 -22v-62q0 -14 -8 -22t-22 -8h-113q-99 0 -154.5 46.5zM306.5 307.5q41.5 -85.5 116.5 -132.5t173 -47t173 47t116.5 132.5t41.5 198.5t-41.5 198.5t-116.5 132.5t-173 47t-173 -47t-116.5 -132.5t-41.5 -198.5t41.5 -198.5z" />
    <glyph glyph-name="Aringacute" unicode="&#x1fa;" horiz-adv-x="1279" 
d="M44 21q0 8 2 13l469 1322q8 24 35 24h179q27 0 35 -24l470 -1322l2 -12q0 -10 -7 -16t-20 -6h-121q-25 0 -34 24l-121 350h-593l-121 -350q-9 -24 -34 -24h-115q-26 0 -26 21zM881 523l-244 707l-245 -707h489zM527.5 1505q-50.5 28 -79.5 77t-29 109q0 59 29 108
t79.5 77.5t112.5 28.5t112.5 -28.5t79.5 -77.5t29 -108q0 -60 -29 -109t-79.5 -77t-112.5 -28t-112.5 28zM556.5 1607.5q34.5 -34.5 83.5 -34.5q50 0 84 34.5t34 83.5q0 50 -34 84t-84 34q-49 0 -83.5 -34t-34.5 -84q0 -49 34.5 -83.5zM563 1964.5q-7 5.5 -7 14.5q0 8 4 16
l127 233q12 21 36 21h138q12 0 18.5 -5t6.5 -13t-8 -19l-183 -235q-15 -18 -37 -18h-76q-12 0 -19 5.5z" />
    <glyph glyph-name="aringacute" unicode="&#x1fb;" horiz-adv-x="1139" 
d="M963.5 153.5q15.5 -17.5 52.5 -17.5h66q14 0 22 -8t8 -22v-76q0 -14 -8 -22t-22 -8h-114q-88 0 -132 44t-46 134q-61 -98 -156.5 -147.5t-213.5 -49.5q-102 0 -179 37t-119 103.5t-42 152.5q0 124 86 197t256 92l360 41v78q0 63 -30 110.5t-85 73t-130 25.5
q-97 0 -164 -44.5t-84 -119.5q-6 -27 -32 -27h-103q-15 0 -23 8.5t-5 23.5q14 88 69.5 156t145 105.5t201.5 37.5q122 0 214 -42t142 -119t50 -177v-481q0 -41 15.5 -58.5zM303 156q57 -45 152 -45q83 0 158.5 37t122.5 109.5t47 173.5v53l-321 -37q-112 -12 -164 -52
t-52 -114q0 -80 57 -125zM444.5 1137q-50.5 28 -79.5 77t-29 109q0 59 29 108t79.5 77.5t112.5 28.5t112.5 -28.5t79.5 -77.5t29 -108q0 -60 -29 -109t-79.5 -77t-112.5 -28t-112.5 28zM473.5 1239.5q34.5 -34.5 83.5 -34.5q50 0 84 34.5t34 83.5q0 50 -34 84t-84 34
q-49 0 -83.5 -34t-34.5 -84q0 -49 34.5 -83.5zM479 1596.5q-7 5.5 -7 14.5q0 8 4 16l127 233q12 21 36 21h138q12 0 18.5 -5t6.5 -13t-8 -19l-183 -235q-15 -18 -37 -18h-76q-12 0 -19 5.5z" />
    <glyph glyph-name="AEacute" unicode="&#x1fc;" horiz-adv-x="1861" 
d="M10.5 5.5q-6.5 5.5 -6.5 13.5q0 10 5 17l758 1323q11 21 36 21h912q14 0 22 -8t8 -22v-91q0 -14 -8 -22t-22 -8h-659v-454h591q14 0 22 -8t8 -22v-90q0 -14 -8 -22t-22 -8h-591v-474h676q14 0 22 -8t8 -22v-91q0 -14 -8 -22t-22 -8h-821q-14 0 -22 8t-8 22v344h-487
l-202 -353q-11 -21 -36 -21h-127q-12 0 -18.5 5.5zM881 523v705l-402 -705h402zM891 1503.5q-7 5.5 -7 14.5q0 8 4 16l127 233q12 21 36 21h138q12 0 18.5 -5t6.5 -13t-8 -19l-183 -235q-15 -18 -37 -18h-76q-12 0 -19 5.5z" />
    <glyph glyph-name="aeacute" unicode="&#x1fd;" horiz-adv-x="1823" 
d="M1007 49q-111 68 -172 187q-59 -126 -167 -190.5t-245 -64.5q-102 0 -179.5 37t-120 103.5t-42.5 152.5q0 124 83.5 197t250.5 92l351 41v78q0 96 -63.5 152.5t-172.5 56.5q-95 0 -159 -44t-81 -120q-6 -27 -32 -27h-103q-15 0 -23 8.5t-6 23.5q14 88 68.5 156
t142.5 105.5t198 37.5q130 0 218.5 -49t129.5 -138q63 89 158 138t214 49q135 0 243 -63t169 -177t61 -260v-28q0 -14 -8 -22t-22 -8h-763q5 -107 46.5 -186t113 -121.5t165.5 -42.5q106 0 184 51t106 137q9 26 34 26h106q13 0 20.5 -5.5t7.5 -15.5q0 -6 -1 -9
q-24 -94 -90.5 -168.5t-162 -116t-204.5 -41.5q-142 0 -253 68zM300.5 156q54.5 -45 147.5 -45q81 0 154.5 37t119.5 109.5t46 173.5v53l-314 -37q-109 -12 -158.5 -51.5t-49.5 -114.5q0 -80 54.5 -125zM1554 593q-7 88 -46 155.5t-104.5 104.5t-148.5 37q-127 0 -210.5 -79
t-104.5 -218h614zM803 1135.5q-7 5.5 -7 14.5q0 8 4 16l127 233q12 21 36 21h138q12 0 18.5 -5t6.5 -13t-8 -19l-183 -235q-15 -18 -37 -18h-76q-12 0 -19 5.5z" />
    <glyph glyph-name="Oslashacute" unicode="&#x1fe;" horiz-adv-x="1344" 
d="M372 68l-58 -96q-11 -20 -36 -20h-81q-13 0 -19.5 5t-6.5 13q0 7 6 18l99 165q-82 94 -125.5 230.5t-43.5 306.5q0 215 69 375.5t196.5 247t299.5 86.5q173 0 300 -87l58 96q11 20 36 20h81q13 0 19.5 -5t6.5 -13q0 -7 -6 -18l-99 -165q82 -94 125.5 -230.5t43.5 -306.5
q0 -215 -69 -375.5t-196.5 -247t-299.5 -86.5q-173 0 -300 87zM371 307l516 867q-90 71 -215 71q-121 0 -207.5 -65.5t-132 -190.5t-45.5 -299q0 -241 84 -383zM672 135q121 0 207.5 65.5t132 190.5t45.5 299q0 241 -84 383l-516 -867q90 -71 215 -71zM594 1503.5
q-7 5.5 -7 14.5q0 8 4 16l127 233q12 21 36 21h138q12 0 18.5 -5t6.5 -13t-8 -19l-183 -235q-15 -18 -37 -18h-76q-12 0 -19 5.5z" />
    <glyph glyph-name="oslashacute" unicode="&#x1ff;" horiz-adv-x="1192" 
d="M347 44l-51 -73q-12 -19 -36 -19h-77q-12 0 -19 5t-7 13t7 18l87 126q-76 72 -118 173t-42 219q0 149 65.5 269t180.5 188t259 68q138 0 249 -63l51 73q12 19 36 19h77q12 0 19 -5t7 -13t-7 -18l-87 -126q76 -72 118 -173t42 -219q0 -149 -65.5 -269t-180.5 -188
t-259 -68q-138 0 -249 63zM285 359.5q21 -66.5 60 -115.5l413 601q-72 40 -162 40q-99 0 -174 -47t-116.5 -133t-41.5 -199q0 -80 21 -146.5zM596 127q99 0 174 47t116.5 133t41.5 199q0 80 -21 146.5t-60 115.5l-413 -601q72 -40 162 -40zM518 1135.5q-7 5.5 -7 14.5
q0 8 4 16l127 233q12 21 36 21h138q12 0 18.5 -5t6.5 -13t-8 -19l-183 -235q-15 -18 -37 -18h-76q-12 0 -19 5.5z" />
    <glyph glyph-name="uni0200" unicode="&#x200;" horiz-adv-x="1279" 
d="M44 21q0 8 2 13l469 1322q8 24 35 24h179q27 0 35 -24l470 -1322l2 -12q0 -10 -7 -16t-20 -6h-121q-25 0 -34 24l-121 350h-593l-121 -350q-9 -24 -34 -24h-115q-26 0 -26 21zM881 523l-244 707l-245 -707h489zM890 1518q0 -20 -26 -20h-71q-23 0 -36 19l-165 235
q-7 8 -7 18q0 8 7 13t19 5h127q25 0 35 -22l113 -233q4 -8 4 -15zM237 1770q0 8 7 13t19 5h127q25 0 35 -22l113 -233q4 -8 4 -15q0 -20 -26 -20h-71q-24 0 -36 19l-165 235q-7 8 -7 18z" />
    <glyph glyph-name="uni0201" unicode="&#x201;" horiz-adv-x="1139" 
d="M963.5 153.5q15.5 -17.5 52.5 -17.5h66q14 0 22 -8t8 -22v-76q0 -14 -8 -22t-22 -8h-114q-88 0 -132 44t-46 134q-61 -98 -156.5 -147.5t-213.5 -49.5q-102 0 -179 37t-119 103.5t-42 152.5q0 124 86 197t256 92l360 41v78q0 63 -30 110.5t-85 73t-130 25.5
q-97 0 -164 -44.5t-84 -119.5q-6 -27 -32 -27h-103q-15 0 -23 8.5t-5 23.5q14 88 69.5 156t145 105.5t201.5 37.5q122 0 214 -42t142 -119t50 -177v-481q0 -41 15.5 -58.5zM303 156q57 -45 152 -45q83 0 158.5 37t122.5 109.5t47 173.5v53l-321 -37q-112 -12 -164 -52
t-52 -114q0 -80 57 -125zM807 1150q0 -20 -26 -20h-71q-23 0 -36 19l-165 235q-7 8 -7 18q0 8 7 13t19 5h127q25 0 35 -22l113 -233q4 -8 4 -15zM154 1402q0 8 7 13t19 5h127q25 0 35 -22l113 -233q4 -8 4 -15q0 -20 -26 -20h-71q-24 0 -36 19l-165 235q-7 8 -7 18z" />
    <glyph glyph-name="uni0202" unicode="&#x202;" horiz-adv-x="1279" 
d="M44 21q0 8 2 13l469 1322q8 24 35 24h179q27 0 35 -24l470 -1322l2 -12q0 -10 -7 -16t-20 -6h-121q-25 0 -34 24l-121 350h-593l-121 -350q-9 -24 -34 -24h-115q-26 0 -26 21zM881 523l-244 707l-245 -707h489zM442 1707.5q-74 -75.5 -81 -209.5h126q5 76 45.5 119
t107.5 43t107.5 -43t45.5 -119h126q-7 134 -81 209.5t-198 75.5t-198 -75.5z" />
    <glyph glyph-name="uni0203" unicode="&#x203;" horiz-adv-x="1139" 
d="M963.5 153.5q15.5 -17.5 52.5 -17.5h66q14 0 22 -8t8 -22v-76q0 -14 -8 -22t-22 -8h-114q-88 0 -132 44t-46 134q-61 -98 -156.5 -147.5t-213.5 -49.5q-102 0 -179 37t-119 103.5t-42 152.5q0 124 86 197t256 92l360 41v78q0 63 -30 110.5t-85 73t-130 25.5
q-97 0 -164 -44.5t-84 -119.5q-6 -27 -32 -27h-103q-15 0 -23 8.5t-5 23.5q14 88 69.5 156t145 105.5t201.5 37.5q122 0 214 -42t142 -119t50 -177v-481q0 -41 15.5 -58.5zM303 156q57 -45 152 -45q83 0 158.5 37t122.5 109.5t47 173.5v53l-321 -37q-112 -12 -164 -52
t-52 -114q0 -80 57 -125zM359 1339.5q-74 -75.5 -81 -209.5h126q5 76 45.5 119t107.5 43t107.5 -43t45.5 -119h126q-7 134 -81 209.5t-198 75.5t-198 -75.5z" />
    <glyph glyph-name="uni0204" unicode="&#x204;" horiz-adv-x="1184" 
d="M180 1372q8 8 22 8h836q14 0 22 -8t8 -22v-91q0 -14 -8 -22t-22 -8h-691v-454h622q14 0 22 -8t8 -22v-90q0 -14 -8 -22t-22 -8h-622v-474h708q14 0 22 -8t8 -22v-91q0 -14 -8 -22t-22 -8h-853q-14 0 -22 8t-8 22v1320q0 14 8 22zM870 1518q0 -20 -26 -20h-71
q-23 0 -36 19l-165 235q-7 8 -7 18q0 8 7 13t19 5h127q25 0 35 -22l113 -233q4 -8 4 -15zM217 1770q0 8 7 13t19 5h127q25 0 35 -22l113 -233q4 -8 4 -15q0 -20 -26 -20h-71q-24 0 -36 19l-165 235q-7 8 -7 18z" />
    <glyph glyph-name="uni0205" unicode="&#x205;" horiz-adv-x="1167" 
d="M1054.5 330.5q7.5 -6.5 7.5 -17.5q0 -6 -1 -9q-25 -94 -92.5 -167.5t-164.5 -114.5t-207 -41q-145 0 -260 68t-180.5 187.5t-65.5 269.5t64.5 269.5t179 187.5t257.5 68q137 0 246.5 -63t171.5 -177t62 -260v-28q0 -14 -8 -22t-22 -8h-778q6 -107 48.5 -186t115.5 -121.5
t169 -42.5q109 0 189.5 51.5t108.5 136.5q9 26 34 26h105q13 0 20.5 -6.5zM899 593q-7 88 -47.5 155.5t-107.5 104.5t-152 37q-129 0 -215 -79.5t-108 -217.5h630zM831 1150q0 -20 -26 -20h-71q-23 0 -36 19l-165 235q-7 8 -7 18q0 8 7 13t19 5h127q25 0 35 -22l113 -233
q4 -8 4 -15zM178 1402q0 8 7 13t19 5h127q25 0 35 -22l113 -233q4 -8 4 -15q0 -20 -26 -20h-71q-24 0 -36 19l-165 235q-7 8 -7 18z" />
    <glyph glyph-name="uni0206" unicode="&#x206;" horiz-adv-x="1184" 
d="M180 1372q8 8 22 8h836q14 0 22 -8t8 -22v-91q0 -14 -8 -22t-22 -8h-691v-454h622q14 0 22 -8t8 -22v-90q0 -14 -8 -22t-22 -8h-622v-474h708q14 0 22 -8t8 -22v-91q0 -14 -8 -22t-22 -8h-853q-14 0 -22 8t-8 22v1320q0 14 8 22zM422 1707.5q-74 -75.5 -81 -209.5h126
q5 76 45.5 119t107.5 43t107.5 -43t45.5 -119h126q-7 134 -81 209.5t-198 75.5t-198 -75.5z" />
    <glyph glyph-name="uni0207" unicode="&#x207;" horiz-adv-x="1167" 
d="M1054.5 330.5q7.5 -6.5 7.5 -17.5q0 -6 -1 -9q-25 -94 -92.5 -167.5t-164.5 -114.5t-207 -41q-145 0 -260 68t-180.5 187.5t-65.5 269.5t64.5 269.5t179 187.5t257.5 68q137 0 246.5 -63t171.5 -177t62 -260v-28q0 -14 -8 -22t-22 -8h-778q6 -107 48.5 -186t115.5 -121.5
t169 -42.5q109 0 189.5 51.5t108.5 136.5q9 26 34 26h105q13 0 20.5 -6.5zM899 593q-7 88 -47.5 155.5t-107.5 104.5t-152 37q-129 0 -215 -79.5t-108 -217.5h630zM383 1339.5q-74 -75.5 -81 -209.5h126q5 76 45.5 119t107.5 43t107.5 -43t45.5 -119h126q-7 134 -81 209.5
t-198 75.5t-198 -75.5z" />
    <glyph glyph-name="uni0208" unicode="&#x208;" horiz-adv-x="1007" 
d="M913 1372q8 -8 8 -22v-91q0 -14 -8 -22t-22 -8h-300v-1078h300q14 0 22 -8t8 -22v-91q0 -14 -8 -22t-22 -8h-775q-14 0 -22 8t-8 22v91q0 14 8 22t22 8h299v1078h-299q-14 0 -22 8t-8 22v91q0 14 8 22t22 8h775q14 0 22 -8zM753 1518q0 -20 -26 -20h-71q-23 0 -36 19
l-165 235q-7 8 -7 18q0 8 7 13t19 5h127q25 0 35 -22l113 -233q4 -8 4 -15zM100 1770q0 8 7 13t19 5h127q25 0 35 -22l113 -233q4 -8 4 -15q0 -20 -26 -20h-71q-24 0 -36 19l-165 235q-7 8 -7 18z" />
    <glyph glyph-name="uni0209" unicode="&#x209;" horiz-adv-x="628" 
d="M313 8q-8 8 -8 22v841h-255q-14 0 -22 8t-8 22v81q0 14 8 22t22 8h393q14 0 22 -8t8 -22v-952q0 -14 -8 -22t-22 -8h-108q-14 0 -22 8zM639 1150q0 -20 -26 -20h-71q-23 0 -36 19l-165 235q-7 8 -7 18q0 8 7 13t19 5h127q25 0 35 -22l113 -233q4 -8 4 -15zM-14 1402
q0 8 7 13t19 5h127q25 0 35 -22l113 -233q4 -8 4 -15q0 -20 -26 -20h-71q-24 0 -36 19l-165 235q-7 8 -7 18z" />
    <glyph glyph-name="uni020A" unicode="&#x20a;" horiz-adv-x="1007" 
d="M913 1372q8 -8 8 -22v-91q0 -14 -8 -22t-22 -8h-300v-1078h300q14 0 22 -8t8 -22v-91q0 -14 -8 -22t-22 -8h-775q-14 0 -22 8t-8 22v91q0 14 8 22t22 8h299v1078h-299q-14 0 -22 8t-8 22v91q0 14 8 22t22 8h775q14 0 22 -8zM305 1707.5q-74 -75.5 -81 -209.5h126
q5 76 45.5 119t107.5 43t107.5 -43t45.5 -119h126q-7 134 -81 209.5t-198 75.5t-198 -75.5z" />
    <glyph glyph-name="uni020B" unicode="&#x20b;" horiz-adv-x="628" 
d="M313 8q-8 8 -8 22v841h-255q-14 0 -22 8t-8 22v81q0 14 8 22t22 8h393q14 0 22 -8t8 -22v-952q0 -14 -8 -22t-22 -8h-108q-14 0 -22 8zM191 1339.5q-74 -75.5 -81 -209.5h126q5 76 45.5 119t107.5 43t107.5 -43t45.5 -119h126q-7 134 -81 209.5t-198 75.5t-198 -75.5z
" />
    <glyph glyph-name="uni020C" unicode="&#x20c;" horiz-adv-x="1344" 
d="M372.5 67.5q-127.5 86.5 -196.5 247t-69 375.5t69 375.5t196.5 247t299.5 86.5t299.5 -86.5t196.5 -247t69 -375.5t-69 -375.5t-196.5 -247t-299.5 -86.5t-299.5 86.5zM333.5 391.5q45.5 -124.5 131.5 -190t207 -65.5t207 65.5t131.5 190t45.5 298.5t-45.5 298.5
t-131.5 190t-207 65.5t-207 -65.5t-131.5 -190t-45.5 -298.5t45.5 -298.5zM922 1518q0 -20 -26 -20h-71q-23 0 -36 19l-165 235q-7 8 -7 18q0 8 7 13t19 5h127q25 0 35 -22l113 -233q4 -8 4 -15zM269 1770q0 8 7 13t19 5h127q25 0 35 -22l113 -233q4 -8 4 -15q0 -20 -26 -20
h-71q-24 0 -36 19l-165 235q-7 8 -7 18z" />
    <glyph glyph-name="uni020D" unicode="&#x20d;" horiz-adv-x="1192" 
d="M337 49q-115 68 -180.5 188t-65.5 269t65.5 269t180.5 188t259 68t259 -68t180.5 -188t65.5 -269t-65.5 -269t-180.5 -188t-259 -68t-259 68zM306.5 307.5q41.5 -85.5 116.5 -132.5t173 -47t173 47t116.5 132.5t41.5 198.5t-41.5 198.5t-116.5 132.5t-173 47t-173 -47
t-116.5 -132.5t-41.5 -198.5t41.5 -198.5zM846 1150q0 -20 -26 -20h-71q-23 0 -36 19l-165 235q-7 8 -7 18q0 8 7 13t19 5h127q25 0 35 -22l113 -233q4 -8 4 -15zM193 1402q0 8 7 13t19 5h127q25 0 35 -22l113 -233q4 -8 4 -15q0 -20 -26 -20h-71q-24 0 -36 19l-165 235
q-7 8 -7 18z" />
    <glyph glyph-name="uni020E" unicode="&#x20e;" horiz-adv-x="1344" 
d="M372.5 67.5q-127.5 86.5 -196.5 247t-69 375.5t69 375.5t196.5 247t299.5 86.5t299.5 -86.5t196.5 -247t69 -375.5t-69 -375.5t-196.5 -247t-299.5 -86.5t-299.5 86.5zM333.5 391.5q45.5 -124.5 131.5 -190t207 -65.5t207 65.5t131.5 190t45.5 298.5t-45.5 298.5
t-131.5 190t-207 65.5t-207 -65.5t-131.5 -190t-45.5 -298.5t45.5 -298.5zM474 1707.5q-74 -75.5 -81 -209.5h126q5 76 45.5 119t107.5 43t107.5 -43t45.5 -119h126q-7 134 -81 209.5t-198 75.5t-198 -75.5z" />
    <glyph glyph-name="uni020F" unicode="&#x20f;" horiz-adv-x="1192" 
d="M337 49q-115 68 -180.5 188t-65.5 269t65.5 269t180.5 188t259 68t259 -68t180.5 -188t65.5 -269t-65.5 -269t-180.5 -188t-259 -68t-259 68zM306.5 307.5q41.5 -85.5 116.5 -132.5t173 -47t173 47t116.5 132.5t41.5 198.5t-41.5 198.5t-116.5 132.5t-173 47t-173 -47
t-116.5 -132.5t-41.5 -198.5t41.5 -198.5zM398 1339.5q-74 -75.5 -81 -209.5h126q5 76 45.5 119t107.5 43t107.5 -43t45.5 -119h126q-7 134 -81 209.5t-198 75.5t-198 -75.5z" />
    <glyph glyph-name="uni0210" unicode="&#x210;" horiz-adv-x="1249" 
d="M888 787q73 66 73 188t-73 187.5t-210 65.5h-330v-507h330q137 0 210 66zM180 8q-8 8 -8 22v1320q0 14 8 22t22 8h492q136 0 237 -49.5t156 -141.5t55 -214q0 -151 -84 -252t-232 -133l319 -554q6 -9 6 -17q0 -9 -7 -14t-19 -5h-136q-25 0 -36 21l-310 551h-295v-542
q0 -14 -8 -22t-22 -8h-116q-14 0 -22 8zM867 1518q0 -20 -26 -20h-71q-23 0 -36 19l-165 235q-7 8 -7 18q0 8 7 13t19 5h127q25 0 35 -22l113 -233q4 -8 4 -15zM214 1770q0 8 7 13t19 5h127q25 0 35 -22l113 -233q4 -8 4 -15q0 -20 -26 -20h-71q-24 0 -36 19l-165 235
q-7 8 -7 18z" />
    <glyph glyph-name="uni0211" unicode="&#x211;" horiz-adv-x="1001" 
d="M612 781.5q-91 -83.5 -91 -250.5v-390h265q14 0 22 -8t8 -22v-81q0 -14 -8 -22t-22 -8h-675q-14 0 -22 8t-8 22v81q0 14 8 22t22 8h242v730h-230q-14 0 -22 8t-8 22v81q0 14 8 22t22 8h357q29 0 31 -29l10 -175q52 114 143.5 168.5t210.5 54.5q32 0 56 -4q27 -4 27 -32
v-106q0 -15 -8.5 -22.5t-24.5 -5.5q-32 4 -69 4q-153 0 -244 -83.5zM799 1150q0 -20 -26 -20h-71q-23 0 -36 19l-165 235q-7 8 -7 18q0 8 7 13t19 5h127q25 0 35 -22l113 -233q4 -8 4 -15zM146 1402q0 8 7 13t19 5h127q25 0 35 -22l113 -233q4 -8 4 -15q0 -20 -26 -20h-71
q-24 0 -36 19l-165 235q-7 8 -7 18z" />
    <glyph glyph-name="uni0212" unicode="&#x212;" horiz-adv-x="1249" 
d="M888 787q73 66 73 188t-73 187.5t-210 65.5h-330v-507h330q137 0 210 66zM180 8q-8 8 -8 22v1320q0 14 8 22t22 8h492q136 0 237 -49.5t156 -141.5t55 -214q0 -151 -84 -252t-232 -133l319 -554q6 -9 6 -17q0 -9 -7 -14t-19 -5h-136q-25 0 -36 21l-310 551h-295v-542
q0 -14 -8 -22t-22 -8h-116q-14 0 -22 8zM419 1707.5q-74 -75.5 -81 -209.5h126q5 76 45.5 119t107.5 43t107.5 -43t45.5 -119h126q-7 134 -81 209.5t-198 75.5t-198 -75.5z" />
    <glyph glyph-name="uni0213" unicode="&#x213;" horiz-adv-x="1001" 
d="M612 781.5q-91 -83.5 -91 -250.5v-390h265q14 0 22 -8t8 -22v-81q0 -14 -8 -22t-22 -8h-675q-14 0 -22 8t-8 22v81q0 14 8 22t22 8h242v730h-230q-14 0 -22 8t-8 22v81q0 14 8 22t22 8h357q29 0 31 -29l10 -175q52 114 143.5 168.5t210.5 54.5q32 0 56 -4q27 -4 27 -32
v-106q0 -15 -8.5 -22.5t-24.5 -5.5q-32 4 -69 4q-153 0 -244 -83.5zM351 1339.5q-74 -75.5 -81 -209.5h126q5 76 45.5 119t107.5 43t107.5 -43t45.5 -119h126q-7 134 -81 209.5t-198 75.5t-198 -75.5z" />
    <glyph glyph-name="uni0214" unicode="&#x214;" horiz-adv-x="1362" 
d="M167 1372q8 8 22 8h116q14 0 22 -8t8 -22v-811q0 -191 91 -296.5t257 -105.5t257 105.5t91 296.5v811q0 14 8 22t22 8h112q14 0 22 -8t8 -22v-817q0 -169 -63.5 -293.5t-181.5 -191.5t-278 -67t-277.5 67t-180.5 191.5t-63 293.5v817q0 14 8 22zM933 1518q0 -20 -26 -20
h-71q-23 0 -36 19l-165 235q-7 8 -7 18q0 8 7 13t19 5h127q25 0 35 -22l113 -233q4 -8 4 -15zM280 1770q0 8 7 13t19 5h127q25 0 35 -22l113 -233q4 -8 4 -15q0 -20 -26 -20h-71q-24 0 -36 19l-165 235q-7 8 -7 18z" />
    <glyph glyph-name="uni0215" unicode="&#x215;" horiz-adv-x="1184" 
d="M1021 8q-8 -8 -22 -8h-97q-29 0 -31 29l-8 145q-55 -96 -144.5 -144.5t-203.5 -48.5q-115 0 -198.5 47.5t-128.5 141.5t-45 228v584q0 14 8 22t22 8h108q14 0 22 -8t8 -22v-555q0 -146 67 -222t189 -76q88 0 154 39.5t103 115.5t37 183v515q0 14 8 22t22 8h108
q14 0 22 -8t8 -22v-952q0 -14 -8 -22zM838 1150q0 -20 -26 -20h-71q-23 0 -36 19l-165 235q-7 8 -7 18q0 8 7 13t19 5h127q25 0 35 -22l113 -233q4 -8 4 -15zM185 1402q0 8 7 13t19 5h127q25 0 35 -22l113 -233q4 -8 4 -15q0 -20 -26 -20h-71q-24 0 -36 19l-165 235
q-7 8 -7 18z" />
    <glyph glyph-name="uni0216" unicode="&#x216;" horiz-adv-x="1362" 
d="M167 1372q8 8 22 8h116q14 0 22 -8t8 -22v-811q0 -191 91 -296.5t257 -105.5t257 105.5t91 296.5v811q0 14 8 22t22 8h112q14 0 22 -8t8 -22v-817q0 -169 -63.5 -293.5t-181.5 -191.5t-278 -67t-277.5 67t-180.5 191.5t-63 293.5v817q0 14 8 22zM485 1707.5
q-74 -75.5 -81 -209.5h126q5 76 45.5 119t107.5 43t107.5 -43t45.5 -119h126q-7 134 -81 209.5t-198 75.5t-198 -75.5z" />
    <glyph glyph-name="uni0217" unicode="&#x217;" horiz-adv-x="1184" 
d="M1021 8q-8 -8 -22 -8h-97q-29 0 -31 29l-8 145q-55 -96 -144.5 -144.5t-203.5 -48.5q-115 0 -198.5 47.5t-128.5 141.5t-45 228v584q0 14 8 22t22 8h108q14 0 22 -8t8 -22v-555q0 -146 67 -222t189 -76q88 0 154 39.5t103 115.5t37 183v515q0 14 8 22t22 8h108
q14 0 22 -8t8 -22v-952q0 -14 -8 -22zM390 1339.5q-74 -75.5 -81 -209.5h126q5 76 45.5 119t107.5 43t107.5 -43t45.5 -119h126q-7 134 -81 209.5t-198 75.5t-198 -75.5z" />
    <glyph glyph-name="uni0218" unicode="&#x218;" horiz-adv-x="1233" 
d="M368.5 31q-113.5 50 -183 143.5t-85.5 219.5q-1 16 6.5 24t22.5 8h112q27 0 32 -28q13 -83 60.5 -143.5t123 -93t170.5 -32.5q101 0 177 32.5t118 91.5t42 137q0 94 -69 148.5t-218 77.5l-169 26q-200 31 -296 117.5t-96 235.5q0 122 60 213.5t171 141t260 49.5
q141 0 249 -48t173 -138t80 -213q2 -15 -5.5 -23t-22.5 -8h-111q-28 0 -32 28q-21 120 -109 187t-226 67q-95 0 -166.5 -29.5t-111 -83t-39.5 -125.5q0 -85 62 -135t195 -71l173 -28q215 -33 317.5 -125t102.5 -249q0 -128 -62.5 -224t-177.5 -148t-269 -52
q-145 0 -258.5 50zM523 -310q-8 8 -8 22v121q0 14 8 22t22 8h142q14 0 22 -8t8 -22v-131q0 -19 -12 -37l-110 -161q-12 -19 -36 -19h-41q-12 0 -19 5.5t-7 14.5q0 8 4 16l81 161h-32q-14 0 -22 8z" />
    <glyph glyph-name="uni0219" unicode="&#x219;" horiz-adv-x="1044" 
d="M767 745q-20 73 -89 113.5t-171 40.5q-111 0 -178 -42t-67 -112q0 -64 48 -96t158 -45l137 -16q182 -22 266.5 -89.5t84.5 -193.5q0 -96 -53 -169.5t-149.5 -114t-222.5 -40.5q-119 0 -212.5 36.5t-153 105t-76.5 160.5q-2 15 5.5 23.5t22.5 8.5h100q27 0 33 -27
q20 -83 94 -129t187 -46q80 0 139.5 21.5t92.5 61.5t33 94q0 68 -51 103.5t-176 48.5l-134 15q-170 17 -251 83.5t-81 188.5q0 90 51 158.5t143.5 106t213.5 37.5q112 0 200.5 -34t144.5 -97t72 -149q2 -15 -5.5 -23.5t-22.5 -8.5h-100q-25 0 -33 26zM427 -310q-8 8 -8 22
v121q0 14 8 22t22 8h142q14 0 22 -8t8 -22v-131q0 -19 -12 -37l-110 -161q-12 -19 -36 -19h-41q-12 0 -19 5.5t-7 14.5q0 8 4 16l81 161h-32q-14 0 -22 8z" />
    <glyph glyph-name="uni021A" unicode="&#x21a;" horiz-adv-x="1137" 
d="M1086 1372q8 -8 8 -22v-93q0 -14 -8 -22t-22 -8h-408v-1197q0 -14 -8 -22t-22 -8h-116q-14 0 -22 8t-8 22v1197h-407q-14 0 -22 8t-8 22v93q0 14 8 22t22 8h991q14 0 22 -8zM475 -310q-8 8 -8 22v121q0 14 8 22t22 8h142q14 0 22 -8t8 -22v-131q0 -19 -12 -37l-110 -161
q-12 -19 -36 -19h-41q-12 0 -19 5.5t-7 14.5q0 8 4 16l81 161h-32q-14 0 -22 8z" />
    <glyph glyph-name="uni021B" unicode="&#x21b;" horiz-adv-x="844" 
d="M259 192v679h-197q-14 0 -22 8t-8 22v81q0 14 8 22t22 8h197v255q0 14 8 22t22 8h108q14 0 22 -8t8 -22v-255h317q14 0 22 -8t8 -22v-81q0 -14 -8 -22t-22 -8h-317v-655q0 -40 15.5 -57.5t51.5 -17.5h267q14 0 22 -8t8 -22v-81q0 -14 -8 -22t-22 -8h-316q-186 0 -186 192
zM320 -310q-8 8 -8 22v121q0 14 8 22t22 8h142q14 0 22 -8t8 -22v-131q0 -19 -12 -37l-110 -161q-12 -19 -36 -19h-41q-12 0 -19 5.5t-7 14.5q0 8 4 16l81 161h-32q-14 0 -22 8z" />
    <glyph glyph-name="uni022A" unicode="&#x22a;" horiz-adv-x="1344" 
d="M372.5 67.5q-127.5 86.5 -196.5 247t-69 375.5t69 375.5t196.5 247t299.5 86.5t299.5 -86.5t196.5 -247t69 -375.5t-69 -375.5t-196.5 -247t-299.5 -86.5t-299.5 86.5zM333.5 391.5q45.5 -124.5 131.5 -190t207 -65.5t207 65.5t131.5 190t45.5 298.5t-45.5 298.5
t-131.5 190t-207 65.5t-207 -65.5t-131.5 -190t-45.5 -298.5t45.5 -298.5zM381 1569q-8 8 -8 22v133q0 14 8 22t22 8h142q14 0 22 -8t8 -22v-133q0 -14 -8 -22t-22 -8h-142q-14 0 -22 8zM777 1569q-8 8 -8 22v133q0 14 8 22t22 8h142q14 0 22 -8t8 -22v-133q0 -14 -8 -22
t-22 -8h-142q-14 0 -22 8zM384 2020q8 8 22 8h532q14 0 22 -8t8 -22v-65q0 -14 -8 -22t-22 -8h-532q-14 0 -22 8t-8 22v65q0 14 8 22z" />
    <glyph glyph-name="uni022B" unicode="&#x22b;" horiz-adv-x="1192" 
d="M337 49q-115 68 -180.5 188t-65.5 269t65.5 269t180.5 188t259 68t259 -68t180.5 -188t65.5 -269t-65.5 -269t-180.5 -188t-259 -68t-259 68zM306.5 307.5q41.5 -85.5 116.5 -132.5t173 -47t173 47t116.5 132.5t41.5 198.5t-41.5 198.5t-116.5 132.5t-173 47t-173 -47
t-116.5 -132.5t-41.5 -198.5t41.5 -198.5zM305 1201q-8 8 -8 22v133q0 14 8 22t22 8h142q14 0 22 -8t8 -22v-133q0 -14 -8 -22t-22 -8h-142q-14 0 -22 8zM701 1201q-8 8 -8 22v133q0 14 8 22t22 8h142q14 0 22 -8t8 -22v-133q0 -14 -8 -22t-22 -8h-142q-14 0 -22 8z
M308 1652q8 8 22 8h532q14 0 22 -8t8 -22v-65q0 -14 -8 -22t-22 -8h-532q-14 0 -22 8t-8 22v65q0 14 8 22z" />
    <glyph glyph-name="uni022C" unicode="&#x22c;" horiz-adv-x="1344" 
d="M372.5 67.5q-127.5 86.5 -196.5 247t-69 375.5t69 375.5t196.5 247t299.5 86.5t299.5 -86.5t196.5 -247t69 -375.5t-69 -375.5t-196.5 -247t-299.5 -86.5t-299.5 86.5zM333.5 391.5q45.5 -124.5 131.5 -190t207 -65.5t207 65.5t131.5 190t45.5 298.5t-45.5 298.5
t-131.5 190t-207 65.5t-207 -65.5t-131.5 -190t-45.5 -298.5t45.5 -298.5zM727 1542.5q-33 16.5 -76 48.5q-31 24 -52.5 35.5t-43.5 11.5q-27 0 -45 -19.5t-24 -55.5q-5 -29 -32 -29h-53q-30 0 -30 21q0 60 22 107t61 73.5t89 26.5q41 0 74 -16.5t76 -48.5
q31 -24 52.5 -35.5t43.5 -11.5q27 0 45 19.5t24 55.5q5 29 32 29h53q30 0 30 -21q0 -60 -22 -107t-61 -73.5t-89 -26.5q-41 0 -74 16.5zM384 2020q8 8 22 8h532q14 0 22 -8t8 -22v-65q0 -14 -8 -22t-22 -8h-532q-14 0 -22 8t-8 22v65q0 14 8 22z" />
    <glyph glyph-name="uni022D" unicode="&#x22d;" horiz-adv-x="1192" 
d="M337 49q-115 68 -180.5 188t-65.5 269t65.5 269t180.5 188t259 68t259 -68t180.5 -188t65.5 -269t-65.5 -269t-180.5 -188t-259 -68t-259 68zM306.5 307.5q41.5 -85.5 116.5 -132.5t173 -47t173 47t116.5 132.5t41.5 198.5t-41.5 198.5t-116.5 132.5t-173 47t-173 -47
t-116.5 -132.5t-41.5 -198.5t41.5 -198.5zM651 1174.5q-33 16.5 -76 48.5q-31 24 -52.5 35.5t-43.5 11.5q-27 0 -45 -19.5t-24 -55.5q-5 -29 -32 -29h-53q-30 0 -30 21q0 60 22 107t61 73.5t89 26.5q41 0 74 -16.5t76 -48.5q31 -24 52.5 -35.5t43.5 -11.5q27 0 45 19.5
t24 55.5q5 29 32 29h53q30 0 30 -21q0 -60 -22 -107t-61 -73.5t-89 -26.5q-41 0 -74 16.5zM308 1652q8 8 22 8h532q14 0 22 -8t8 -22v-65q0 -14 -8 -22t-22 -8h-532q-14 0 -22 8t-8 22v65q0 14 8 22z" />
    <glyph glyph-name="uni0230" unicode="&#x230;" horiz-adv-x="1344" 
d="M372.5 67.5q-127.5 86.5 -196.5 247t-69 375.5t69 375.5t196.5 247t299.5 86.5t299.5 -86.5t196.5 -247t69 -375.5t-69 -375.5t-196.5 -247t-299.5 -86.5t-299.5 86.5zM333.5 391.5q45.5 -124.5 131.5 -190t207 -65.5t207 65.5t131.5 190t45.5 298.5t-45.5 298.5
t-131.5 190t-207 65.5t-207 -65.5t-131.5 -190t-45.5 -298.5t45.5 -298.5zM579 1565q-8 8 -8 22v141q0 14 8 22t22 8h142q14 0 22 -8t8 -22v-141q0 -14 -8 -22t-22 -8h-142q-14 0 -22 8zM384 2020q8 8 22 8h532q14 0 22 -8t8 -22v-65q0 -14 -8 -22t-22 -8h-532q-14 0 -22 8
t-8 22v65q0 14 8 22z" />
    <glyph glyph-name="uni0231" unicode="&#x231;" horiz-adv-x="1192" 
d="M337 49q-115 68 -180.5 188t-65.5 269t65.5 269t180.5 188t259 68t259 -68t180.5 -188t65.5 -269t-65.5 -269t-180.5 -188t-259 -68t-259 68zM306.5 307.5q41.5 -85.5 116.5 -132.5t173 -47t173 47t116.5 132.5t41.5 198.5t-41.5 198.5t-116.5 132.5t-173 47t-173 -47
t-116.5 -132.5t-41.5 -198.5t41.5 -198.5zM503 1197q-8 8 -8 22v141q0 14 8 22t22 8h142q14 0 22 -8t8 -22v-141q0 -14 -8 -22t-22 -8h-142q-14 0 -22 8zM308 1652q8 8 22 8h532q14 0 22 -8t8 -22v-65q0 -14 -8 -22t-22 -8h-532q-14 0 -22 8t-8 22v65q0 14 8 22z" />
    <glyph glyph-name="uni0232" unicode="&#x232;" horiz-adv-x="1203" 
d="M43 1361q0 9 7 14t19 5h118q25 0 36 -20l381 -648l381 648q11 20 36 20h111q12 0 19 -5t7 -14t-5 -17l-464 -786v-528q0 -14 -8 -22t-22 -8h-116q-14 0 -22 8t-8 22v529l-465 785q-5 8 -5 17zM315 1699q8 8 22 8h532q14 0 22 -8t8 -22v-65q0 -14 -8 -22t-22 -8h-532
q-14 0 -22 8t-8 22v65q0 14 8 22z" />
    <glyph glyph-name="uni0233" unicode="&#x233;" horiz-adv-x="1054" 
d="M322 -364q-7 6 -7 16q0 5 3 13l124 317l-394 995q-3 8 -3 14q0 21 26 21h115q26 0 34 -24l309 -802l310 802q8 24 34 24h109q26 0 26 -21q0 -6 -3 -14l-521 -1323q-9 -24 -34 -24h-108q-13 0 -20 6zM241 1331q8 8 22 8h532q14 0 22 -8t8 -22v-65q0 -14 -8 -22t-22 -8
h-532q-14 0 -22 8t-8 22v65q0 14 8 22z" />
    <glyph glyph-name="uni0237" unicode="&#x237;" horiz-adv-x="628" 
d="M-10 -362q-8 8 -8 22v81q0 14 8 22t22 8h226q36 0 51.5 17.5t15.5 57.5v1025h-255q-14 0 -22 8t-8 22v81q0 14 8 22t22 8h393q14 0 22 -8t8 -22v-1160q0 -192 -186 -192h-275q-14 0 -22 8z" />
    <glyph glyph-name="uni0259" unicode="&#x259;" horiz-adv-x="1167" 
d="M111.5 681.5q-7.5 6.5 -7.5 17.5q0 6 1 9q26 94 93.5 167.5t164.5 114.5t207 41q145 0 260 -68t180.5 -187.5t65.5 -269.5t-64.5 -269.5t-179 -187.5t-257.5 -68q-137 0 -247 63t-172 177t-62 260v28q0 14 8 22t22 8h779q-6 107 -48.5 186t-115.5 121.5t-169 42.5
q-109 0 -189.5 -51.5t-108.5 -136.5q-9 -26 -34 -26h-106q-13 0 -20.5 6.5zM315 263.5q40 -67.5 107.5 -104.5t152.5 -37q129 0 215 79.5t108 217.5h-630q7 -88 47 -155.5z" />
    <glyph glyph-name="circumflex" unicode="&#x2c6;" 
d="M314 1135q-7 5 -7 13t8 19l185 235q15 18 37 18h146q22 0 37 -18l185 -235q8 -11 8 -19t-7 -13t-19 -5h-80q-22 0 -37 15l-160 158l-160 -158q-15 -15 -37 -15h-80q-12 0 -19 5z" />
    <glyph glyph-name="caron" unicode="&#x2c7;" 
d="M307 1402q0 8 7 13t19 5h80q22 0 37 -15l160 -158l160 158q15 15 37 15h80q12 0 19 -5t7 -13t-8 -19l-185 -235q-15 -18 -37 -18h-146q-22 0 -37 18l-185 235q-8 11 -8 19z" />
    <glyph glyph-name="breve" unicode="&#x2d8;" 
d="M808 1192q74 75 81 209h-126q-5 -76 -45.5 -119t-107.5 -43t-107.5 43t-45.5 119h-126q7 -134 81 -209t198 -75t198 75z" />
    <glyph glyph-name="dotaccent" unicode="&#x2d9;" 
d="M517 1197q-8 8 -8 22v141q0 14 8 22t22 8h142q14 0 22 -8t8 -22v-141q0 -14 -8 -22t-22 -8h-142q-14 0 -22 8z" />
    <glyph glyph-name="ring" unicode="&#x2da;" 
d="M497.5 1137q-50.5 28 -79.5 77t-29 109q0 59 29 108t79.5 77.5t112.5 28.5t112.5 -28.5t79.5 -77.5t29 -108q0 -60 -29 -109t-79.5 -77t-112.5 -28t-112.5 28zM526.5 1239.5q34.5 -34.5 83.5 -34.5q50 0 84 34.5t34 83.5q0 50 -34 84t-84 34q-49 0 -83.5 -34t-34.5 -84
q0 -49 34.5 -83.5z" />
    <glyph glyph-name="ogonek" unicode="&#x2db;" 
d="M339 -342.5q-56 46.5 -56 129.5q0 75 53 136.5t163 114.5q17 9 37 9h12q22 0 36 -17l4 -5q8 -9 8 -19q0 -13 -16 -23q-153 -86 -153 -172q0 -78 112 -78h68q14 0 22 -8t8 -22v-62q0 -14 -8 -22t-22 -8h-113q-99 0 -155 46.5z" />
    <glyph glyph-name="tilde" unicode="&#x2dc;" 
d="M665 1174.5q-33 16.5 -76 48.5q-31 24 -52.5 35.5t-43.5 11.5q-27 0 -45 -19.5t-24 -55.5q-5 -29 -32 -29h-53q-30 0 -30 21q0 60 22 107t61 73.5t89 26.5q41 0 74 -16.5t76 -48.5q31 -24 52.5 -35.5t43.5 -11.5q27 0 45 19.5t24 55.5q5 29 32 29h53q30 0 30 -21
q0 -60 -22 -107t-61 -73.5t-89 -26.5q-41 0 -74 16.5z" />
    <glyph glyph-name="hungarumlaut" unicode="&#x2dd;" 
d="M352 1150q0 7 4 15l113 233q10 22 35 22h127q12 0 19 -5t7 -13q0 -10 -7 -18l-165 -235q-12 -19 -36 -19h-71q-26 0 -26 20zM700 1150q0 7 4 15l113 233q10 22 35 22h127q12 0 19 -5t7 -13q0 -10 -7 -18l-165 -235q-12 -19 -36 -19h-71q-26 0 -26 20z" />
    <glyph glyph-name="gravecomb" unicode="&#x300;" horiz-adv-x="0" 
d="M688 1150q0 -9 -6.5 -14.5t-19.5 -5.5h-76q-22 0 -37 18l-183 235q-8 11 -8 19t6.5 13t18.5 5h138q24 0 36 -21l127 -233q4 -8 4 -16z" />
    <glyph glyph-name="acutecomb" unicode="&#x301;" horiz-adv-x="0" 
d="M531 1135.5q-7 5.5 -7 14.5q0 8 4 16l127 233q12 21 36 21h138q12 0 18.5 -5t6.5 -13t-8 -19l-183 -235q-15 -18 -37 -18h-76q-12 0 -19 5.5z" />
    <glyph glyph-name="uni0302" unicode="&#x302;" horiz-adv-x="0" 
d="M314 1135q-7 5 -7 13t8 19l185 235q15 18 37 18h146q22 0 37 -18l185 -235q8 -11 8 -19t-7 -13t-19 -5h-80q-22 0 -37 15l-160 158l-160 -158q-15 -15 -37 -15h-80q-12 0 -19 5z" />
    <glyph glyph-name="tildecomb" unicode="&#x303;" horiz-adv-x="0" 
d="M665 1174.5q-33 16.5 -76 48.5q-31 24 -52.5 35.5t-43.5 11.5q-27 0 -45 -19.5t-24 -55.5q-5 -29 -32 -29h-53q-30 0 -30 21q0 60 22 107t61 73.5t89 26.5q41 0 74 -16.5t76 -48.5q31 -24 52.5 -35.5t43.5 -11.5q27 0 45 19.5t24 55.5q5 29 32 29h53q30 0 30 -21
q0 -60 -22 -107t-61 -73.5t-89 -26.5q-41 0 -74 16.5z" />
    <glyph glyph-name="uni0304" unicode="&#x304;" horiz-adv-x="0" 
d="M322 1331q8 8 22 8h532q14 0 22 -8t8 -22v-65q0 -14 -8 -22t-22 -8h-532q-14 0 -22 8t-8 22v65q0 14 8 22z" />
    <glyph glyph-name="uni0306" unicode="&#x306;" horiz-adv-x="0" 
d="M808 1192q74 75 81 209h-126q-5 -76 -45.5 -119t-107.5 -43t-107.5 43t-45.5 119h-126q7 -134 81 -209t198 -75t198 75z" />
    <glyph glyph-name="uni0307" unicode="&#x307;" horiz-adv-x="0" 
d="M517 1197q-8 8 -8 22v141q0 14 8 22t22 8h142q14 0 22 -8t8 -22v-141q0 -14 -8 -22t-22 -8h-142q-14 0 -22 8z" />
    <glyph glyph-name="uni0308" unicode="&#x308;" horiz-adv-x="0" 
d="M319 1201q-8 8 -8 22v133q0 14 8 22t22 8h142q14 0 22 -8t8 -22v-133q0 -14 -8 -22t-22 -8h-142q-14 0 -22 8zM715 1201q-8 8 -8 22v133q0 14 8 22t22 8h142q14 0 22 -8t8 -22v-133q0 -14 -8 -22t-22 -8h-142q-14 0 -22 8z" />
    <glyph glyph-name="uni030A" unicode="&#x30a;" horiz-adv-x="0" 
d="M497.5 1137q-50.5 28 -79.5 77t-29 109q0 59 29 108t79.5 77.5t112.5 28.5t112.5 -28.5t79.5 -77.5t29 -108q0 -60 -29 -109t-79.5 -77t-112.5 -28t-112.5 28zM526.5 1239.5q34.5 -34.5 83.5 -34.5q50 0 84 34.5t34 83.5q0 50 -34 84t-84 34q-49 0 -83.5 -34t-34.5 -84
q0 -49 34.5 -83.5z" />
    <glyph glyph-name="uni030B" unicode="&#x30b;" horiz-adv-x="0" 
d="M352 1150q0 7 4 15l113 233q10 22 35 22h127q12 0 19 -5t7 -13q0 -10 -7 -18l-165 -235q-12 -19 -36 -19h-71q-26 0 -26 20zM700 1150q0 7 4 15l113 233q10 22 35 22h127q12 0 19 -5t7 -13q0 -10 -7 -18l-165 -235q-12 -19 -36 -19h-71q-26 0 -26 20z" />
    <glyph glyph-name="uni030C" unicode="&#x30c;" horiz-adv-x="0" 
d="M307 1402q0 8 7 13t19 5h80q22 0 37 -15l160 -158l160 158q15 15 37 15h80q12 0 19 -5t7 -13t-8 -19l-185 -235q-15 -18 -37 -18h-146q-22 0 -37 18l-185 235q-8 11 -8 19z" />
    <glyph glyph-name="uni030F" unicode="&#x30f;" horiz-adv-x="0" 
d="M860 1150q0 -20 -26 -20h-71q-23 0 -36 19l-165 235q-7 8 -7 18q0 8 7 13t19 5h127q25 0 35 -22l113 -233q4 -8 4 -15zM207 1402q0 8 7 13t19 5h127q25 0 35 -22l113 -233q4 -8 4 -15q0 -20 -26 -20h-71q-24 0 -36 19l-165 235q-7 8 -7 18z" />
    <glyph glyph-name="uni0311" unicode="&#x311;" horiz-adv-x="0" 
d="M412 1339.5q-74 -75.5 -81 -209.5h126q5 76 45.5 119t107.5 43t107.5 -43t45.5 -119h126q-7 134 -81 209.5t-198 75.5t-198 -75.5z" />
    <glyph glyph-name="uni0312" unicode="&#x312;" horiz-adv-x="0" 
d="M703 1362q8 -8 8 -22v-121q0 -14 -8 -22t-22 -8h-142q-14 0 -22 8t-8 22v131q0 19 12 37l110 161q12 19 36 19h41q13 0 19.5 -5.5t6.5 -14.5q0 -8 -4 -16l-81 -161h32q14 0 22 -8z" />
    <glyph glyph-name="dotbelowcomb" unicode="&#x323;" horiz-adv-x="0" 
d="M517 -370q-8 8 -8 22v141q0 14 8 22t22 8h142q14 0 22 -8t8 -22v-141q0 -14 -8 -22t-22 -8h-142q-14 0 -22 8z" />
    <glyph glyph-name="uni0326" unicode="&#x326;" horiz-adv-x="0" 
d="M517 -310q-8 8 -8 22v121q0 14 8 22t22 8h142q14 0 22 -8t8 -22v-131q0 -19 -12 -37l-110 -161q-12 -19 -36 -19h-41q-12 0 -19 5.5t-7 14.5q0 8 4 16l81 161h-32q-14 0 -22 8z" />
    <glyph glyph-name="uni0327" unicode="&#x327;" horiz-adv-x="0" 
d="M509 -153q-7 6 -7 17q0 3 2 11l48 163q7 25 33 25h49q13 0 20 -6t7 -17q0 -3 -2 -11l-31 -103h13q96 0 150 -41t54 -116q0 -76 -53.5 -117t-153.5 -41h-151q-14 0 -22 8t-8 22v50q0 14 8 22t22 8h115q53 0 78.5 14.5t25.5 45.5q0 60 -104 60h-73q-13 0 -20 6z" />
    <glyph glyph-name="uni0328" unicode="&#x328;" horiz-adv-x="0" 
d="M339 -342.5q-56 46.5 -56 129.5q0 75 53 136.5t163 114.5q17 9 37 9h12q22 0 36 -17l4 -5q8 -9 8 -19q0 -13 -16 -23q-153 -86 -153 -172q0 -78 112 -78h68q14 0 22 -8t8 -22v-62q0 -14 -8 -22t-22 -8h-113q-99 0 -155 46.5z" />
    <glyph glyph-name="Wgrave" unicode="&#x1e80;" horiz-adv-x="1577" 
d="M87 1355q0 12 7.5 18.5t20.5 6.5h113q29 0 33 -27l202 -1156l250 980q6 26 34 26h90q28 0 34 -26l249 -976l203 1152q4 27 33 27h105q15 0 22.5 -8.5t4.5 -24.5l-245 -1320q-4 -27 -32 -27h-160q-28 0 -34 26l-229 894l-229 -894q-6 -26 -34 -26h-160q-27 0 -32 27
l-245 1320q-1 3 -1 8zM870 1518q0 -9 -6.5 -14.5t-19.5 -5.5h-76q-22 0 -37 18l-183 235q-8 11 -8 19t6.5 13t18.5 5h138q24 0 36 -21l127 -233q4 -8 4 -16z" />
    <glyph glyph-name="wgrave" unicode="&#x1e81;" horiz-adv-x="1503" 
d="M71 989q0 11 7 17t20 6h105q27 0 33 -26l199 -806l243 735q8 25 34 25h86q26 0 34 -25l243 -733l199 804q6 26 33 26h98q13 0 20 -6t7 -17q0 -7 -1 -10l-241 -953q-6 -26 -34 -26h-141q-26 0 -34 24l-229 677l-230 -677q-9 -24 -34 -24h-141q-28 0 -34 26l-241 953
q-1 3 -1 10zM833 1150q0 -9 -6.5 -14.5t-19.5 -5.5h-76q-22 0 -37 18l-183 235q-8 11 -8 19t6.5 13t18.5 5h138q24 0 36 -21l127 -233q4 -8 4 -16z" />
    <glyph glyph-name="Wacute" unicode="&#x1e82;" horiz-adv-x="1577" 
d="M87 1355q0 12 7.5 18.5t20.5 6.5h113q29 0 33 -27l202 -1156l250 980q6 26 34 26h90q28 0 34 -26l249 -976l203 1152q4 27 33 27h105q15 0 22.5 -8.5t4.5 -24.5l-245 -1320q-4 -27 -32 -27h-160q-28 0 -34 26l-229 894l-229 -894q-6 -26 -34 -26h-160q-27 0 -32 27
l-245 1320q-1 3 -1 8zM714 1503.5q-7 5.5 -7 14.5q0 8 4 16l127 233q12 21 36 21h138q12 0 18.5 -5t6.5 -13t-8 -19l-183 -235q-15 -18 -37 -18h-76q-12 0 -19 5.5z" />
    <glyph glyph-name="wacute" unicode="&#x1e83;" horiz-adv-x="1503" 
d="M71 989q0 11 7 17t20 6h105q27 0 33 -26l199 -806l243 735q8 25 34 25h86q26 0 34 -25l243 -733l199 804q6 26 33 26h98q13 0 20 -6t7 -17q0 -7 -1 -10l-241 -953q-6 -26 -34 -26h-141q-26 0 -34 24l-229 677l-230 -677q-9 -24 -34 -24h-141q-28 0 -34 26l-241 953
q-1 3 -1 10zM677 1135.5q-7 5.5 -7 14.5q0 8 4 16l127 233q12 21 36 21h138q12 0 18.5 -5t6.5 -13t-8 -19l-183 -235q-15 -18 -37 -18h-76q-12 0 -19 5.5z" />
    <glyph glyph-name="Wdieresis" unicode="&#x1e84;" horiz-adv-x="1577" 
d="M87 1355q0 12 7.5 18.5t20.5 6.5h113q29 0 33 -27l202 -1156l250 980q6 26 34 26h90q28 0 34 -26l249 -976l203 1152q4 27 33 27h105q15 0 22.5 -8.5t4.5 -24.5l-245 -1320q-4 -27 -32 -27h-160q-28 0 -34 26l-229 894l-229 -894q-6 -26 -34 -26h-160q-27 0 -32 27
l-245 1320q-1 3 -1 8zM501 1569q-8 8 -8 22v133q0 14 8 22t22 8h142q14 0 22 -8t8 -22v-133q0 -14 -8 -22t-22 -8h-142q-14 0 -22 8zM897 1569q-8 8 -8 22v133q0 14 8 22t22 8h142q14 0 22 -8t8 -22v-133q0 -14 -8 -22t-22 -8h-142q-14 0 -22 8z" />
    <glyph glyph-name="wdieresis" unicode="&#x1e85;" horiz-adv-x="1503" 
d="M71 989q0 11 7 17t20 6h105q27 0 33 -26l199 -806l243 735q8 25 34 25h86q26 0 34 -25l243 -733l199 804q6 26 33 26h98q13 0 20 -6t7 -17q0 -7 -1 -10l-241 -953q-6 -26 -34 -26h-141q-26 0 -34 24l-229 677l-230 -677q-9 -24 -34 -24h-141q-28 0 -34 26l-241 953
q-1 3 -1 10zM464 1201q-8 8 -8 22v133q0 14 8 22t22 8h142q14 0 22 -8t8 -22v-133q0 -14 -8 -22t-22 -8h-142q-14 0 -22 8zM860 1201q-8 8 -8 22v133q0 14 8 22t22 8h142q14 0 22 -8t8 -22v-133q0 -14 -8 -22t-22 -8h-142q-14 0 -22 8z" />
    <glyph glyph-name="uni1E9E" unicode="&#x1e9e;" horiz-adv-x="1353" 
d="M223.5 1155.5q62.5 107.5 177.5 166t268 58.5h510q14 0 22 -8t8 -22v-86q0 -21 -13 -37l-339 -438q123 -13 214 -65t140 -136.5t49 -192.5q0 -113 -54 -203t-149.5 -141t-215.5 -51h-293q-14 0 -22 8t-8 22v91q0 14 8 22t22 8h245q86 0 150.5 31.5t100 88.5t35.5 132
t-38 131.5t-108 87.5t-162 31h-76q-14 0 -22 8t-8 22v75q0 21 13 37l337 434h-346q-100 0 -175 -40t-116 -113.5t-41 -170.5v-875q0 -14 -8 -22t-22 -8h-116q-14 0 -22 8t-8 22v875q0 143 62.5 250.5z" />
    <glyph glyph-name="uni1EA0" unicode="&#x1ea0;" horiz-adv-x="1279" 
d="M44 21q0 8 2 13l469 1322q8 24 35 24h179q27 0 35 -24l470 -1322l2 -12q0 -10 -7 -16t-20 -6h-121q-25 0 -34 24l-121 350h-593l-121 -350q-9 -24 -34 -24h-115q-26 0 -26 21zM881 523l-244 707l-245 -707h489zM544 -370q-8 8 -8 22v141q0 14 8 22t22 8h142q14 0 22 -8
t8 -22v-141q0 -14 -8 -22t-22 -8h-142q-14 0 -22 8z" />
    <glyph glyph-name="uni1EA1" unicode="&#x1ea1;" horiz-adv-x="1139" 
d="M963.5 153.5q15.5 -17.5 52.5 -17.5h66q14 0 22 -8t8 -22v-76q0 -14 -8 -22t-22 -8h-114q-88 0 -132 44t-46 134q-61 -98 -156.5 -147.5t-213.5 -49.5q-102 0 -179 37t-119 103.5t-42 152.5q0 124 86 197t256 92l360 41v78q0 63 -30 110.5t-85 73t-130 25.5
q-97 0 -164 -44.5t-84 -119.5q-6 -27 -32 -27h-103q-15 0 -23 8.5t-5 23.5q14 88 69.5 156t145 105.5t201.5 37.5q122 0 214 -42t142 -119t50 -177v-481q0 -41 15.5 -58.5zM303 156q57 -45 152 -45q83 0 158.5 37t122.5 109.5t47 173.5v53l-321 -37q-112 -12 -164 -52
t-52 -114q0 -80 57 -125zM489 -370q-8 8 -8 22v141q0 14 8 22t22 8h142q14 0 22 -8t8 -22v-141q0 -14 -8 -22t-22 -8h-142q-14 0 -22 8z" />
    <glyph glyph-name="uni1EAC" unicode="&#x1eac;" horiz-adv-x="1279" 
d="M44 21q0 8 2 13l469 1322q8 24 35 24h179q27 0 35 -24l470 -1322l2 -12q0 -10 -7 -16t-20 -6h-121q-25 0 -34 24l-121 350h-593l-121 -350q-9 -24 -34 -24h-115q-26 0 -26 21zM881 523l-244 707l-245 -707h489zM544 -370q-8 8 -8 22v141q0 14 8 22t22 8h142q14 0 22 -8
t8 -22v-141q0 -14 -8 -22t-22 -8h-142q-14 0 -22 8zM344 1503q-7 5 -7 13t8 19l185 235q15 18 37 18h146q22 0 37 -18l185 -235q8 -11 8 -19t-7 -13t-19 -5h-80q-22 0 -37 15l-160 158l-160 -158q-15 -15 -37 -15h-80q-12 0 -19 5z" />
    <glyph glyph-name="uni1EAD" unicode="&#x1ead;" horiz-adv-x="1139" 
d="M963.5 153.5q15.5 -17.5 52.5 -17.5h66q14 0 22 -8t8 -22v-76q0 -14 -8 -22t-22 -8h-114q-88 0 -132 44t-46 134q-61 -98 -156.5 -147.5t-213.5 -49.5q-102 0 -179 37t-119 103.5t-42 152.5q0 124 86 197t256 92l360 41v78q0 63 -30 110.5t-85 73t-130 25.5
q-97 0 -164 -44.5t-84 -119.5q-6 -27 -32 -27h-103q-15 0 -23 8.5t-5 23.5q14 88 69.5 156t145 105.5t201.5 37.5q122 0 214 -42t142 -119t50 -177v-481q0 -41 15.5 -58.5zM303 156q57 -45 152 -45q83 0 158.5 37t122.5 109.5t47 173.5v53l-321 -37q-112 -12 -164 -52
t-52 -114q0 -80 57 -125zM489 -370q-8 8 -8 22v141q0 14 8 22t22 8h142q14 0 22 -8t8 -22v-141q0 -14 -8 -22t-22 -8h-142q-14 0 -22 8zM261 1135q-7 5 -7 13t8 19l185 235q15 18 37 18h146q22 0 37 -18l185 -235q8 -11 8 -19t-7 -13t-19 -5h-80q-22 0 -37 15l-160 158
l-160 -158q-15 -15 -37 -15h-80q-12 0 -19 5z" />
    <glyph glyph-name="uni1EB6" unicode="&#x1eb6;" horiz-adv-x="1279" 
d="M44 21q0 8 2 13l469 1322q8 24 35 24h179q27 0 35 -24l470 -1322l2 -12q0 -10 -7 -16t-20 -6h-121q-25 0 -34 24l-121 350h-593l-121 -350q-9 -24 -34 -24h-115q-26 0 -26 21zM881 523l-244 707l-245 -707h489zM544 -370q-8 8 -8 22v141q0 14 8 22t22 8h142q14 0 22 -8
t8 -22v-141q0 -14 -8 -22t-22 -8h-142q-14 0 -22 8zM838 1560q74 75 81 209h-126q-5 -76 -45.5 -119t-107.5 -43t-107.5 43t-45.5 119h-126q7 -134 81 -209t198 -75t198 75z" />
    <glyph glyph-name="uni1EB7" unicode="&#x1eb7;" horiz-adv-x="1139" 
d="M963.5 153.5q15.5 -17.5 52.5 -17.5h66q14 0 22 -8t8 -22v-76q0 -14 -8 -22t-22 -8h-114q-88 0 -132 44t-46 134q-61 -98 -156.5 -147.5t-213.5 -49.5q-102 0 -179 37t-119 103.5t-42 152.5q0 124 86 197t256 92l360 41v78q0 63 -30 110.5t-85 73t-130 25.5
q-97 0 -164 -44.5t-84 -119.5q-6 -27 -32 -27h-103q-15 0 -23 8.5t-5 23.5q14 88 69.5 156t145 105.5t201.5 37.5q122 0 214 -42t142 -119t50 -177v-481q0 -41 15.5 -58.5zM303 156q57 -45 152 -45q83 0 158.5 37t122.5 109.5t47 173.5v53l-321 -37q-112 -12 -164 -52
t-52 -114q0 -80 57 -125zM489 -370q-8 8 -8 22v141q0 14 8 22t22 8h142q14 0 22 -8t8 -22v-141q0 -14 -8 -22t-22 -8h-142q-14 0 -22 8zM755 1192q74 75 81 209h-126q-5 -76 -45.5 -119t-107.5 -43t-107.5 43t-45.5 119h-126q7 -134 81 -209t198 -75t198 75z" />
    <glyph glyph-name="uni1EB8" unicode="&#x1eb8;" horiz-adv-x="1184" 
d="M180 1372q8 8 22 8h836q14 0 22 -8t8 -22v-91q0 -14 -8 -22t-22 -8h-691v-454h622q14 0 22 -8t8 -22v-90q0 -14 -8 -22t-22 -8h-622v-474h708q14 0 22 -8t8 -22v-91q0 -14 -8 -22t-22 -8h-853q-14 0 -22 8t-8 22v1320q0 14 8 22zM543 -370q-8 8 -8 22v141q0 14 8 22t22 8
h142q14 0 22 -8t8 -22v-141q0 -14 -8 -22t-22 -8h-142q-14 0 -22 8z" />
    <glyph glyph-name="uni1EB9" unicode="&#x1eb9;" horiz-adv-x="1167" 
d="M1054.5 330.5q7.5 -6.5 7.5 -17.5q0 -6 -1 -9q-25 -94 -92.5 -167.5t-164.5 -114.5t-207 -41q-145 0 -260 68t-180.5 187.5t-65.5 269.5t64.5 269.5t179 187.5t257.5 68q137 0 246.5 -63t171.5 -177t62 -260v-28q0 -14 -8 -22t-22 -8h-778q6 -107 48.5 -186t115.5 -121.5
t169 -42.5q109 0 189.5 51.5t108.5 136.5q9 26 34 26h105q13 0 20.5 -6.5zM899 593q-7 88 -47.5 155.5t-107.5 104.5t-152 37q-129 0 -215 -79.5t-108 -217.5h630zM503 -370q-8 8 -8 22v141q0 14 8 22t22 8h142q14 0 22 -8t8 -22v-141q0 -14 -8 -22t-22 -8h-142q-14 0 -22 8
z" />
    <glyph glyph-name="uni1EBC" unicode="&#x1ebc;" horiz-adv-x="1184" 
d="M180 1372q8 8 22 8h836q14 0 22 -8t8 -22v-91q0 -14 -8 -22t-22 -8h-691v-454h622q14 0 22 -8t8 -22v-90q0 -14 -8 -22t-22 -8h-622v-474h708q14 0 22 -8t8 -22v-91q0 -14 -8 -22t-22 -8h-853q-14 0 -22 8t-8 22v1320q0 14 8 22zM675 1542.5q-33 16.5 -76 48.5
q-31 24 -52.5 35.5t-43.5 11.5q-27 0 -45 -19.5t-24 -55.5q-5 -29 -32 -29h-53q-30 0 -30 21q0 60 22 107t61 73.5t89 26.5q41 0 74 -16.5t76 -48.5q31 -24 52.5 -35.5t43.5 -11.5q27 0 45 19.5t24 55.5q5 29 32 29h53q30 0 30 -21q0 -60 -22 -107t-61 -73.5t-89 -26.5
q-41 0 -74 16.5z" />
    <glyph glyph-name="uni1EBD" unicode="&#x1ebd;" horiz-adv-x="1167" 
d="M1054.5 330.5q7.5 -6.5 7.5 -17.5q0 -6 -1 -9q-25 -94 -92.5 -167.5t-164.5 -114.5t-207 -41q-145 0 -260 68t-180.5 187.5t-65.5 269.5t64.5 269.5t179 187.5t257.5 68q137 0 246.5 -63t171.5 -177t62 -260v-28q0 -14 -8 -22t-22 -8h-778q6 -107 48.5 -186t115.5 -121.5
t169 -42.5q109 0 189.5 51.5t108.5 136.5q9 26 34 26h105q13 0 20.5 -6.5zM899 593q-7 88 -47.5 155.5t-107.5 104.5t-152 37q-129 0 -215 -79.5t-108 -217.5h630zM636 1174.5q-33 16.5 -76 48.5q-31 24 -52.5 35.5t-43.5 11.5q-27 0 -45 -19.5t-24 -55.5q-5 -29 -32 -29
h-53q-30 0 -30 21q0 60 22 107t61 73.5t89 26.5q41 0 74 -16.5t76 -48.5q31 -24 52.5 -35.5t43.5 -11.5q27 0 45 19.5t24 55.5q5 29 32 29h53q30 0 30 -21q0 -60 -22 -107t-61 -73.5t-89 -26.5q-41 0 -74 16.5z" />
    <glyph glyph-name="uni1EC6" unicode="&#x1ec6;" horiz-adv-x="1184" 
d="M180 1372q8 8 22 8h836q14 0 22 -8t8 -22v-91q0 -14 -8 -22t-22 -8h-691v-454h622q14 0 22 -8t8 -22v-90q0 -14 -8 -22t-22 -8h-622v-474h708q14 0 22 -8t8 -22v-91q0 -14 -8 -22t-22 -8h-853q-14 0 -22 8t-8 22v1320q0 14 8 22zM543 -370q-8 8 -8 22v141q0 14 8 22t22 8
h142q14 0 22 -8t8 -22v-141q0 -14 -8 -22t-22 -8h-142q-14 0 -22 8zM324 1503q-7 5 -7 13t8 19l185 235q15 18 37 18h146q22 0 37 -18l185 -235q8 -11 8 -19t-7 -13t-19 -5h-80q-22 0 -37 15l-160 158l-160 -158q-15 -15 -37 -15h-80q-12 0 -19 5z" />
    <glyph glyph-name="uni1EC7" unicode="&#x1ec7;" horiz-adv-x="1167" 
d="M1054.5 330.5q7.5 -6.5 7.5 -17.5q0 -6 -1 -9q-25 -94 -92.5 -167.5t-164.5 -114.5t-207 -41q-145 0 -260 68t-180.5 187.5t-65.5 269.5t64.5 269.5t179 187.5t257.5 68q137 0 246.5 -63t171.5 -177t62 -260v-28q0 -14 -8 -22t-22 -8h-778q6 -107 48.5 -186t115.5 -121.5
t169 -42.5q109 0 189.5 51.5t108.5 136.5q9 26 34 26h105q13 0 20.5 -6.5zM899 593q-7 88 -47.5 155.5t-107.5 104.5t-152 37q-129 0 -215 -79.5t-108 -217.5h630zM503 -370q-8 8 -8 22v141q0 14 8 22t22 8h142q14 0 22 -8t8 -22v-141q0 -14 -8 -22t-22 -8h-142q-14 0 -22 8
zM285 1135q-7 5 -7 13t8 19l185 235q15 18 37 18h146q22 0 37 -18l185 -235q8 -11 8 -19t-7 -13t-19 -5h-80q-22 0 -37 15l-160 158l-160 -158q-15 -15 -37 -15h-80q-12 0 -19 5z" />
    <glyph glyph-name="uni1ECA" unicode="&#x1eca;" horiz-adv-x="1007" 
d="M913 1372q8 -8 8 -22v-91q0 -14 -8 -22t-22 -8h-300v-1078h300q14 0 22 -8t8 -22v-91q0 -14 -8 -22t-22 -8h-775q-14 0 -22 8t-8 22v91q0 14 8 22t22 8h299v1078h-299q-14 0 -22 8t-8 22v91q0 14 8 22t22 8h775q14 0 22 -8zM410 -370q-8 8 -8 22v141q0 14 8 22t22 8h142
q14 0 22 -8t8 -22v-141q0 -14 -8 -22t-22 -8h-142q-14 0 -22 8z" />
    </font>
</defs>
</svg>
